<svg width="22" height="22" viewBox="0 0 22 22" fill="none" xmlns="http://www.w3.org/2000/svg">
<path d="M7.64446 12.5511L11.7245 16.6311C11.891 16.7967 12.1163 16.8896 12.3511 16.8896C12.586 16.8896 12.8112 16.7967 12.9778 16.6311C13.0611 16.5485 13.1272 16.4502 13.1724 16.3419C13.2175 16.2336 13.2407 16.1174 13.2407 16C13.2407 15.8827 13.2175 15.7665 13.1724 15.6582C13.1272 15.5499 13.0611 15.4515 12.9778 15.3689L8.8889 11.2978C8.80559 11.2152 8.73946 11.1169 8.69433 11.0085C8.6492 10.9002 8.62597 10.784 8.62597 10.6667C8.62597 10.5493 8.6492 10.4332 8.69433 10.3248C8.73946 10.2165 8.80559 10.1182 8.8889 10.0356L12.9778 5.96447C13.1452 5.79827 13.2397 5.57238 13.2405 5.3365C13.2413 5.10062 13.1484 4.87407 12.9822 4.70669C12.816 4.53931 12.5901 4.44481 12.3543 4.44397C12.1184 4.44314 11.8918 4.53604 11.7245 4.70225L7.64446 8.78225C7.14508 9.28225 6.86458 9.96002 6.86458 10.6667C6.86458 11.3734 7.14508 12.0511 7.64446 12.5511Z" fill="#0F1A24"/>
</svg>
