<svg width="12" height="12" viewBox="0 0 12 12" fill="none" xmlns="http://www.w3.org/2000/svg">
<path d="M10.8 5.55H2.28597L6.01797 1.818C6.09565 1.73142 6.13786 1.61875 6.13619 1.50244C6.13453 1.38614 6.0891 1.27472 6.00897 1.1904C5.92454 1.11065 5.81324 1.06553 5.69711 1.06398C5.58098 1.06242 5.46851 1.10455 5.38197 1.182L0.88197 5.682C0.7977 5.76638 0.750366 5.88075 0.750366 6C0.750366 6.11925 0.7977 6.23363 0.88197 6.318L5.38197 10.818C5.55177 10.98 5.84397 10.9758 6.00957 10.8102C6.08966 10.7257 6.13499 10.6142 6.13655 10.4977C6.13811 10.3813 6.09577 10.2686 6.01797 10.182L2.28597 6.45H10.8C11.0388 6.45 11.25 6.2388 11.25 6C11.2466 5.88171 11.1982 5.76917 11.1145 5.68549C11.0308 5.60181 10.9183 5.55333 10.8 5.55Z" fill="currentColor"/>
</svg>
