<svg width="12" height="12" viewBox="0 0 12 12" fill="none" xmlns="http://www.w3.org/2000/svg">
<path d="M1.20003 6.45H9.71403L5.98203 10.182C5.90435 10.2686 5.86214 10.3812 5.86381 10.4976C5.86548 10.6139 5.9109 10.7253 5.99103 10.8096C6.07546 10.8893 6.18676 10.9345 6.30289 10.936C6.41902 10.9376 6.53149 10.8955 6.61803 10.818L11.118 6.318C11.2023 6.23362 11.2496 6.11925 11.2496 6C11.2496 5.88075 11.2023 5.76637 11.118 5.682L6.61803 1.18199C6.44823 1.01999 6.15603 1.02419 5.99043 1.18979C5.91034 1.27429 5.86501 1.38584 5.86345 1.50225C5.86189 1.61866 5.90423 1.73139 5.98203 1.818L9.71403 5.55H1.20003C0.961229 5.55 0.75003 5.7612 0.75003 6C0.753355 6.11829 0.801833 6.23083 0.885515 6.31451C0.969196 6.39819 1.08173 6.44667 1.20003 6.45Z" fill="currentColor"/>
</svg>
