<svg width="16" height="16" viewBox="0 0 16 16" fill="none" xmlns="http://www.w3.org/2000/svg">
<path d="M14.4 7.4H3.04796L8.02396 2.424C8.12753 2.30856 8.18381 2.15833 8.18159 2.00325C8.17937 1.84817 8.1188 1.69962 8.01196 1.5872C7.89939 1.48087 7.75098 1.4207 7.59614 1.41863C7.44131 1.41655 7.29134 1.47272 7.17596 1.576L1.17596 7.576C1.0636 7.6885 1.00049 7.841 1.00049 8C1.00049 8.159 1.0636 8.3115 1.17596 8.424L7.17596 14.424C7.40236 14.64 7.79196 14.6344 8.01276 14.4136C8.11955 14.3009 8.17999 14.1522 8.18207 13.997C8.18414 13.8418 8.1277 13.6915 8.02396 13.576L3.04796 8.6H14.4C14.7184 8.6 15 8.3184 15 8C14.9955 7.84227 14.9309 7.69222 14.8193 7.58065C14.7077 7.46907 14.5577 7.40443 14.4 7.4Z" fill="#737F8C"/>
</svg>
