<svg width="22" height="22" viewBox="0 0 22 22" fill="none" xmlns="http://www.w3.org/2000/svg">
<path d="M13.689 8.78221L9.60904 4.70221C9.44249 4.53665 9.2172 4.44373 8.98237 4.44373C8.74754 4.44373 8.52225 4.53665 8.35571 4.70221C8.27239 4.78484 8.20626 4.88315 8.16114 4.99147C8.11601 5.09979 8.09277 5.21598 8.09277 5.33332C8.09277 5.45066 8.11601 5.56685 8.16114 5.67517C8.20626 5.78348 8.27239 5.8818 8.35571 5.96443L12.4446 10.0355C12.5279 10.1182 12.594 10.2165 12.6392 10.3248C12.6843 10.4331 12.7075 10.5493 12.7075 10.6667C12.7075 10.784 12.6843 10.9002 12.6392 11.0085C12.594 11.1168 12.5279 11.2151 12.4446 11.2978L8.35571 15.3689C8.18832 15.5351 8.09382 15.761 8.09299 15.9968C8.09216 16.2327 8.18506 16.4593 8.35126 16.6267C8.51746 16.794 8.74335 16.8885 8.97923 16.8894C9.21511 16.8902 9.44166 16.7973 9.60904 16.6311L13.689 12.5511C14.1884 12.0511 14.4689 11.3733 14.4689 10.6667C14.4689 9.95998 14.1884 9.28221 13.689 8.78221Z" fill="#0F1A24"/>
</svg>
