<svg width="15" height="15" viewBox="0 0 15 15" fill="none" xmlns="http://www.w3.org/2000/svg">
<path d="M11.875 1.25H11.25V0.625C11.25 0.28 10.9706 0 10.625 0C10.2794 0 10 0.28 10 0.625V1.25H5V0.625C5 0.28 4.72062 0 4.375 0C4.02938 0 3.75 0.28 3.75 0.625V1.25H3.125C1.40188 1.25 0 2.65188 0 4.375V11.875C0 13.5981 1.40188 15 3.125 15H11.875C13.5981 15 15 13.5981 15 11.875V4.375C15 2.65188 13.5981 1.25 11.875 1.25ZM3.125 2.5H11.875C12.9087 2.5 13.75 3.34125 13.75 4.375V5H1.25V4.375C1.25 3.34125 2.09125 2.5 3.125 2.5ZM11.875 13.75H3.125C2.09125 13.75 1.25 12.9087 1.25 11.875V6.25H13.75V11.875C13.75 12.9087 12.9087 13.75 11.875 13.75ZM11.875 8.75C11.875 9.095 11.5956 9.375 11.25 9.375H3.75C3.40438 9.375 3.125 9.095 3.125 8.75C3.125 8.405 3.40438 8.125 3.75 8.125H11.25C11.5956 8.125 11.875 8.405 11.875 8.75ZM7.5 11.25C7.5 11.595 7.22062 11.875 6.875 11.875H3.75C3.40438 11.875 3.125 11.595 3.125 11.25C3.125 10.905 3.40438 10.625 3.75 10.625H6.875C7.22062 10.625 7.5 10.905 7.5 11.25Z" fill="#737F8C"/>
</svg>
