<svg width="16" height="16" viewBox="0 0 16 16" fill="none" xmlns="http://www.w3.org/2000/svg">
<path d="M9.41313 10.2667L12.4731 7.20667C12.5973 7.08176 12.667 6.91279 12.667 6.73667C12.667 6.56054 12.5973 6.39157 12.4731 6.26667C12.4112 6.20418 12.3374 6.15458 12.2562 6.12074C12.1749 6.08689 12.0878 6.06947 11.9998 6.06947C11.9118 6.06947 11.8247 6.08689 11.7434 6.12074C11.6622 6.15458 11.5884 6.20418 11.5265 6.26667L8.47313 9.33333C8.41116 9.39582 8.33742 9.44542 8.25618 9.47926C8.17494 9.51311 8.0878 9.53053 7.9998 9.53053C7.91179 9.53053 7.82465 9.51311 7.74341 9.47926C7.66217 9.44542 7.58844 9.39582 7.52646 9.33333L4.47313 6.26667C4.34848 6.14113 4.17906 6.07025 4.00215 6.06963C3.82524 6.069 3.65533 6.13868 3.5298 6.26333C3.40426 6.38799 3.33338 6.5574 3.33276 6.73431C3.33213 6.91122 3.40181 7.08113 3.52646 7.20667L6.58646 10.2667C6.96146 10.6412 7.4698 10.8516 7.9998 10.8516C8.5298 10.8516 9.03813 10.6412 9.41313 10.2667Z" fill="#0F1A24"/>
</svg>
