<svg width="24" height="24" viewBox="0 0 24 24" fill="none" xmlns="http://www.w3.org/2000/svg">
<rect width="24" height="24" rx="12" fill="#0081FF"/>
<path d="M16.8 11.55H12.45V7.2C12.4467 7.0817 12.3982 6.96917 12.3145 6.88549C12.2308 6.8018 12.1183 6.75333 12 6.75C11.8817 6.75333 11.7692 6.8018 11.6855 6.88549C11.6018 6.96917 11.5533 7.0817 11.55 7.2V11.55H7.2C7.0817 11.5533 6.96917 11.6018 6.88549 11.6855C6.8018 11.7692 6.75333 11.8817 6.75 12C6.75 12.2388 6.9612 12.45 7.2 12.45H11.55V16.8C11.55 17.0388 11.7612 17.25 12 17.25C12.2388 17.25 12.45 17.0388 12.45 16.8V12.45H16.8C17.0388 12.45 17.25 12.2388 17.25 12C17.2467 11.8817 17.1982 11.7692 17.1145 11.6855C17.0308 11.6018 16.9183 11.5533 16.8 11.55Z" fill="white"/>
</svg>
