<svg width="20" height="20" viewBox="0 0 20 20" fill="none" xmlns="http://www.w3.org/2000/svg">
<g clip-path="url(#clip0_2901_788)">
<path fill-rule="evenodd" clip-rule="evenodd" d="M9.85355 0C12.4802 0.0387536 14.9861 1.10937 16.8298 2.98052C18.6736 4.85167 19.7071 7.3731 19.7071 10C19.7071 12.6269 18.6736 15.1483 16.8298 17.0195C14.9861 18.8906 12.4802 19.9612 9.85355 20C7.22693 19.9612 4.72102 18.8906 2.87728 17.0195C1.03353 15.1483 0 12.6269 0 10C0 7.3731 1.03353 4.85167 2.87728 2.98052C4.72102 1.10937 7.22693 0.0387536 9.85355 0ZM8.78258 14.286V11.071H5.56752C5.28375 11.0701 5.01185 10.957 4.81119 10.7563C4.61053 10.5557 4.49742 10.2838 4.49656 10C4.49656 9.4101 4.97762 8.92904 5.56752 8.92904H8.78258V5.71397C8.78258 5.12407 9.26365 4.64301 9.85355 4.64301C10.4434 4.64301 10.9245 5.12516 10.9245 5.71397V8.92904H14.1396C14.7295 8.92904 15.2105 9.4101 15.2105 10C15.2097 10.2838 15.0966 10.5557 14.8959 10.7563C14.6952 10.957 14.4233 11.0701 14.1396 11.071H10.9245V14.286C10.9245 14.8737 10.4434 15.357 9.85355 15.357C9.56969 15.3564 9.29762 15.2434 9.0969 15.0427C8.89618 14.842 8.78316 14.5699 8.78258 14.286Z" fill="#0081FF"/>
</g>
<defs>
<clipPath id="clip0_2901_788">
<rect width="20" height="20" fill="white"/>
</clipPath>
</defs>
</svg>
