<svg width="20" height="20" viewBox="0 0 20 20" fill="none" xmlns="http://www.w3.org/2000/svg">
<g clip-path="url(#clip0_2901_1308)">
<path fill-rule="evenodd" clip-rule="evenodd" d="M10 0C12.6657 0.0387536 15.2088 1.10937 17.08 2.98052C18.9511 4.85167 20 7.3731 20 10C20 12.6269 18.9511 15.1483 17.08 17.0195C15.2088 18.8906 12.6657 19.9612 10 20C7.33435 19.9612 4.79119 18.8906 2.92004 17.0195C1.04889 15.1483 0 12.6269 0 10C0 7.3731 1.04889 4.85167 2.92004 2.98052C4.79119 1.10937 7.33435 0.0387536 10 0ZM5.65027 8.92904H14.3497C14.9484 8.92904 15.4366 9.4101 15.4366 10C15.4357 10.2838 15.3209 10.5557 15.1173 10.7563C14.9137 10.957 14.6377 11.0701 14.3497 11.071H5.65027C5.36228 11.0701 5.08634 10.957 4.8827 10.7563C4.67906 10.5557 4.56427 10.2838 4.56339 10C4.56339 9.4101 5.0516 8.92904 5.65027 8.92904Z" fill="#0081FF"/>
</g>
<defs>
<clipPath id="clip0_2901_1308">
<rect width="20" height="20" fill="white"/>
</clipPath>
</defs>
</svg>
