<svg width="10" height="10" viewBox="0 0 10 10" fill="none" xmlns="http://www.w3.org/2000/svg">
<g clip-path="url(#clip0_5426_12862)">
<path d="M5.77332 5.00006L9.21491 1.55885C9.42855 1.34521 9.42855 0.998844 9.21491 0.785226C9.00128 0.571591 8.65491 0.571591 8.44129 0.785226L5.00006 4.2268L1.55885 0.785226C1.34521 0.571591 0.998844 0.571591 0.785226 0.785226C0.571608 0.998861 0.571591 1.34523 0.785226 1.55885L4.2268 5.00006L0.785226 8.44129C0.571591 8.65493 0.571591 9.00129 0.785226 9.21491C0.998861 9.42853 1.34523 9.42855 1.55885 9.21491L5.00006 5.77332L8.44127 9.21491C8.65491 9.42855 9.00128 9.42855 9.21489 9.21491C9.42853 9.00128 9.42853 8.65491 9.21489 8.44129L5.77332 5.00006Z" fill="currentColor"/>
</g>
<defs>
<clipPath id="clip0_5426_12862">
<rect width="10" height="10" fill="white"/>
</clipPath>
</defs>
</svg>
