<svg width="20" height="20" viewBox="0 0 20 20" fill="none" xmlns="http://www.w3.org/2000/svg">
<g clip-path="url(#clip0_5420_3139)">
<path d="M10.7733 10.0001L14.2149 6.55885C14.4285 6.34521 14.4285 5.99884 14.2149 5.78523C14.0013 5.57159 13.6549 5.57159 13.4413 5.78523L10.0001 9.2268L6.55885 5.78523C6.34521 5.57159 5.99884 5.57159 5.78523 5.78523C5.57161 5.99886 5.57159 6.34523 5.78523 6.55885L9.2268 10.0001L5.78523 13.4413C5.57159 13.6549 5.57159 14.0013 5.78523 14.2149C5.99886 14.4285 6.34523 14.4285 6.55885 14.2149L10.0001 10.7733L13.4413 14.2149C13.6549 14.4285 14.0013 14.4285 14.2149 14.2149C14.4285 14.0013 14.4285 13.6549 14.2149 13.4413L10.7733 10.0001Z" fill="#737F8C"/>
</g>
<defs>
<clipPath id="clip0_5420_3139">
<rect width="10" height="10" fill="white" transform="translate(5 5)"/>
</clipPath>
</defs>
</svg>
