<svg width="16" height="16" viewBox="0 0 16 16" fill="none" xmlns="http://www.w3.org/2000/svg">
<path d="M9.23732 8.0001L14.7439 2.49416C15.0857 2.15234 15.0857 1.59815 14.7439 1.25636C14.402 0.914546 13.8479 0.914546 13.5061 1.25636L8.0001 6.76288L2.49416 1.25636C2.15234 0.914546 1.59815 0.914546 1.25636 1.25636C0.914573 1.59818 0.914546 2.15237 1.25636 2.49416L6.76288 8.0001L1.25636 13.5061C0.914546 13.8479 0.914546 14.4021 1.25636 14.7439C1.59818 15.0856 2.15237 15.0857 2.49416 14.7439L8.0001 9.23732L13.506 14.7439C13.8479 15.0857 14.402 15.0857 14.7438 14.7439C15.0856 14.402 15.0856 13.8479 14.7438 13.5061L9.23732 8.0001Z" fill="#0F1A24"/>
</svg>
