<svg width="20" height="20" viewBox="0 0 20 20" fill="none" xmlns="http://www.w3.org/2000/svg">
<path d="M19.9998 10.0085C19.9997 9.91695 19.9751 9.82711 19.9287 9.74831C19.8822 9.6695 19.8154 9.6046 19.7354 9.56035L16.6337 7.86284L19.7354 6.16534C19.8153 6.12143 19.882 6.05683 19.9284 5.97829C19.9748 5.89975 19.9993 5.81016 19.9993 5.71889C19.9993 5.62763 19.9748 5.53804 19.9284 5.4595C19.882 5.38096 19.8153 5.31636 19.7354 5.27245L10.2437 0.0611102C10.1686 0.0209875 10.0848 0 9.99964 0C9.91451 0 9.83068 0.0209875 9.75557 0.0611102L0.263854 5.25547C0.183964 5.29938 0.117325 5.36399 0.0709073 5.44252C0.0244898 5.52106 0 5.61065 0 5.70192C0 5.79318 0.0244898 5.88277 0.0709073 5.96131C0.117325 6.03985 0.183964 6.10445 0.263854 6.14836L3.36561 7.84587L0.263854 9.54337C0.184052 9.58777 0.117558 9.65273 0.0712623 9.73153C0.0249665 9.81032 0.000553546 9.90009 0.000553546 9.99151C0.000553546 10.0829 0.0249665 10.1727 0.0712623 10.2515C0.117558 10.3303 0.184052 10.3953 0.263854 10.4397L3.36561 12.1372L0.263854 13.8347C0.184052 13.8791 0.117558 13.944 0.0712623 14.0228C0.0249665 14.1016 0.000553546 14.1914 0.000553546 14.2828C0.000553546 14.3742 0.0249665 14.464 0.0712623 14.5428C0.117558 14.6216 0.184052 14.6865 0.263854 14.7309L9.75557 19.9389C9.83068 19.979 9.91451 20 9.99964 20C10.0848 20 10.1686 19.979 10.2437 19.9389L19.7354 14.7615C19.8152 14.7171 19.8817 14.6521 19.928 14.5733C19.9743 14.4945 19.9987 14.4048 19.9987 14.3134C19.9987 14.2219 19.9743 14.1322 19.928 14.0534C19.8817 13.9746 19.8152 13.9096 19.7354 13.8652L16.6337 12.1677L19.7354 10.4702C19.8175 10.4249 19.8855 10.3578 19.9322 10.2764C19.9788 10.195 20.0022 10.1023 19.9998 10.0085ZM9.99964 1.08301L18.4337 5.71041L9.99964 10.348L1.56557 5.71041L9.99964 1.08301ZM18.4337 14.3066L9.99964 18.934L1.56557 14.3066L4.42326 12.7245L9.75557 15.651C9.83068 15.6911 9.91451 15.7121 9.99964 15.7121C10.0848 15.7121 10.1686 15.6911 10.2437 15.651L15.576 12.7245L18.4337 14.3066ZM9.99964 14.6359L1.56557 10.0085L4.42326 8.43999L9.75557 11.3665C9.82999 11.4087 9.91409 11.431 9.99964 11.431C10.0852 11.431 10.1693 11.4087 10.2437 11.3665L15.576 8.43999L18.4337 10.0085L9.99964 14.6359Z" fill="#0F1A24"/>
</svg>
