<svg width="16" height="16" viewBox="0 0 16 16" fill="none" xmlns="http://www.w3.org/2000/svg">
<g clip-path="url(#clip0_4429_1613)">
<path d="M7.99994 15.2001H1.49674C1.36176 15.1987 1.22998 15.1588 1.11688 15.0851C1.00379 15.0114 0.914092 14.907 0.858338 14.7841C0.805383 14.6596 0.789146 14.5226 0.811543 14.3892C0.833941 14.2558 0.894037 14.1316 0.984738 14.0313L2.47994 12.6169C1.42937 11.3596 0.839002 9.7817 0.806329 8.14364C0.773656 6.50558 1.30063 4.90536 2.30023 3.60725C3.29983 2.30913 4.71227 1.39075 6.30429 1.00377C7.89632 0.616796 9.57272 0.784362 11.0567 1.4788C12.5406 2.17324 13.7433 3.35302 14.4662 4.8233C15.1891 6.29359 15.3889 7.96646 15.0326 9.56564C14.6764 11.1648 13.7854 12.5947 12.5067 13.6191C11.2281 14.6435 9.63832 15.2012 7.99994 15.2001ZM2.76074 14.0001H7.99994C9.38708 14.0005 10.7315 13.5203 11.8045 12.6412C12.8775 11.7621 13.6127 10.5384 13.8851 9.17824C14.1575 7.81811 13.9502 6.40562 13.2985 5.18111C12.6468 3.9566 11.5909 2.99573 10.3106 2.46199C9.03026 1.92826 7.60453 1.85463 6.27602 2.25365C4.94751 2.65266 3.7983 3.49967 3.02392 4.65053C2.24955 5.8014 1.89786 7.18503 2.02869 8.56598C2.15953 9.94693 2.76481 11.2399 3.74154 12.2249L4.17354 12.6609L2.76074 14.0001Z" fill="#0F1A24"/>
</g>
<defs>
<clipPath id="clip0_4429_1613">
<rect width="16" height="16" fill="white"/>
</clipPath>
</defs>
</svg>
