<svg width="20" height="20" viewBox="0 0 20 20" fill="none" xmlns="http://www.w3.org/2000/svg">
<path d="M10 19H1.87104C1.70232 18.9983 1.53759 18.9485 1.39623 18.8564C1.25486 18.7642 1.14274 18.6337 1.07304 18.48C1.00685 18.3244 0.986554 18.1532 1.01455 17.9864C1.04255 17.8197 1.11767 17.6644 1.23104 17.539L3.10004 15.771C1.78683 14.1995 1.04887 12.2271 1.00803 10.1795C0.967191 8.13192 1.62591 6.13164 2.87541 4.509C4.12491 2.88635 5.89045 1.73838 7.88049 1.25466C9.87052 0.770934 11.966 0.980391 13.8209 1.84844C15.6759 2.71649 17.1793 4.19121 18.0829 6.02907C18.9865 7.86693 19.2362 9.95801 18.7909 11.957C18.3456 13.956 17.2318 15.7433 15.6335 17.0238C14.0352 18.3043 12.048 19.0014 10 19ZM3.45104 17.5H10C11.734 17.5006 13.4145 16.9004 14.7558 15.8015C16.097 14.7026 17.0161 13.1729 17.3565 11.4727C17.697 9.77258 17.4379 8.00696 16.6233 6.47633C15.8086 4.94569 14.4888 3.7446 12.8884 3.07743C11.2879 2.41026 9.50579 2.31823 7.84515 2.817C6.18451 3.31577 4.74799 4.37452 3.78003 5.8131C2.81206 7.25169 2.37244 8.98122 2.53599 10.7074C2.69953 12.4336 3.45613 14.0498 4.67704 15.281L5.21704 15.826L3.45104 17.5Z" fill="currentColor"/>
</svg>
