<svg width="20" height="20" viewBox="0 0 20 20" fill="none" xmlns="http://www.w3.org/2000/svg">
<path d="M3.0165 5.00278H4.7869C4.86646 5.00278 4.94277 4.97118 4.99903 4.91492C5.05529 4.85865 5.0869 4.78235 5.0869 4.70278C5.0869 4.62322 5.05529 4.54691 4.99903 4.49065C4.94277 4.43439 4.86646 4.40278 4.7869 4.40278H3.0161C2.93653 4.40278 2.86022 4.43439 2.80396 4.49065C2.7477 4.54691 2.7161 4.62322 2.7161 4.70278C2.7161 4.78235 2.7477 4.85865 2.80396 4.91492C2.86022 4.97118 2.93693 5.00278 3.0165 5.00278ZM3.0165 6.76278H4.7869C4.86646 6.76278 4.94277 6.73118 4.99903 6.67492C5.05529 6.61866 5.0869 6.54235 5.0869 6.46278C5.0869 6.38322 5.05529 6.30691 4.99903 6.25065C4.94277 6.19439 4.86646 6.16278 4.7869 6.16278H3.0161C2.93653 6.16278 2.86022 6.19439 2.80396 6.25065C2.7477 6.30691 2.7161 6.38322 2.7161 6.46278C2.7161 6.54235 2.7477 6.61866 2.80396 6.67492C2.86022 6.73118 2.93693 6.76278 3.0165 6.76278ZM3.0165 8.52318H4.7869C4.86646 8.52318 4.94277 8.49158 4.99903 8.43532C5.05529 8.37906 5.0869 8.30275 5.0869 8.22318C5.0869 8.14362 5.05529 8.06731 4.99903 8.01105C4.94277 7.95479 4.86646 7.92318 4.7869 7.92318H3.0161C2.93653 7.92318 2.86022 7.95479 2.80396 8.01105C2.7477 8.06731 2.7161 8.14362 2.7161 8.22318C2.7161 8.30275 2.7477 8.37906 2.80396 8.43532C2.86022 8.49158 2.93693 8.52318 3.0165 8.52318ZM3.0165 10.2832H4.7869C4.86646 10.2832 4.94277 10.2516 4.99903 10.1953C5.05529 10.1391 5.0869 10.0627 5.0869 9.98318C5.0869 9.90362 5.05529 9.82731 4.99903 9.77105C4.94277 9.71479 4.86646 9.68318 4.7869 9.68318H3.0161C2.93653 9.68318 2.86022 9.71479 2.80396 9.77105C2.7477 9.82731 2.7161 9.90362 2.7161 9.98318C2.7161 10.0627 2.7477 10.1391 2.80396 10.1953C2.86022 10.2516 2.93693 10.2832 3.0165 10.2832ZM3.9017 13.9828C3.2437 13.9828 2.7085 14.518 2.7085 15.1764C2.7085 15.8348 3.2437 16.3696 3.9017 16.3696C4.5597 16.3696 5.0949 15.8344 5.0949 15.1764C5.0949 14.5184 4.5597 13.9828 3.9017 13.9828ZM3.9017 15.7696C3.5745 15.7696 3.3085 15.5036 3.3085 15.1764C3.3085 14.8492 3.5745 14.5828 3.9017 14.5828C4.2289 14.5828 4.4949 14.8488 4.4949 15.1764C4.4949 15.504 4.2289 15.7696 3.9017 15.7696ZM7.7585 5.00278H9.5289C9.60846 5.00278 9.68477 4.97118 9.74103 4.91492C9.79729 4.85865 9.8289 4.78235 9.8289 4.70278C9.8289 4.62322 9.79729 4.54691 9.74103 4.49065C9.68477 4.43439 9.60846 4.40278 9.5289 4.40278H7.7585C7.67893 4.40278 7.60262 4.43439 7.54636 4.49065C7.4901 4.54691 7.4585 4.62322 7.4585 4.70278C7.4585 4.78235 7.4901 4.85865 7.54636 4.91492C7.60262 4.97118 7.67893 5.00278 7.7585 5.00278ZM7.7585 6.76278H9.5289C9.60846 6.76278 9.68477 6.73118 9.74103 6.67492C9.79729 6.61866 9.8289 6.54235 9.8289 6.46278C9.8289 6.38322 9.79729 6.30691 9.74103 6.25065C9.68477 6.19439 9.60846 6.16278 9.5289 6.16278H7.7585C7.67893 6.16278 7.60262 6.19439 7.54636 6.25065C7.4901 6.30691 7.4585 6.38322 7.4585 6.46278C7.4585 6.54235 7.4901 6.61866 7.54636 6.67492C7.60262 6.73118 7.67893 6.76278 7.7585 6.76278ZM7.7585 8.52318H9.5289C9.60846 8.52318 9.68477 8.49158 9.74103 8.43532C9.79729 8.37906 9.8289 8.30275 9.8289 8.22318C9.8289 8.14362 9.79729 8.06731 9.74103 8.01105C9.68477 7.95479 9.60846 7.92318 9.5289 7.92318H7.7585C7.67893 7.92318 7.60262 7.95479 7.54636 8.01105C7.4901 8.06731 7.4585 8.14362 7.4585 8.22318C7.4585 8.30275 7.4901 8.37906 7.54636 8.43532C7.60262 8.49158 7.67893 8.52318 7.7585 8.52318ZM7.7585 10.2832H9.5289C9.60846 10.2832 9.68477 10.2516 9.74103 10.1953C9.79729 10.1391 9.8289 10.0627 9.8289 9.98318C9.8289 9.90362 9.79729 9.82731 9.74103 9.77105C9.68477 9.71479 9.60846 9.68318 9.5289 9.68318H7.7585C7.67893 9.68318 7.60262 9.71479 7.54636 9.77105C7.4901 9.82731 7.4585 9.90362 7.4585 9.98318C7.4585 10.0627 7.4901 10.1391 7.54636 10.1953C7.60262 10.2516 7.67893 10.2832 7.7585 10.2832ZM8.6437 13.9828C7.9857 13.9828 7.4501 14.518 7.4501 15.1764C7.4501 15.8348 7.9857 16.3696 8.6437 16.3696C9.3017 16.3696 9.8369 15.8344 9.8369 15.1764C9.8369 14.5184 9.3017 13.9828 8.6437 13.9828ZM8.6437 15.7696C8.3165 15.7696 8.0501 15.5036 8.0501 15.1764C8.0501 14.8492 8.3165 14.5828 8.6437 14.5828C8.9709 14.5828 9.2369 14.8488 9.2369 15.1764C9.2369 15.504 8.9709 15.7696 8.6437 15.7696ZM15.1465 4.77318C15.3093 4.74238 15.4165 4.58518 15.3853 4.42238C15.3541 4.25958 15.1953 4.14958 15.0345 4.18398L13.2953 4.51518C13.2557 4.52154 13.2177 4.53577 13.1837 4.55705C13.1497 4.57833 13.1203 4.60621 13.0972 4.63905C13.0742 4.6719 13.058 4.70903 13.0495 4.74826C13.0411 4.78748 13.0406 4.828 13.0481 4.86742C13.0556 4.90684 13.0709 4.94436 13.0931 4.97775C13.1154 5.01114 13.1441 5.03973 13.1776 5.06182C13.2111 5.08392 13.2487 5.09907 13.2881 5.10638C13.3276 5.11369 13.3681 5.11301 13.4073 5.10438L15.1465 4.77318ZM15.4761 6.50198C15.5148 6.49464 15.5517 6.47974 15.5847 6.45813C15.6176 6.43652 15.646 6.40863 15.6682 6.37606C15.6903 6.34348 15.7059 6.30685 15.7139 6.26827C15.7219 6.22968 15.7223 6.1899 15.7149 6.15118C15.7077 6.11239 15.6928 6.07541 15.6712 6.04239C15.6496 6.00936 15.6216 5.98095 15.589 5.95878C15.5563 5.93662 15.5196 5.92114 15.4809 5.91324C15.4423 5.90535 15.4024 5.90519 15.3637 5.91278L13.6249 6.24478C13.5847 6.25051 13.5462 6.26433 13.5115 6.28539C13.4768 6.30645 13.4468 6.33433 13.4232 6.36733C13.3996 6.40033 13.383 6.43777 13.3743 6.47739C13.3655 6.51701 13.365 6.55799 13.3725 6.59784C13.3801 6.63769 13.3957 6.67559 13.4184 6.70924C13.441 6.7429 13.4702 6.77162 13.5043 6.79365C13.5383 6.81569 13.5765 6.83059 13.6165 6.83745C13.6565 6.84432 13.6974 6.843 13.7369 6.83358L15.4761 6.50198ZM15.8057 8.23078C15.9685 8.19998 16.0753 8.04278 16.0441 7.87998C16.0129 7.71718 15.8537 7.60798 15.6933 7.64198L13.9541 7.97358C13.9141 7.97957 13.8758 7.99358 13.8413 8.01476C13.8069 8.03594 13.7771 8.06386 13.7538 8.09685C13.7304 8.12983 13.7139 8.16719 13.7054 8.20669C13.6968 8.24619 13.6963 8.28702 13.7039 8.32672C13.7115 8.36641 13.7271 8.40417 13.7496 8.4377C13.7722 8.47124 13.8013 8.49988 13.8352 8.52189C13.8691 8.5439 13.9071 8.55883 13.9469 8.56579C13.9867 8.57275 14.0275 8.57159 14.0669 8.56238L15.8057 8.23078ZM16.3737 9.60958C16.3666 9.57075 16.3519 9.53372 16.3303 9.50065C16.3088 9.46757 16.2809 9.43911 16.2482 9.41693C16.2156 9.39474 16.1788 9.37927 16.1402 9.37142C16.1015 9.36356 16.0616 9.36348 16.0229 9.37118L14.2837 9.70238C14.2441 9.70874 14.2061 9.72297 14.1721 9.74425C14.1381 9.76553 14.1087 9.79341 14.0856 9.82626C14.0626 9.8591 14.0464 9.89623 14.0379 9.93546C14.0295 9.97468 14.029 10.0152 14.0365 10.0546C14.044 10.094 14.0593 10.1316 14.0815 10.1649C14.1038 10.1983 14.1325 10.2269 14.166 10.249C14.1995 10.2711 14.2371 10.2863 14.2765 10.2936C14.316 10.3009 14.3565 10.3002 14.3957 10.2916L16.1349 9.96038C16.1736 9.95304 16.2105 9.93814 16.2435 9.91653C16.2764 9.89492 16.3048 9.86704 16.327 9.83446C16.3492 9.80188 16.3647 9.76525 16.3727 9.72667C16.3807 9.68808 16.3811 9.6483 16.3737 9.60958ZM15.9585 13.76C15.6477 13.8196 15.3732 14 15.1953 14.2617C15.0174 14.5234 14.9505 14.845 15.0093 15.156C15.0689 15.4668 15.2494 15.7412 15.5111 15.9191C15.7728 16.0969 16.0944 16.1637 16.4053 16.1048C16.716 16.0451 16.9904 15.8646 17.1682 15.6029C17.3461 15.3412 17.4129 15.0197 17.3541 14.7088C17.2945 14.398 17.114 14.1236 16.8523 13.9458C16.5905 13.768 16.269 13.7013 15.9581 13.7604L15.9585 13.76ZM16.2929 15.516C16.1382 15.5452 15.9783 15.5118 15.8482 15.4233C15.7181 15.3347 15.6285 15.1982 15.5989 15.0436C15.5696 14.8889 15.6028 14.729 15.6913 14.5988C15.7798 14.4686 15.9163 14.3788 16.0709 14.3492C16.3909 14.2892 16.7029 14.4988 16.7645 14.8212C16.7938 14.9758 16.7606 15.1358 16.6721 15.266C16.5836 15.3962 16.4471 15.4859 16.2925 15.5156L16.2929 15.516Z" fill="#0F1A24"/>
<path d="M19.3 18.0704H18.3816L18.4184 18.0632C18.5552 18.0373 18.6855 17.9847 18.8019 17.9083C18.9183 17.832 19.0185 17.7335 19.0967 17.6184C19.175 17.5033 19.2298 17.3739 19.2581 17.2376C19.2863 17.1013 19.2873 16.9607 19.2612 16.824L16.4728 2.19161C16.4467 2.05484 16.394 1.92455 16.3176 1.80817C16.2411 1.69179 16.1425 1.59161 16.0274 1.51334C15.9122 1.43508 15.7828 1.38027 15.6465 1.35204C15.5101 1.3238 15.3696 1.32271 15.2328 1.34881L12.0676 1.95201C11.8994 1.98332 11.7415 2.05532 11.6075 2.16172C11.4736 2.26812 11.3677 2.40569 11.2992 2.56241C11.2631 2.3109 11.1377 2.08078 10.946 1.91407C10.7542 1.74736 10.5089 1.6552 10.2548 1.65441H7.03199C6.73359 1.65441 6.46479 1.77961 6.27199 1.97841C6.17362 1.87606 6.05561 1.79461 5.92502 1.73894C5.79443 1.68327 5.65395 1.65452 5.51199 1.65441H2.29079C2.00969 1.65473 1.7402 1.76657 1.54147 1.96537C1.34274 2.16418 1.231 2.43371 1.23079 2.71481V17.6108C1.23079 17.776 1.27239 17.9308 1.34039 18.0704H0.700391C0.620826 18.0704 0.544519 18.102 0.488259 18.1583C0.431998 18.2145 0.400391 18.2908 0.400391 18.3704C0.400391 18.45 0.431998 18.5263 0.488259 18.5825C0.544519 18.6388 0.620826 18.6704 0.700391 18.6704H19.3004C19.38 18.6704 19.4563 18.6388 19.5125 18.5825C19.5688 18.5263 19.6004 18.45 19.6004 18.3704C19.6004 18.2908 19.5688 18.2145 19.5125 18.1583C19.4563 18.102 19.3796 18.0704 19.3 18.0704ZM5.97279 17.6104C5.97279 17.6708 5.96089 17.7306 5.93778 17.7864C5.91466 17.8423 5.88077 17.893 5.83806 17.9357C5.79534 17.9784 5.74463 18.0123 5.68883 18.0354C5.63302 18.0585 5.5732 18.0704 5.51279 18.0704H2.29039C2.16839 18.0704 2.05139 18.0219 1.96512 17.9357C1.87885 17.8494 1.83039 17.7324 1.83039 17.6104V2.71521C1.83039 2.46161 2.03679 2.25521 2.29039 2.25521H5.51279C5.76639 2.25521 5.97279 2.46161 5.97279 2.71521V17.6112V17.6104ZM10.7148 17.6104C10.7148 17.7324 10.6663 17.8494 10.5801 17.9357C10.4938 18.0219 10.3768 18.0704 10.2548 18.0704H7.03199C6.90999 18.0704 6.79299 18.0219 6.70672 17.9357C6.62045 17.8494 6.57199 17.7324 6.57199 17.6104V2.71521C6.57199 2.46161 6.77839 2.25521 7.03199 2.25521H10.2544C10.508 2.25521 10.7144 2.46161 10.7144 2.71521L10.7148 17.6104ZM11.2052 18.0704C11.2732 17.9304 11.3148 17.776 11.3148 17.6104V3.66321L14.0136 17.8244C14.03 17.9112 14.06 17.9924 14.0964 18.0708L11.2052 18.0704ZM18.306 17.4744L15.178 18.0704C15.138 18.0564 14.6888 18.1624 14.6028 17.7112L11.8144 3.07921C11.7915 2.95939 11.8172 2.8354 11.8858 2.73451C11.9543 2.63362 12.0602 2.56409 12.18 2.54121L15.3452 1.93801C15.465 1.9155 15.5889 1.94137 15.6897 2.00996C15.7906 2.07855 15.8601 2.18428 15.8832 2.30401L18.6716 16.9364C18.6944 17.0562 18.6688 17.1801 18.6003 17.281C18.5319 17.3819 18.4257 17.4514 18.306 17.4744Z" fill="#0F1A24"/>
</svg>
