<svg width="20" height="20" viewBox="0 0 20 20" fill="none" xmlns="http://www.w3.org/2000/svg">
<path fill-rule="evenodd" clip-rule="evenodd" d="M19.5832 15.8333V5.83331C19.5831 5.28078 19.3637 4.75086 18.9732 4.35998C18.5823 3.96946 18.0524 3.75006 17.4998 3.74998H10.2573L9.99984 3.23498C9.82682 2.88893 9.56086 2.59789 9.23175 2.39448C8.90264 2.19107 8.5234 2.08333 8.1365 2.08331H2.49984C2.22625 2.08331 1.95534 2.1372 1.70258 2.2419C1.44982 2.34659 1.22015 2.50005 1.0267 2.69351C0.635997 3.08421 0.416504 3.61411 0.416504 4.16665V15.8333C0.416504 16.3858 0.635997 16.9158 1.0267 17.3065C1.4174 17.6972 1.9473 17.9166 2.49984 17.9166H17.4998C18.0524 17.9166 18.5823 17.6972 18.9732 17.3066C19.3637 16.9158 19.5831 16.3859 19.5832 15.8333ZM18.7498 7.49998V15.8333C18.7498 16.165 18.6182 16.4829 18.3836 16.7171C18.2676 16.8332 18.1298 16.9254 17.9782 16.9882C17.8265 17.051 17.664 17.0834 17.4998 17.0833H2.49984C2.16832 17.0833 1.85037 16.9516 1.61595 16.7172C1.38153 16.4828 1.24984 16.1648 1.24984 15.8333V4.16665C1.24984 3.83513 1.38153 3.51718 1.61595 3.28276C1.85037 3.04834 2.16832 2.91665 2.49984 2.91665H8.1365C8.36861 2.91665 8.59613 2.98129 8.79357 3.1033C8.99102 3.22531 9.15059 3.39989 9.25442 3.60748L10.4607 6.01956C10.4952 6.08882 10.5483 6.14709 10.6141 6.18779C10.6799 6.2285 10.7558 6.25003 10.8332 6.24998H17.4998C17.8315 6.24998 18.1494 6.38165 18.3836 6.61623C18.6182 6.8504 18.7498 7.16831 18.7498 7.49998ZM10.674 4.58331L11.0907 5.41665H17.4998C17.9532 5.41665 18.3915 5.56456 18.7498 5.83331C18.7498 5.50165 18.6182 5.18373 18.3836 4.94956C18.2676 4.83341 18.1298 4.74127 17.9782 4.67842C17.8265 4.61558 17.664 4.58326 17.4998 4.58331H10.674Z" fill="#1F1F1F"/>
</svg>
