<svg width="16" height="16" viewBox="0 0 16 16" fill="none" xmlns="http://www.w3.org/2000/svg">
<path d="M13.9999 12.6667H1.99992C1.82311 12.6667 1.65354 12.7369 1.52851 12.862C1.40349 12.987 1.33325 13.1566 1.33325 13.3334C1.33325 13.5102 1.40349 13.6798 1.52851 13.8048C1.65354 13.9298 1.82311 14 1.99992 14H13.9999C14.1767 14 14.3463 13.9298 14.4713 13.8048C14.5963 13.6798 14.6666 13.5102 14.6666 13.3334C14.6666 13.1566 14.5963 12.987 14.4713 12.862C14.3463 12.7369 14.1767 12.6667 13.9999 12.6667ZM7.99992 1.33337C7.82311 1.33337 7.65354 1.40361 7.52851 1.52864C7.40349 1.65366 7.33325 1.82323 7.33325 2.00004V9.06004L5.13992 6.86004C5.01438 6.73451 4.84412 6.66398 4.66659 6.66398C4.48905 6.66398 4.31879 6.73451 4.19325 6.86004C4.06772 6.98558 3.99719 7.15584 3.99719 7.33337C3.99719 7.51091 4.06772 7.68117 4.19325 7.80671L7.52659 11.14C7.58856 11.2025 7.66229 11.2521 7.74353 11.286C7.82477 11.3198 7.91191 11.3372 7.99992 11.3372C8.08793 11.3372 8.17506 11.3198 8.2563 11.286C8.33754 11.2521 8.41128 11.2025 8.47325 11.14L11.8066 7.80671C11.8687 7.74455 11.9181 7.67076 11.9517 7.58954C11.9853 7.50833 12.0026 7.42128 12.0026 7.33337C12.0026 7.24547 11.9853 7.15842 11.9517 7.07721C11.9181 6.99599 11.8687 6.9222 11.8066 6.86004C11.7444 6.79788 11.6706 6.74857 11.5894 6.71493C11.5082 6.68129 11.4212 6.66398 11.3333 6.66398C11.2453 6.66398 11.1583 6.68129 11.0771 6.71493C10.9959 6.74857 10.9221 6.79788 10.8599 6.86004L8.66659 9.06004V2.00004C8.66659 1.82323 8.59635 1.65366 8.47132 1.52864C8.3463 1.40361 8.17673 1.33337 7.99992 1.33337Z" fill="#ADB4C1"/>
</svg>
