<svg width="20" height="20" viewBox="0 0 20 20" fill="none" xmlns="http://www.w3.org/2000/svg">
<path fill-rule="evenodd" clip-rule="evenodd" d="M18.4159 5.35751C16.6442 7.12918 12.4859 11.2867 11.4717 12.2975C11.2546 12.5144 10.9961 12.6855 10.7117 12.8008C9.89839 13.1383 7.91423 13.9167 7.33089 13.9558C7.15894 13.9674 6.9865 13.942 6.82515 13.8815C6.66381 13.8209 6.51728 13.7265 6.39542 13.6047C6.27355 13.4828 6.17917 13.3363 6.11859 13.1749C6.05802 13.0136 6.03266 12.8411 6.04423 12.6692C6.08339 12.0858 6.86173 10.1033 7.19339 9.29334C7.30923 9.00585 7.48173 8.74501 7.70089 8.52668L14.6426 1.58418C14.9789 1.24842 15.4348 1.05984 15.9101 1.05984C16.3853 1.05984 16.8412 1.24842 17.1776 1.58418L18.4159 2.82251C18.7517 3.15889 18.9402 3.61474 18.9402 4.09001C18.9402 4.56528 18.7517 5.02114 18.4159 5.35751ZM7.29673 12.7033C7.86673 12.6317 9.53256 11.9367 10.2326 11.6458C10.3656 11.5935 10.4864 11.5144 10.5876 11.4133L10.5884 11.4125C12.9044 9.10104 15.2189 6.78798 17.5317 4.47334C17.5821 4.42303 17.6221 4.36328 17.6494 4.29751C17.6767 4.23173 17.6907 4.16122 17.6907 4.09001C17.6907 4.0188 17.6767 3.94829 17.6494 3.88252C17.6221 3.81674 17.5821 3.75699 17.5317 3.70668L16.2934 2.46834C16.2431 2.41795 16.1833 2.37797 16.1176 2.35069C16.0518 2.32342 15.9813 2.30938 15.9101 2.30938C15.8389 2.30938 15.7683 2.32342 15.7026 2.35069C15.6368 2.37797 15.577 2.41795 15.5267 2.46834L8.58423 9.41085C8.48427 9.51027 8.40571 9.62909 8.35339 9.76001L8.35173 9.76334C8.06423 10.465 7.36839 12.1325 7.29673 12.7033Z" fill="#0F1A24"/>
<path fill-rule="evenodd" clip-rule="evenodd" d="M16.7648 6.12416C16.8228 6.18222 16.8689 6.25114 16.9003 6.32699C16.9317 6.40285 16.9479 6.48414 16.9479 6.56625C16.9479 6.64835 16.9317 6.72965 16.9003 6.8055C16.8689 6.88135 16.8228 6.95027 16.7648 7.00833C16.7067 7.06639 16.6378 7.11244 16.5619 7.14386C16.4861 7.17528 16.4048 7.19145 16.3227 7.19145C16.2406 7.19145 16.1593 7.17528 16.0834 7.14386C16.0076 7.11244 15.9387 7.06639 15.8806 7.00833L12.9914 4.11916C12.8742 4.00192 12.8083 3.84289 12.8083 3.67708C12.8083 3.51127 12.8742 3.35224 12.9914 3.235C13.1087 3.11775 13.2677 3.05188 13.4335 3.05188C13.5993 3.05188 13.7584 3.11775 13.8756 3.235L16.7648 6.12416ZM11.6639 11.225C11.7219 11.283 11.7679 11.3519 11.7993 11.4276C11.8307 11.5034 11.8469 11.5846 11.8469 11.6667C11.8469 11.7487 11.8307 11.8299 11.7993 11.9057C11.7679 11.9815 11.7219 12.0503 11.6639 12.1083C11.6059 12.1663 11.5371 12.2123 11.4613 12.2437C11.3855 12.2751 11.3043 12.2913 11.2223 12.2913C11.1402 12.2913 11.059 12.2751 10.9832 12.2437C10.9075 12.2123 10.8386 12.1663 10.7806 12.1083L7.89144 9.21916C7.83344 9.16116 7.78743 9.09231 7.75604 9.01652C7.72465 8.94074 7.7085 8.85952 7.7085 8.7775C7.7085 8.69547 7.72465 8.61425 7.75604 8.53847C7.78743 8.46269 7.83344 8.39383 7.89144 8.33583C7.94944 8.27783 8.0183 8.23182 8.09408 8.20043C8.16986 8.16904 8.25108 8.15289 8.33311 8.15289C8.41513 8.15289 8.49635 8.16904 8.57214 8.20043C8.64792 8.23182 8.71677 8.27783 8.77477 8.33583L11.6639 11.225Z" fill="#0F1A24"/>
<path fill-rule="evenodd" clip-rule="evenodd" d="M7.08317 2.70834C7.24893 2.70834 7.4079 2.77419 7.52511 2.8914C7.64232 3.00861 7.70817 3.16758 7.70817 3.33334C7.70817 3.4991 7.64232 3.65808 7.52511 3.77529C7.4079 3.8925 7.24893 3.95834 7.08317 3.95834H4.1665C3.66922 3.95834 3.19231 4.15589 2.84068 4.50752C2.48905 4.85915 2.2915 5.33606 2.2915 5.83334V15.8333C2.2915 16.3306 2.48905 16.8075 2.84068 17.1592C3.19231 17.5108 3.66922 17.7083 4.1665 17.7083H14.9998C15.4971 17.7083 15.974 17.5108 16.3257 17.1592C16.6773 16.8075 16.8748 16.3306 16.8748 15.8333V12.9167C16.8748 12.7509 16.9407 12.5919 17.0579 12.4747C17.1751 12.3575 17.3341 12.2917 17.4998 12.2917C17.6656 12.2917 17.8246 12.3575 17.9418 12.4747C18.059 12.5919 18.1248 12.7509 18.1248 12.9167V15.8333C18.1244 16.662 17.795 17.4566 17.2091 18.0426C16.6231 18.6285 15.8285 18.9579 14.9998 18.9583H4.1665C3.33784 18.9579 2.54324 18.6285 1.95728 18.0426C1.37133 17.4566 1.04195 16.662 1.0415 15.8333V5.83334C1.0415 5.00454 1.37074 4.20969 1.9568 3.62363C2.54285 3.03758 3.3377 2.70834 4.1665 2.70834H7.08317Z" fill="#0F1A24"/>
</svg>
