<svg width="20" height="20" viewBox="0 0 20 20" fill="none" xmlns="http://www.w3.org/2000/svg">
<path fill-rule="evenodd" clip-rule="evenodd" d="M18.4158 5.35748C16.6441 7.12915 12.4858 11.2866 11.4716 12.2975C11.2544 12.5144 10.996 12.6855 10.7116 12.8008C9.89827 13.1383 7.9141 13.9166 7.33077 13.9558C7.15882 13.9674 6.98638 13.942 6.82503 13.8814C6.66368 13.8209 6.51716 13.7265 6.39529 13.6046C6.27343 13.4828 6.17904 13.3362 6.11847 13.1749C6.0579 13.0135 6.03254 12.8411 6.0441 12.6691C6.08327 12.0858 6.8616 10.1033 7.19327 9.29331C7.3091 9.00581 7.4816 8.74498 7.70077 8.52665L14.6424 1.58415C14.9788 1.24839 15.4347 1.05981 15.9099 1.05981C16.3852 1.05981 16.8411 1.24839 17.1774 1.58415L18.4158 2.82248C18.7515 3.15886 18.9401 3.61471 18.9401 4.08998C18.9401 4.56525 18.7515 5.0211 18.4158 5.35748ZM7.2966 12.7033C7.8666 12.6316 9.53244 11.9366 10.2324 11.6458C10.3655 11.5935 10.4863 11.5144 10.5874 11.4133L10.5883 11.4125C12.9043 9.10101 15.2187 6.78795 17.5316 4.47331C17.582 4.423 17.622 4.36325 17.6493 4.29747C17.6765 4.2317 17.6906 4.16119 17.6906 4.08998C17.6906 4.01877 17.6765 3.94826 17.6493 3.88249C17.622 3.81671 17.582 3.75696 17.5316 3.70665L16.2933 2.46831C16.243 2.41792 16.1832 2.37794 16.1174 2.35066C16.0517 2.32339 15.9811 2.30935 15.9099 2.30935C15.8387 2.30935 15.7682 2.32339 15.7024 2.35066C15.6367 2.37794 15.5769 2.41792 15.5266 2.46831L8.5841 9.41082C8.48415 9.51024 8.40559 9.62906 8.35327 9.75998L8.3516 9.76331C8.0641 10.465 7.36827 12.1325 7.2966 12.7033Z" fill="currentColor"/>
<path fill-rule="evenodd" clip-rule="evenodd" d="M16.765 6.12416C16.8231 6.18222 16.8691 6.25114 16.9005 6.32699C16.932 6.40285 16.9481 6.48414 16.9481 6.56625C16.9481 6.64835 16.932 6.72965 16.9005 6.8055C16.8691 6.88135 16.8231 6.95027 16.765 7.00833C16.707 7.06639 16.638 7.11244 16.5622 7.14386C16.4863 7.17528 16.405 7.19145 16.3229 7.19145C16.2408 7.19145 16.1595 7.17528 16.0837 7.14386C16.0078 7.11244 15.9389 7.06639 15.8809 7.00833L12.9917 4.11916C12.8744 4.00192 12.8086 3.84289 12.8086 3.67708C12.8086 3.51127 12.8744 3.35224 12.9917 3.235C13.1089 3.11775 13.268 3.05188 13.4338 3.05188C13.5996 3.05188 13.7586 3.11775 13.8759 3.235L16.765 6.12416ZM11.6642 11.225C11.7222 11.283 11.7682 11.3519 11.7996 11.4276C11.831 11.5034 11.8471 11.5846 11.8471 11.6667C11.8471 11.7487 11.831 11.8299 11.7996 11.9057C11.7682 11.9815 11.7222 12.0503 11.6642 12.1083C11.6062 12.1663 11.5373 12.2123 11.4615 12.2437C11.3858 12.2751 11.3045 12.2913 11.2225 12.2913C11.1405 12.2913 11.0593 12.2751 10.9835 12.2437C10.9077 12.2123 10.8389 12.1663 10.7809 12.1083L7.89169 9.21916C7.83368 9.16116 7.78768 9.09231 7.75629 9.01652C7.7249 8.94074 7.70874 8.85952 7.70874 8.7775C7.70874 8.69547 7.7249 8.61425 7.75629 8.53847C7.78768 8.46269 7.83368 8.39383 7.89169 8.33583C7.94969 8.27783 8.01854 8.23182 8.09432 8.20043C8.1701 8.16904 8.25133 8.15289 8.33335 8.15289C8.41538 8.15289 8.4966 8.16904 8.57238 8.20043C8.64816 8.23182 8.71702 8.27783 8.77502 8.33583L11.6642 11.225Z" fill="currentColor"/>
<path fill-rule="evenodd" clip-rule="evenodd" d="M7.08329 2.70837C7.24905 2.70837 7.40802 2.77422 7.52523 2.89143C7.64244 3.00864 7.70829 3.16761 7.70829 3.33337C7.70829 3.49913 7.64244 3.65811 7.52523 3.77532C7.40802 3.89253 7.24905 3.95837 7.08329 3.95837H4.16663C3.66935 3.95837 3.19243 4.15592 2.8408 4.50755C2.48917 4.85918 2.29163 5.33609 2.29163 5.83337V15.8334C2.29163 16.3307 2.48917 16.8076 2.8408 17.1592C3.19243 17.5108 3.66935 17.7084 4.16663 17.7084H15C15.4972 17.7084 15.9742 17.5108 16.3258 17.1592C16.6774 16.8076 16.875 16.3307 16.875 15.8334V12.9167C16.875 12.7509 16.9408 12.592 17.058 12.4748C17.1752 12.3576 17.3342 12.2917 17.5 12.2917C17.6657 12.2917 17.8247 12.3576 17.9419 12.4748C18.0591 12.592 18.125 12.7509 18.125 12.9167V15.8334C18.1245 16.662 17.7951 17.4566 17.2092 18.0426C16.6232 18.6286 15.8286 18.9579 15 18.9584H4.16663C3.33796 18.9579 2.54336 18.6286 1.95741 18.0426C1.37145 17.4566 1.04207 16.662 1.04163 15.8334V5.83337C1.04163 5.00457 1.37087 4.20972 1.95692 3.62367C2.54297 3.03761 3.33782 2.70837 4.16663 2.70837H7.08329Z" fill="currentColor"/>
</svg>
