<svg width="20" height="20" viewBox="0 0 20 20" fill="none" xmlns="http://www.w3.org/2000/svg">
<path d="M18.0126 5.43126L11.1376 1.60001C10.8094 1.37121 10.4189 1.24854 10.0188 1.24854C9.61874 1.24854 9.22828 1.37121 8.90008 1.60001L2.02508 5.43126C1.79661 5.59635 1.61059 5.81331 1.4823 6.0643C1.354 6.31528 1.28711 6.59313 1.28711 6.87501C1.28711 7.15688 1.354 7.43473 1.4823 7.68572C1.61059 7.93671 1.79661 8.15366 2.02508 8.31876L2.09383 8.36251L4.37508 9.65001V15.625C4.37508 16.6063 5.78758 18.75 10.0001 18.75C14.2126 18.75 15.6251 16.6063 15.6251 15.625V9.65001L17.5001 8.60626V15.625C17.5001 15.7908 17.5659 15.9497 17.6831 16.0669C17.8003 16.1842 17.9593 16.25 18.1251 16.25C18.2908 16.25 18.4498 16.1842 18.567 16.0669C18.6842 15.9497 18.7501 15.7908 18.7501 15.625V6.87501C18.7491 6.59335 18.6819 6.31588 18.5537 6.06506C18.4256 5.81424 18.2402 5.59711 18.0126 5.43126ZM14.3751 15.625C14.3751 15.8688 13.4938 17.5 10.0001 17.5C6.50633 17.5 5.62508 15.8688 5.62508 15.625V10.3438L8.87508 12.15C9.20587 12.3782 9.59822 12.5004 10.0001 12.5004C10.4019 12.5004 10.7943 12.3782 11.1251 12.15L14.3751 10.3438V15.625ZM17.2938 7.29376L10.4188 11.1188C10.2983 11.2043 10.1541 11.2503 10.0063 11.2503C9.85851 11.2503 9.71435 11.2043 9.59383 11.1188L2.71883 7.29376C2.65519 7.24407 2.60371 7.18054 2.5683 7.10798C2.5329 7.03542 2.51449 6.95574 2.51449 6.87501C2.51449 6.79427 2.5329 6.71459 2.5683 6.64204C2.60371 6.56948 2.65519 6.50594 2.71883 6.45626C2.71883 6.45626 9.59383 2.65001 9.59383 2.63126C9.71662 2.54548 9.86279 2.49949 10.0126 2.49949C10.1624 2.49949 10.3085 2.54548 10.4313 2.63126L17.3063 6.45626C17.37 6.50594 17.4214 6.56948 17.4569 6.64204C17.4923 6.71459 17.5107 6.79427 17.5107 6.87501C17.5107 6.95574 17.4923 7.03542 17.4569 7.10798C17.4214 7.18054 17.37 7.24407 17.3063 7.29376H17.2938Z" fill="#0F1A24"/>
</svg>
