<svg width="20" height="20" viewBox="0 0 20 20" fill="none" xmlns="http://www.w3.org/2000/svg">
<g clip-path="url(#clip0_5406_972)">
<path d="M16.6546 10.1244L17.6859 9.0931C19.5592 7.21977 19.5594 4.18763 17.6859 2.31412C15.8126 0.440827 12.7804 0.440578 10.9069 2.31412C10.5071 2.71391 2.67685 10.5442 2.31417 10.9069C0.440837 12.7802 0.440624 15.8123 2.31417 17.6859C4.18743 19.5592 7.2196 19.5594 9.09311 17.6859L10.1244 16.6546C10.9489 18.1074 12.51 19.0898 14.2964 19.0898C16.9395 19.0898 19.0898 16.9395 19.0898 14.2964C19.0898 12.5099 18.1074 10.9488 16.6546 10.1244ZM9.50291 14.2963C9.50265 14.7342 9.56253 15.1701 9.68086 15.5917L8.33991 16.9326C6.88292 18.3896 4.52457 18.3898 3.0674 16.9326C1.6104 15.4757 1.61019 13.1173 3.0674 11.6601L6.95465 7.77286L10.524 11.3421C9.88459 12.1568 9.50291 13.1828 9.50291 14.2963ZM13.7637 17.9864C11.9594 17.7272 10.5681 16.1713 10.5681 14.2963C10.5681 12.4214 11.9594 10.8655 13.7637 10.6063V17.9864ZM11.2701 10.5819L7.70785 7.01963L11.6601 3.06735C13.1171 1.61039 15.4755 1.61018 16.9326 3.06735C18.3896 4.52431 18.3898 6.8827 16.9326 8.33987L15.5917 9.68081C15.1701 9.56246 14.7343 9.50259 14.2964 9.50287C13.1497 9.50287 12.096 9.9078 11.2701 10.5819ZM14.829 17.9864V10.6063C16.6333 10.8655 18.0246 12.4214 18.0246 14.2964C18.0246 16.1713 16.6333 17.7272 14.829 17.9864Z" fill="currentColor"/>
</g>
<defs>
<clipPath id="clip0_5406_972">
<rect width="20" height="20" fill="white"/>
</clipPath>
</defs>
</svg>
