<svg width="20" height="20" viewBox="0 0 20 20" fill="none" xmlns="http://www.w3.org/2000/svg">
<path d="M15.1471 2.64707H14.4118V1.91178C14.4118 1.50589 14.0831 1.17648 13.6765 1.17648C13.2699 1.17648 12.9412 1.50589 12.9412 1.91178V2.64707H7.05882V1.91178C7.05882 1.50589 6.73015 1.17648 6.32353 1.17648C5.91691 1.17648 5.58823 1.50589 5.58823 1.91178V2.64707H4.85294C2.82573 2.64707 1.17647 4.29634 1.17647 6.32354V15.1471C1.17647 17.1743 2.82573 18.8235 4.85294 18.8235H15.1471C17.1743 18.8235 18.8235 17.1743 18.8235 15.1471V6.32354C18.8235 4.29634 17.1743 2.64707 15.1471 2.64707ZM4.85294 4.11766H15.1471C16.3632 4.11766 17.3529 5.10737 17.3529 6.32354V7.05884H2.64706V6.32354C2.64706 5.10737 3.63676 4.11766 4.85294 4.11766ZM15.1471 17.353H4.85294C3.63676 17.353 2.64706 16.3632 2.64706 15.1471V8.52942H17.3529V15.1471C17.3529 16.3632 16.3632 17.353 15.1471 17.353ZM15.1471 11.4706C15.1471 11.8765 14.8184 12.2059 14.4118 12.2059H5.58823C5.18162 12.2059 4.85294 11.8765 4.85294 11.4706C4.85294 11.0647 5.18162 10.7353 5.58823 10.7353H14.4118C14.8184 10.7353 15.1471 11.0647 15.1471 11.4706ZM10 14.4118C10 14.8177 9.67132 15.1471 9.2647 15.1471H5.58823C5.18162 15.1471 4.85294 14.8177 4.85294 14.4118C4.85294 14.0059 5.18162 13.6765 5.58823 13.6765H9.2647C9.67132 13.6765 10 14.0059 10 14.4118Z" fill="currentColor"/>
</svg>
