<svg width="20" height="20" viewBox="0 0 20 20" fill="none" xmlns="http://www.w3.org/2000/svg">
<path d="M7.91667 14.5833C7.80616 14.5833 7.70018 14.6272 7.62204 14.7054C7.5439 14.7835 7.5 14.8895 7.5 15C7.5 15.1105 7.5439 15.2165 7.62204 15.2946C7.70018 15.3728 7.80616 15.4167 7.91667 15.4167H12.0833C12.1938 15.4167 12.2998 15.3728 12.378 15.2946C12.4561 15.2165 12.5 15.1105 12.5 15C12.5 14.8895 12.4561 14.7835 12.378 14.7054C12.2998 14.6272 12.1938 14.5833 12.0833 14.5833H7.91667Z" fill="currentColor"/>
<path fill-rule="evenodd" clip-rule="evenodd" d="M11.8075 2.14584C11.2927 1.73935 10.6559 1.51825 10 1.51825C9.34407 1.51825 8.70729 1.73935 8.1925 2.14584L2.77583 6.4225C2.43007 6.69552 2.15065 7.04333 1.95855 7.4398C1.76644 7.83627 1.66665 8.27111 1.66667 8.71167V15.4167C1.66667 16.1902 1.97396 16.9321 2.52094 17.4791C3.06792 18.026 3.80978 18.3333 4.58333 18.3333H15.4167C16.1902 18.3333 16.9321 18.026 17.4791 17.4791C18.026 16.9321 18.3333 16.1902 18.3333 15.4167V8.71167C18.3333 8.27111 18.2336 7.83627 18.0415 7.4398C17.8494 7.04333 17.5699 6.69552 17.2242 6.4225L11.8075 2.14584ZM8.70917 2.8C9.07683 2.50977 9.53158 2.35191 10 2.35191C10.4684 2.35191 10.9232 2.50977 11.2908 2.8L16.7075 7.07667C16.9545 7.27165 17.1541 7.52005 17.2914 7.80322C17.4286 8.0864 17.5 8.39698 17.5 8.71167V15.4167C17.5 15.9692 17.2805 16.4991 16.8898 16.8898C16.4991 17.2805 15.9692 17.5 15.4167 17.5H4.58333C4.0308 17.5 3.50089 17.2805 3.11019 16.8898C2.71949 16.4991 2.5 15.9692 2.5 15.4167V8.71167C2.49994 8.39705 2.57113 8.08651 2.70824 7.80334C2.84535 7.52017 3.04482 7.27173 3.29167 7.07667L8.70917 2.8Z" fill="currentColor"/>
</svg>
