<svg width="20" height="20" viewBox="0 0 20 20" fill="none" xmlns="http://www.w3.org/2000/svg">
<path d="M12.5 18.9583H7.5C2.975 18.9583 1.04167 17.025 1.04167 12.5V7.49999C1.04167 2.97499 2.975 1.04166 7.5 1.04166H12.5C17.025 1.04166 18.9583 2.97499 18.9583 7.49999V12.5C18.9583 17.025 17.025 18.9583 12.5 18.9583ZM7.5 2.29166C3.65833 2.29166 2.29167 3.65832 2.29167 7.49999V12.5C2.29167 16.3417 3.65833 17.7083 7.5 17.7083H12.5C16.3417 17.7083 17.7083 16.3417 17.7083 12.5V7.49999C17.7083 3.65832 16.3417 2.29166 12.5 2.29166H7.5Z" fill="currentColor"/>
</svg>
