<svg width="20" height="20" viewBox="0 0 20 20" fill="none" xmlns="http://www.w3.org/2000/svg">
<path d="M13.8044 4.43C13.8044 2.33125 12.0981 0.625 10 0.625C7.90188 0.625 6.19563 2.33187 6.19563 4.43C6.19563 6.52812 7.90188 8.23438 10 8.23438C12.0981 8.23438 13.8044 6.52812 13.8044 4.43ZM7.44563 4.43C7.44563 3.02125 8.59125 1.875 10 1.875C11.4088 1.875 12.5544 3.02125 12.5544 4.43C12.5544 5.83875 11.4088 6.98438 10 6.98438C8.59125 6.98438 7.44563 5.83875 7.44563 4.43ZM3.01562 14.7638V16.2063C3.01662 17.0464 3.35079 17.8518 3.94483 18.4458C4.53887 19.0398 5.34428 19.374 6.18438 19.375H13.8156C14.6557 19.374 15.4611 19.0398 16.0552 18.4458C16.6492 17.8518 16.9834 17.0464 16.9844 16.2063V14.7638C16.9844 11.5763 14.3906 8.98312 11.2031 8.98312H8.79688C5.60938 8.98312 3.01562 11.5763 3.01562 14.7638ZM9.63875 10.2331H10.3612L10.9781 14.6138L10 15.4031L9.02188 14.6138L9.63875 10.2331ZM8.37375 10.2544L7.73438 14.79C7.71925 14.897 7.73214 15.0062 7.7718 15.1067C7.81146 15.2073 7.87652 15.2958 7.96063 15.3638L9.6075 16.6925C9.71865 16.7822 9.85717 16.8311 10 16.8311C10.1428 16.8311 10.2813 16.7822 10.3925 16.6925L12.0394 15.3638C12.1235 15.2958 12.1885 15.2073 12.2282 15.1067C12.2679 15.0062 12.2808 14.897 12.2656 14.79L11.6262 10.2544C13.9275 10.4688 15.7344 12.4081 15.7344 14.7638V16.2063C15.7337 16.7149 15.5313 17.2026 15.1717 17.5623C14.812 17.922 14.3243 18.1243 13.8156 18.125H6.18438C5.67569 18.1243 5.18804 17.922 4.82834 17.5623C4.46865 17.2026 4.26629 16.7149 4.26562 16.2063V14.7638C4.26562 12.4081 6.0725 10.4688 8.37375 10.2544Z" fill="currentColor"/>
</svg>
