<svg width="20" height="20" viewBox="0 0 20 20" fill="none" xmlns="http://www.w3.org/2000/svg">
<path d="M9.95953 9.66336C11.1772 9.66336 12.2314 9.22661 13.0931 8.36494C13.9545 7.50345 14.3913 6.44933 14.3913 5.23155C14.3913 4.01413 13.9546 2.9599 13.093 2.09809C12.2313 1.2367 11.177 0.799988 9.95953 0.799988C8.74171 0.799988 7.68756 1.2367 6.82606 2.09823C5.96457 2.95976 5.52768 4.01402 5.52768 5.23155C5.52768 6.44933 5.96453 7.50359 6.8261 8.36512C7.68788 9.2265 8.74214 9.66336 9.95949 9.66336H9.95953ZM7.58862 2.86064C8.24966 2.19957 9.02515 1.87826 9.95953 1.87826C10.8938 1.87826 11.6694 2.19957 12.3305 2.86064C12.9916 3.52182 13.3131 4.29743 13.3131 5.23151C13.3131 6.16589 12.9916 6.94138 12.3305 7.60256C11.6694 8.26378 10.8938 8.58509 9.95953 8.58509C9.0254 8.58509 8.24998 8.26363 7.58862 7.60256C6.92741 6.94153 6.60595 6.16592 6.60595 5.23155C6.60595 4.29743 6.92741 3.52182 7.58862 2.86064ZM17.714 14.9487C17.6891 14.5902 17.6389 14.199 17.5649 13.7861C17.4902 13.37 17.3941 12.9766 17.279 12.6171C17.1599 12.2455 16.9984 11.8786 16.7983 11.5269C16.5909 11.1619 16.3473 10.8441 16.0738 10.5826C15.7878 10.309 15.4377 10.089 15.0329 9.92851C14.6294 9.76895 14.1823 9.68809 13.704 9.68809C13.5162 9.68809 13.3346 9.76514 12.9837 9.99356C12.7344 10.1559 12.4843 10.3172 12.2334 10.4773C11.9924 10.6309 11.6658 10.7748 11.2625 10.905C10.869 11.0324 10.4695 11.0969 10.075 11.0969C9.68087 11.0969 9.28131 11.0324 8.88755 10.905C8.48469 10.7749 8.15802 10.631 7.91738 10.4774C7.63814 10.299 7.3855 10.1362 7.16636 9.99337C6.81582 9.76499 6.63416 9.68791 6.44635 9.68791C5.96791 9.68791 5.52096 9.76891 5.11763 9.92869C4.71305 10.0889 4.3628 10.3088 4.07656 10.5827C3.80311 10.8444 3.55942 11.162 3.3522 11.5269C3.15246 11.8785 2.99074 12.2454 2.87168 12.6172C2.75668 12.9768 2.66055 13.37 2.58587 13.7861C2.51173 14.1985 2.46163 14.5897 2.43677 14.9491C2.41233 15.3005 2.4 15.6662 2.4 16.0357C2.4 16.9962 2.70533 17.7737 3.30742 18.3472C3.90208 18.9131 4.68879 19.2 5.64573 19.2H14.5055C15.4621 19.2 16.2488 18.9131 16.8436 18.3472C17.4459 17.7741 17.7512 16.9963 17.7512 16.0355C17.7511 15.6648 17.7386 15.2991 17.714 14.9487ZM16.1002 17.5659C15.7073 17.9399 15.1856 18.1217 14.5053 18.1217H5.64577C4.96536 18.1217 4.4437 17.9399 4.0509 17.5661C3.66558 17.1993 3.47831 16.6986 3.47831 16.0357C3.47831 15.6909 3.48966 15.3505 3.51245 15.0237C3.53458 14.703 3.57994 14.3508 3.64721 13.9765C3.71359 13.6069 3.79808 13.2601 3.8986 12.946C3.99505 12.6449 4.12658 12.3467 4.2897 12.0595C4.44538 11.7858 4.6245 11.5509 4.82215 11.3617C5.00705 11.1847 5.24011 11.0398 5.51467 10.9312C5.7686 10.8306 6.05402 10.7756 6.36384 10.7673C6.40157 10.7874 6.46885 10.8257 6.57777 10.8967C6.79943 11.0412 7.05491 11.206 7.33738 11.3864C7.65579 11.5894 8.06594 11.7727 8.55602 11.9309C9.05703 12.0929 9.56802 12.1752 10.0752 12.1752C10.5824 12.1752 11.0935 12.0929 11.5943 11.9311C12.0848 11.7726 12.4948 11.5894 12.8136 11.3861C13.1027 11.2014 13.351 11.0413 13.5726 10.8967C13.6816 10.8258 13.7488 10.7874 13.7866 10.7673C14.0966 10.7756 14.382 10.8306 14.636 10.9311C14.9105 11.0398 15.1435 11.1848 15.3284 11.3617C15.5261 11.5508 15.7052 11.7856 15.8609 12.0597C16.0241 12.3467 16.1558 12.6451 16.2521 12.9459C16.3528 13.2603 16.4374 13.6071 16.5037 13.9764C16.5708 14.3514 16.6163 14.7037 16.6384 15.0238V15.0241C16.6613 15.3496 16.6728 15.6899 16.673 16.0357C16.6728 16.6987 16.4856 17.1993 16.1002 17.5659H16.1002Z" fill="currentColor"/>
</svg>
