<svg width="24" height="24" viewBox="0 0 24 24" fill="none" xmlns="http://www.w3.org/2000/svg">
<g clip-path="url(#clip0_5406_946)">
<path d="M13.9864 12.1348L14.8951 11.226C14.9612 11.4734 15 11.732 15 12C15 13.6543 13.6542 15 12 15C11.732 15 11.4734 14.9613 11.226 14.8952L12.1347 13.9864C12.6151 13.9538 13.0673 13.7482 13.4078 13.4078C13.7482 13.0674 13.9537 12.6151 13.9864 12.1348ZM19.937 11.7572C19.8755 11.6465 19.0032 10.1182 17.2982 8.82291L16.5706 9.55053C17.8139 10.4647 18.6016 11.5308 18.9117 12.0008C18.3191 12.9032 15.9944 16 12 16C11.401 16 10.844 15.9234 10.3199 15.8012L9.49824 16.6228C10.2536 16.8544 11.0839 17 12 17C17.2341 17 19.8291 12.437 19.937 12.2429C19.9783 12.1686 20 12.085 20 12C20 11.915 19.9783 11.8314 19.937 11.7572ZM17.8535 6.85353L6.85349 17.8535C6.75586 17.9512 6.62786 18 6.49999 18C6.37211 18 6.24411 17.9512 6.14649 17.8535C6.10003 17.8071 6.06317 17.752 6.03803 17.6914C6.01288 17.6307 5.99994 17.5657 5.99994 17.5C5.99994 17.4344 6.01288 17.3694 6.03803 17.3087C6.06317 17.248 6.10003 17.1929 6.14649 17.1465L7.54599 15.747C5.28349 14.3812 4.13386 12.3705 4.06299 12.2429C4.02168 12.1686 4 12.085 4 12C4 11.915 4.02168 11.8313 4.06299 11.757C4.17086 11.563 6.76586 7.00003 12 7.00003C13.3534 7.00003 14.5256 7.30878 15.5277 7.76528L17.1465 6.14653C17.3419 5.95116 17.6582 5.95116 17.8535 6.14653C18.0487 6.34191 18.0489 6.65828 17.8535 6.85353ZM8.29161 15.0014L9.55749 13.7355C9.20786 13.245 8.99999 12.6469 8.99999 12C8.99999 10.3458 10.3457 9.00003 12 9.00003C12.6469 9.00003 13.245 9.20791 13.7355 9.55741L14.7591 8.53378C13.9504 8.20991 13.0314 8.00003 12 8.00003C8.00561 8.00003 5.68086 11.0969 5.08836 11.9993C5.46461 12.5695 6.54611 14.013 8.29161 15.0014ZM10.2834 13.0095L13.0095 10.2834C12.7121 10.1078 12.3697 10 12 10C10.8972 10 9.99999 10.8973 9.99999 12C9.99999 12.3698 10.1077 12.7122 10.2834 13.0095Z" fill="#ADB4C1"/>
</g>
<defs>
<clipPath id="clip0_5406_946">
<rect width="16" height="16" fill="white" transform="translate(4 4)"/>
</clipPath>
</defs>
</svg>
