<svg width="16" height="16" viewBox="0 0 16 16" fill="none" xmlns="http://www.w3.org/2000/svg">
<path d="M15.8983 7.66769C15.7553 7.47216 12.3496 2.88 7.9999 2.88C3.65018 2.88 0.244309 7.47216 0.101528 7.66751C0.0355528 7.75789 0 7.8669 0 7.9788C0 8.0907 0.0355528 8.19971 0.101528 8.2901C0.244309 8.48563 3.65018 13.0778 7.9999 13.0778C12.3496 13.0778 15.7553 8.4856 15.8983 8.29026C15.9643 8.19991 16 8.0909 16 7.97897C16 7.86705 15.9643 7.75803 15.8983 7.66769ZM7.9999 12.0228C4.79587 12.0228 2.02084 8.97494 1.19937 7.97854C2.01978 6.98126 4.789 3.93494 7.9999 3.93494C11.2038 3.93494 13.9786 6.98232 14.8004 7.97925C13.98 8.9765 11.2108 12.0228 7.9999 12.0228Z" fill="#0F1A24"/>
<path d="M7.99993 4.81407C6.25486 4.81407 4.83508 6.23385 4.83508 7.97891C4.83508 9.72398 6.25486 11.1438 7.99993 11.1438C9.74499 11.1438 11.1648 9.72398 11.1648 7.97891C11.1648 6.23385 9.74499 4.81407 7.99993 4.81407ZM7.99993 10.0888C6.83649 10.0888 5.89005 9.14232 5.89005 7.97891C5.89005 6.81551 6.83652 5.86904 7.99993 5.86904C9.16333 5.86904 10.1098 6.81551 10.1098 7.97891C10.1098 9.14232 9.16336 10.0888 7.99993 10.0888Z" fill="#0F1A24"/>
</svg>
