<svg width="20" height="20" viewBox="0 0 20 20" fill="none" xmlns="http://www.w3.org/2000/svg">
<g clip-path="url(#clip0_4411_2177)">
<path d="M10.1285 7.42245C9.0018 7.42245 8.08838 8.33583 8.08838 9.46257C8.08838 10.5893 9.00175 11.5027 10.1285 11.5027C11.2552 11.5027 12.1686 10.5893 12.1686 9.46257C12.1686 8.33583 11.2552 7.42245 10.1285 7.42245ZM10.1285 10.5312C9.5383 10.5312 9.05986 10.0527 9.05986 9.46253C9.05986 8.87233 9.5383 8.39389 10.1285 8.39389C10.7187 8.39389 11.1971 8.87233 11.1971 9.46253C11.1971 10.0527 10.7187 10.5312 10.1285 10.5312Z" fill="#1F1F1F"/>
<path d="M18.2645 2.75933L5.00379 1.25357C4.74934 1.2174 4.49011 1.23549 4.24315 1.30665C3.99618 1.37782 3.76708 1.50044 3.57089 1.66647C3.37453 1.81873 3.21093 2.00907 3.0899 2.22608C2.96888 2.44309 2.89291 2.6823 2.86657 2.92937L2.62372 4.92091H1.87077C0.802135 4.92091 0.000656343 5.86808 0.000656343 6.93672V16.8701C-0.0262595 17.8891 0.778008 18.7371 1.79709 18.764C1.82164 18.7646 1.84623 18.7648 1.87077 18.7644H15.2043C16.2729 18.7644 17.2444 17.9387 17.2444 16.8701V16.4815C17.5757 16.4175 17.89 16.2851 18.1673 16.0929C18.5608 15.7616 18.8128 15.2924 18.8716 14.7814L19.9888 4.92091C20.1027 3.84981 19.3341 2.88628 18.2645 2.75933ZM16.2729 16.8701C16.2729 17.4044 15.7386 17.793 15.2043 17.793H1.87077C1.3881 17.8071 0.985339 17.4273 0.971161 16.9447C0.970417 16.9198 0.970742 16.8949 0.972137 16.8701V15.0728L4.73664 12.3041C5.18886 11.9569 5.82582 11.9878 6.24243 12.377L8.88972 14.7085C9.29174 15.0461 9.7978 15.2348 10.3227 15.2428C10.733 15.2479 11.1367 15.1385 11.4885 14.9271L16.273 12.1584V16.8701H16.2729ZM16.2729 11.0169L10.9784 14.1014C10.7566 14.2327 10.4993 14.2917 10.2425 14.2699C9.9856 14.2481 9.74193 14.1468 9.54541 13.9799L6.87386 11.6241C6.10818 10.9661 4.98906 10.9258 4.178 11.5269L0.972137 13.8585V6.93672C0.972137 6.4024 1.33645 5.89239 1.87077 5.89239H15.2043C15.7751 5.91606 16.2362 6.3666 16.2729 6.93672V11.0169ZM19.0183 4.78977C19.018 4.79298 19.0177 4.79624 19.0173 4.79944L17.8758 14.6599C17.8768 14.7861 17.8489 14.9108 17.7941 15.0245C17.7394 15.1381 17.6593 15.2378 17.5601 15.3157C17.4629 15.4128 17.2444 15.4614 17.2444 15.51V6.93672C17.206 5.83029 16.3111 4.94597 15.2042 4.92091H3.59515L3.81373 3.02653C3.86115 2.78123 3.98942 2.55889 4.17805 2.39505C4.39107 2.24779 4.64863 2.1791 4.90668 2.20074L18.1431 3.73081C18.6771 3.78152 19.069 4.25564 19.0183 4.78977Z" fill="#1F1F1F"/>
</g>
<defs>
<clipPath id="clip0_4411_2177">
<rect width="20" height="20" fill="white"/>
</clipPath>
</defs>
</svg>
