<svg width="30" height="21" viewBox="0 0 30 21" fill="none" xmlns="http://www.w3.org/2000/svg">
<path d="M7.5 1.5C7.5 0.671601 8.1716 0 9 0H28.5C29.3284 0 30 0.671601 30 1.5C30 2.3284 29.3284 3 28.5 3H9C8.1716 3 7.5 2.32834 7.5 1.5ZM28.5 9H1.5C0.671602 9 0 9.67166 0 10.5C0 11.3284 0.671602 12 1.5 12H28.5C29.3284 12 30 11.3284 30 10.5C30 9.67166 29.3284 9 28.5 9ZM28.5 18H15C14.1717 18 13.5 18.6716 13.5 19.5C13.5 20.3283 14.1717 21 15 21H28.5C29.3284 21 30 20.3283 30 19.5C30 18.6716 29.3284 18 28.5 18Z" fill="#0F1A24"/>
</svg>
