<svg width="20" height="20" viewBox="0 0 20 20" fill="none" xmlns="http://www.w3.org/2000/svg">
<path d="M7.91667 14.5833C7.80616 14.5833 7.70018 14.6272 7.62204 14.7054C7.5439 14.7835 7.5 14.8895 7.5 15C7.5 15.1105 7.5439 15.2165 7.62204 15.2946C7.70018 15.3728 7.80616 15.4167 7.91667 15.4167H12.0833C12.1938 15.4167 12.2998 15.3728 12.378 15.2946C12.4561 15.2165 12.5 15.1105 12.5 15C12.5 14.8895 12.4561 14.7835 12.378 14.7054C12.2998 14.6272 12.1938 14.5833 12.0833 14.5833H7.91667Z" fill="#1F1F1F"/>
<path fill-rule="evenodd" clip-rule="evenodd" d="M11.8073 2.14584C11.2925 1.73935 10.6558 1.51825 9.99984 1.51825C9.34391 1.51825 8.70713 1.73935 8.19234 2.14584L2.77567 6.4225C2.42991 6.69552 2.15049 7.04333 1.95838 7.4398C1.76628 7.83627 1.66649 8.27111 1.6665 8.71167V15.4167C1.6665 16.1902 1.97379 16.9321 2.52078 17.4791C3.06776 18.026 3.80962 18.3333 4.58317 18.3333H15.4165C16.1901 18.3333 16.9319 18.026 17.4789 17.4791C18.0259 16.9321 18.3332 16.1902 18.3332 15.4167V8.71167C18.3332 8.27111 18.2334 7.83627 18.0413 7.4398C17.8492 7.04333 17.5698 6.69552 17.224 6.4225L11.8073 2.14584ZM8.709 2.8C9.07667 2.50977 9.53142 2.35191 9.99984 2.35191C10.4683 2.35191 10.923 2.50977 11.2907 2.8L16.7073 7.07667C16.9543 7.27165 17.154 7.52005 17.2912 7.80322C17.4285 8.0864 17.4998 8.39698 17.4998 8.71167V15.4167C17.4998 15.9692 17.2803 16.4991 16.8896 16.8898C16.4989 17.2805 15.969 17.5 15.4165 17.5H4.58317C4.03064 17.5 3.50073 17.2805 3.11003 16.8898C2.71933 16.4991 2.49984 15.9692 2.49984 15.4167V8.71167C2.49977 8.39705 2.57097 8.08651 2.70808 7.80334C2.84519 7.52017 3.04465 7.27173 3.2915 7.07667L8.709 2.8Z" fill="#1F1F1F"/>
</svg>
