<svg width="16" height="16" viewBox="0 0 16 16" fill="none" xmlns="http://www.w3.org/2000/svg">
<g clip-path="url(#clip0_2954_2686)">
<path d="M9.30876 7.30854C9.22772 7.30869 9.14746 7.29279 9.0726 7.26177C8.99774 7.23074 8.92976 7.18521 8.87259 7.12778C7.91049 6.16568 6.34504 6.16537 5.38264 7.12778C5.32573 7.1867 5.25765 7.2337 5.18238 7.26603C5.10712 7.29836 5.02616 7.31538 4.94425 7.31609C4.86233 7.31681 4.7811 7.3012 4.70528 7.27018C4.62946 7.23916 4.56058 7.19335 4.50265 7.13542C4.44473 7.0775 4.39892 7.00862 4.3679 6.9328C4.33688 6.85698 4.32127 6.77575 4.32198 6.69383C4.3227 6.61191 4.33971 6.53096 4.37205 6.45569C4.40438 6.38043 4.45138 6.31235 4.5103 6.25544C5.9536 4.81183 8.30193 4.81214 9.74493 6.25544C9.83118 6.34172 9.88991 6.45164 9.91371 6.57129C9.9375 6.69094 9.92528 6.81497 9.8786 6.92768C9.83192 7.04039 9.75286 7.13673 9.65144 7.20452C9.55001 7.27231 9.43076 7.30851 9.30876 7.30854ZM8.87259 10.8278C7.92468 10.8278 6.97677 10.4669 6.25528 9.7454C6.19636 9.68849 6.14936 9.62041 6.11702 9.54515C6.08469 9.46988 6.06767 9.38892 6.06696 9.30701C6.06625 9.22509 6.08186 9.14386 6.11288 9.06804C6.1439 8.99222 6.18971 8.92334 6.24763 8.86542C6.30556 8.80749 6.37444 8.76168 6.45026 8.73066C6.52607 8.69964 6.60731 8.68403 6.68923 8.68475C6.77114 8.68546 6.85209 8.70248 6.92736 8.73481C7.00263 8.76714 7.0707 8.81414 7.12761 8.87306C8.08971 9.83516 9.65516 9.83547 10.6176 8.87306C10.6745 8.81414 10.7426 8.76714 10.8178 8.73481C10.8931 8.70248 10.974 8.68546 11.056 8.68475C11.1379 8.68403 11.2191 8.69964 11.2949 8.73066C11.3707 8.76168 11.4396 8.80749 11.4976 8.86542C11.5555 8.92334 11.6013 8.99222 11.6323 9.06804C11.6633 9.14386 11.6789 9.22509 11.6782 9.30701C11.6775 9.38892 11.6605 9.46988 11.6282 9.54515C11.5958 9.62041 11.5488 9.68849 11.4899 9.7454C11.1464 10.0893 10.7383 10.3619 10.2892 10.5476C9.84005 10.7334 9.35863 10.8286 8.87259 10.8278Z" fill="#0F1A24"/>
<path d="M11.0535 9.92581C10.9315 9.92579 10.8122 9.88959 10.7108 9.8218C10.6093 9.75401 10.5303 9.65767 10.4836 9.54496C10.4369 9.43224 10.4247 9.30822 10.4485 9.18857C10.4723 9.06891 10.531 8.959 10.6173 8.87272L14.0634 5.42657C14.1203 5.36764 14.1884 5.32064 14.2637 5.28831C14.339 5.25598 14.4199 5.23896 14.5018 5.23825C14.5837 5.23754 14.665 5.25315 14.7408 5.28416C14.8166 5.31518 14.8855 5.36099 14.9434 5.41892C15.0013 5.47684 15.0472 5.54572 15.0782 5.62154C15.1092 5.69736 15.1248 5.7786 15.1241 5.86051C15.1234 5.94243 15.1064 6.02338 15.074 6.09865C15.0417 6.17392 14.9947 6.24199 14.9358 6.2989L11.4896 9.74505C11.4324 9.80248 11.3645 9.84802 11.2896 9.87905C11.2147 9.91007 11.1345 9.92596 11.0535 9.92581ZM5.86263 15.1166C5.74063 15.1166 5.62138 15.0804 5.51995 15.0126C5.41852 14.9448 5.33947 14.8485 5.29279 14.7358C5.24611 14.6231 5.23389 14.499 5.25768 14.3794C5.28148 14.2597 5.34021 14.1498 5.42646 14.0635L7.35282 12.1372C7.40973 12.0783 7.4778 12.0313 7.55307 11.9989C7.62834 11.9666 7.70929 11.9496 7.7912 11.9489C7.87312 11.9482 7.95436 11.9638 8.03017 11.9948C8.10599 12.0258 8.17487 12.0716 8.2328 12.1295C8.29072 12.1875 8.33653 12.2563 8.36755 12.3322C8.39857 12.408 8.41418 12.4892 8.41347 12.5711C8.41276 12.653 8.39574 12.734 8.36341 12.8093C8.33107 12.8845 8.28407 12.9526 8.22515 13.0095L6.2988 14.9359C6.24163 14.9933 6.17365 15.0388 6.09879 15.0699C6.02393 15.1009 5.94366 15.1168 5.86263 15.1166ZM1.50034 10.7543C1.37834 10.7543 1.25909 10.7181 1.15766 10.6503C1.05623 10.5825 0.977181 10.4862 0.930498 10.3735C0.883816 10.2608 0.871599 10.1368 0.895392 10.0171C0.919185 9.89744 0.977921 9.78753 1.06417 9.70125L4.51033 6.25541C4.56724 6.19648 4.63531 6.14948 4.71058 6.11715C4.78585 6.08482 4.8668 6.0678 4.94871 6.06709C5.03063 6.06638 5.11187 6.08199 5.18768 6.11301C5.2635 6.14403 5.33238 6.18983 5.39031 6.24776C5.44823 6.30568 5.49404 6.37457 5.52506 6.45038C5.55608 6.5262 5.57169 6.60744 5.57098 6.68935C5.57027 6.77127 5.55325 6.85222 5.52092 6.92749C5.48858 7.00276 5.44158 7.07083 5.38266 7.12774L1.93651 10.5736C1.8159 10.6939 1.65797 10.7543 1.50034 10.7543ZM8.21096 4.04403C8.08896 4.04401 7.96971 4.00781 7.86829 3.94002C7.76686 3.87223 7.6878 3.77589 7.64112 3.66318C7.59444 3.55046 7.58222 3.42644 7.60601 3.30678C7.62981 3.18713 7.68854 3.07722 7.7748 2.99094L9.70115 1.06428C9.81687 0.948556 9.97382 0.883545 10.1375 0.883545C10.3011 0.883545 10.4581 0.948556 10.5738 1.06428C10.6895 1.17999 10.7545 1.33694 10.7545 1.5006C10.7545 1.66425 10.6895 1.8212 10.5738 1.93692L8.64744 3.86358C8.53158 3.97916 8.37461 4.04406 8.21096 4.04403Z" fill="#0F1A24"/>
<path d="M3.68151 16C2.72743 16 1.77336 15.6453 1.0642 14.9358C-0.354733 13.5169 -0.354733 11.1198 1.0642 9.70087C1.12111 9.64194 1.18918 9.59494 1.26445 9.56261C1.33972 9.53028 1.42067 9.51326 1.50259 9.51255C1.5845 9.51184 1.66574 9.52745 1.74156 9.55847C1.81737 9.58949 1.88626 9.63529 1.94418 9.69322C2.00211 9.75114 2.04791 9.82003 2.07893 9.89584C2.10995 9.97166 2.12556 10.0529 2.12485 10.1348C2.12414 10.2167 2.10712 10.2977 2.07479 10.373C2.04245 10.4482 1.99546 10.5163 1.93653 10.5732C0.990785 11.519 0.990785 13.1174 1.93653 14.0632C2.88228 15.0089 4.48074 15.0089 5.42649 14.0632C5.4834 14.0042 5.55147 13.9572 5.62674 13.9249C5.70201 13.8926 5.78296 13.8756 5.86488 13.8748C5.94679 13.8741 6.02803 13.8897 6.10385 13.9208C6.17966 13.9518 6.24855 13.9976 6.30647 14.0555C6.3644 14.1134 6.4102 14.1823 6.44122 14.2581C6.47224 14.334 6.48785 14.4152 6.48714 14.4971C6.48643 14.579 6.46941 14.66 6.43708 14.7352C6.40475 14.8105 6.35775 14.8786 6.29882 14.9355C5.58967 15.6453 4.63559 16 3.68151 16ZM14.4996 6.47958C14.3776 6.47956 14.2584 6.44336 14.157 6.37557C14.0555 6.30778 13.9765 6.21144 13.9298 6.09873C13.8831 5.98601 13.8709 5.86199 13.8947 5.74234C13.9185 5.62268 13.9772 5.51277 14.0635 5.42649C15.0092 4.48074 15.0092 2.88228 14.0635 1.93653C13.1177 0.990785 11.5193 0.990785 10.5735 1.93653C10.5166 1.99546 10.4485 2.04245 10.3733 2.07479C10.298 2.10712 10.217 2.12414 10.1351 2.12485C10.0532 2.12556 9.97197 2.10995 9.89615 2.07893C9.82034 2.04791 9.75145 2.00211 9.69353 1.94418C9.6356 1.88626 9.5898 1.81737 9.55877 1.74156C9.52776 1.66574 9.51215 1.5845 9.51286 1.50259C9.51357 1.42067 9.53059 1.33972 9.56292 1.26445C9.59525 1.18918 9.64225 1.12111 9.70118 1.0642C11.1201 -0.354733 13.5172 -0.354733 14.9361 1.0642C16.355 2.48313 16.355 4.8802 14.9361 6.29913C14.8155 6.41943 14.6576 6.47958 14.4996 6.47958Z" fill="#0F1A24"/>
</g>
<defs>
<clipPath id="clip0_2954_2686">
<rect width="16" height="16" fill="white"/>
</clipPath>
</defs>
</svg>
