<svg width="20" height="20" viewBox="0 0 20 20" fill="none" xmlns="http://www.w3.org/2000/svg">
<path d="M2.06362 13.968C1.93732 13.968 1.81619 14.0181 1.72688 14.1074C1.63758 14.1967 1.5874 14.3179 1.5874 14.4442V18.5714H4.44472V14.4442C4.44472 14.3179 4.39454 14.1967 4.30523 14.1074C4.21593 14.0181 4.0948 13.968 3.9685 13.968H2.06362Z" fill="#0F1A24"/>
<path d="M6.82534 12.698C6.69904 12.698 6.57791 12.7482 6.4886 12.8375C6.39929 12.9268 6.34912 13.0479 6.34912 13.1742V18.5714H9.20643V13.1742C9.20643 13.0479 9.15626 12.9268 9.06695 12.8375C8.97764 12.7482 8.85652 12.698 8.73022 12.698H6.82534Z" fill="#0F1A24"/>
<path d="M11.5875 10.1582C11.4612 10.1582 11.3401 10.2084 11.2508 10.2977C11.1615 10.387 11.1113 10.5081 11.1113 10.6344V18.5714H13.9686V10.6344C13.9686 10.5081 13.9185 10.387 13.8292 10.2977C13.7399 10.2084 13.6187 10.1582 13.4924 10.1582H11.5875Z" fill="#0F1A24"/>
<path d="M16.3493 6.34845C16.223 6.34845 16.1018 6.39862 16.0125 6.48793C15.9232 6.57724 15.873 6.69837 15.873 6.82467V18.5714H18.7304V6.82467C18.7304 6.69837 18.6802 6.57724 18.5909 6.48793C18.5016 6.39862 18.3804 6.34845 18.2541 6.34845H16.3493Z" fill="#0F1A24"/>
<path d="M19.5238 19.0476H0.476191C0.349897 19.0476 0.228776 19.0978 0.139473 19.1871C0.0501699 19.2764 0 19.3975 0 19.5238C0 19.6501 0.0501699 19.7713 0.139473 19.8606C0.228776 19.9499 0.349897 20 0.476191 20H19.5238C19.6501 20 19.7712 19.9499 19.8605 19.8606C19.9498 19.7713 20 19.6501 20 19.5238C20 19.3975 19.9498 19.2764 19.8605 19.1871C19.7712 19.0978 19.6501 19.0476 19.5238 19.0476Z" fill="#0F1A24"/>
<path d="M1.5874 11.9043C1.5874 12.0306 1.63757 12.1517 1.72688 12.241C1.81618 12.3303 1.9373 12.3805 2.06359 12.3805C4.58804 12.3805 8.34026 10.8889 11.856 8.4878C13.5692 7.31765 15.091 6.01571 16.2568 4.7227C17.0675 3.82336 17.6933 2.94811 18.1289 2.10595L18.4241 3.43552C18.578 4.04742 19.4749 3.84296 19.3538 3.22892L18.7189 0.371602C18.7035 0.305402 18.6743 0.243217 18.6331 0.189161C18.5919 0.135104 18.5397 0.0904058 18.48 0.0580217C18.4202 0.0256377 18.3543 0.00630533 18.2865 0.00130274C18.2188 -0.00369984 18.1507 0.00574132 18.0868 0.029002L15.5472 0.98144C15.4886 1.0034 15.435 1.03668 15.3893 1.07938C15.3436 1.12208 15.3067 1.17336 15.2809 1.23029C15.2286 1.34528 15.2242 1.47631 15.2685 1.59457C15.3129 1.71283 15.4024 1.80863 15.5174 1.86089C15.6323 1.91315 15.7634 1.91759 15.8816 1.87324L17.4692 1.27797C16.5689 3.29797 14.3493 5.63168 11.3188 7.70125C8.00407 9.96519 4.37105 11.4281 2.06359 11.4281C1.9373 11.4281 1.81618 11.4782 1.72688 11.5675C1.63757 11.6568 1.5874 11.778 1.5874 11.9043Z" fill="#0F1A24"/>
</svg>
