<svg width="20" height="20" viewBox="0 0 20 20" fill="none" xmlns="http://www.w3.org/2000/svg">
<g clip-path="url(#clip0_4411_2171)">
<path fill-rule="evenodd" clip-rule="evenodd" d="M10.7233 3.50691C10.6868 3.43519 10.634 3.37301 10.5692 3.32539C10.5043 3.27777 10.4292 3.24603 10.3498 3.23272C10.2704 3.21941 10.1891 3.2249 10.1122 3.24875C10.0353 3.2726 9.96515 3.31415 9.90727 3.37005L5.63606 7.49924L8.60702 13.3485L14.4764 12.3735C14.5562 12.3603 14.6317 12.3285 14.6969 12.2806C14.7621 12.2327 14.8151 12.1702 14.8516 12.098C14.8881 12.0258 14.907 11.9461 14.9069 11.8652C14.9068 11.7843 14.8876 11.7046 14.851 11.6325L10.7233 3.50691ZM9.09532 14.3102L14.6452 13.3882C14.8843 13.3484 15.1108 13.2529 15.3061 13.1093C15.5015 12.9658 15.6603 12.7782 15.7697 12.5619C15.8791 12.3455 15.936 12.1064 15.9358 11.864C15.9355 11.6215 15.8782 11.3825 15.7684 11.1664L11.6413 3.04125C11.5319 2.82589 11.3734 2.6392 11.1787 2.49621C10.984 2.35323 10.7585 2.25793 10.5203 2.21799C10.282 2.17805 10.0377 2.19458 9.80705 2.26625C9.57636 2.33793 9.36572 2.46274 9.19205 2.63065L4.7032 6.96978L1.64425 8.52369C1.2793 8.70911 1.00294 9.03189 0.875957 9.42104C0.748972 9.81019 0.781762 10.2339 0.967113 10.5988L3.37362 15.3378C3.46547 15.5185 3.59203 15.6794 3.74605 15.8112C3.90008 15.943 4.07856 16.0432 4.27131 16.106C4.46405 16.1688 4.66729 16.1931 4.86941 16.1774C5.07152 16.1616 5.26857 16.1063 5.44928 16.0144L6.09554 15.6861L7.45136 18.3555C7.63677 18.7205 7.95956 18.9969 8.34871 19.1238C8.73787 19.2508 9.16152 19.218 9.52651 19.0327L9.71431 18.9375C9.89508 18.8457 10.056 18.7192 10.1879 18.5652C10.3197 18.4111 10.42 18.2327 10.4828 18.0399C10.5457 17.8472 10.57 17.6439 10.5543 17.4418C10.5387 17.2396 10.4833 17.0426 10.3914 16.8618L9.09532 14.3102ZM8.11821 14.6586L7.01297 15.2204L8.36879 17.8894C8.43056 18.011 8.53811 18.1031 8.66779 18.1455C8.79747 18.1878 8.93867 18.177 9.06033 18.1153L9.24814 18.0195C9.36977 17.9578 9.4619 17.8502 9.50426 17.7205C9.54661 17.5909 9.53574 17.4497 9.47402 17.328L8.11821 14.6586ZM7.65203 13.7411L4.77935 8.0853L2.10991 9.4406C2.04966 9.47124 1.99604 9.51344 1.9521 9.5648C1.90817 9.61616 1.87478 9.67567 1.85385 9.73994C1.83292 9.80421 1.82486 9.87197 1.83013 9.93935C1.83539 10.0067 1.85388 10.0724 1.88454 10.1327L4.29156 14.8716C4.35343 14.9931 4.46102 15.0851 4.59069 15.1274C4.72036 15.1697 4.86151 15.1587 4.98311 15.097L7.65203 13.7411ZM15.9171 0.954276C16.0127 1.05165 16.0657 1.183 16.0644 1.31944C16.0632 1.45588 16.0078 1.58624 15.9104 1.68184L13.6737 3.87841C13.5763 3.97408 13.445 4.02714 13.3085 4.02593C13.172 4.02473 13.0416 3.96935 12.9459 3.87198C12.8502 3.77461 12.7972 3.64323 12.7984 3.50674C12.7996 3.37025 12.855 3.23982 12.9523 3.14416L15.1895 0.947072C15.287 0.85156 15.4184 0.798662 15.5548 0.800013C15.6913 0.801364 15.8216 0.856853 15.9171 0.954276ZM18.5495 3.93913C18.6155 4.05854 18.6314 4.19929 18.5937 4.33042C18.556 4.46156 18.4677 4.57234 18.3483 4.63839L14.9724 6.50772C14.9133 6.54049 14.8483 6.5613 14.7811 6.56895C14.714 6.5766 14.6459 6.57095 14.581 6.55231C14.516 6.53368 14.4553 6.50243 14.4024 6.46034C14.3495 6.41826 14.3054 6.36617 14.2726 6.30705C14.2399 6.24792 14.2191 6.18292 14.2114 6.11576C14.2038 6.04859 14.2094 5.98058 14.228 5.9156C14.2467 5.85062 14.2779 5.78995 14.32 5.73704C14.3621 5.68414 14.4142 5.64004 14.4733 5.60727L17.8497 3.73794C17.9088 3.70514 17.9738 3.68431 18.041 3.67665C18.1082 3.66898 18.1762 3.67463 18.2412 3.69326C18.3062 3.7119 18.3669 3.74316 18.4198 3.78526C18.4727 3.82736 18.5167 3.87947 18.5495 3.93861V3.93913ZM20.071 7.70866C20.1011 7.84164 20.0773 7.98114 20.0046 8.09652C19.932 8.21191 19.8165 8.29374 19.6835 8.32405L16.2469 9.10615C16.1138 9.13638 15.9741 9.11248 15.8586 9.03973C15.7431 8.96697 15.6612 8.85131 15.631 8.71819C15.6008 8.58507 15.6247 8.44539 15.6974 8.32988C15.7702 8.21438 15.8859 8.13251 16.019 8.10228L19.4556 7.32069C19.5887 7.29057 19.7282 7.31452 19.8436 7.38727C19.959 7.46002 20.0408 7.57562 20.071 7.70866Z" fill="#1F1F1F"/>
</g>
<defs>
<clipPath id="clip0_4411_2171">
<rect width="20" height="20" fill="white"/>
</clipPath>
</defs>
</svg>
