<svg width="30" height="30" viewBox="0 0 30 30" fill="none" xmlns="http://www.w3.org/2000/svg">
<g clip-path="url(#clip0_2418_1549)">
<path d="M29.5 9H29V3.5C29 3.22388 28.7761 3 28.5 3H20V0.5C20 0.223877 19.7761 0 19.5 0H10.5C10.2239 0 10 0.223877 10 0.5V3H1.5C1.22388 3 1 3.22388 1 3.5V9H0.5C0.223877 9 0 9.22388 0 9.5V11.5C0 11.7761 0.223877 12 0.5 12H1V29.5C1 29.7761 1.22388 30 1.5 30H28.5C28.7761 30 29 29.7761 29 29.5V12H29.5C29.7761 12 30 11.7761 30 11.5V9.5C30 9.22388 29.7761 9 29.5 9ZM20 4H28V9H20V4ZM11 1H19V9H11V1ZM2 4H10V9H2V4ZM24.5 29H18V25H24.5V29ZM24.5 24H18V19H24.5V24ZM24.5 18H18V15.5H24.5V18ZM28 29H25.5V15C25.5 14.7239 25.2761 14.5 25 14.5H17.5C17.2239 14.5 17 14.7239 17 15V29H2V12H28V29ZM29 11H1V10H29V11Z" fill="#737F8C"/>
<path d="M5.00012 25.5H14.0001C14.2762 25.5 14.5001 25.2761 14.5001 25V22.5C14.5001 22.2238 14.2762 22 14.0001 22H13.5001V15C13.5001 14.7238 13.2762 14.5 13.0001 14.5H6.00012C5.724 14.5 5.50012 14.7238 5.50012 15V22H5.00012C4.724 22 4.50012 22.2238 4.50012 22.5V25C4.50012 25.2761 4.724 25.5 5.00012 25.5ZM6.50012 15.5H12.5001V22H6.50012V15.5ZM5.50012 23H13.5001V24.5H5.50012V23Z" fill="#737F8C"/>
<path d="M23 22C23.2761 22 23.5 21.7762 23.5 21.5V21C23.5 20.7239 23.2761 20.5 23 20.5C22.7239 20.5 22.5 20.7239 22.5 21V21.5C22.5 21.7762 22.7239 22 23 22Z" fill="#737F8C"/>
<path d="M17.5001 3.49997H16.5001V2.49997C16.5001 2.22385 16.2762 1.99997 16.0001 1.99997H14.0001C13.724 1.99997 13.5001 2.22385 13.5001 2.49997V3.49997H12.5001C12.224 3.49997 12.0001 3.72385 12.0001 3.99997V5.99997C12.0001 6.27609 12.224 6.49997 12.5001 6.49997H13.5001V7.49997C13.5001 7.77609 13.724 7.99997 14.0001 7.99997H16.0001C16.2762 7.99997 16.5001 7.77609 16.5001 7.49997V6.49997H17.5001C17.7762 6.49997 18.0001 6.27609 18.0001 5.99997V3.99997C18.0001 3.72385 17.7762 3.49997 17.5001 3.49997ZM17.0001 5.49997H16.0001C15.724 5.49997 15.5001 5.72385 15.5001 5.99997V6.99997H14.5001V5.99997C14.5001 5.72385 14.2762 5.49997 14.0001 5.49997H13.0001V4.49997H14.0001C14.2762 4.49997 14.5001 4.27609 14.5001 3.99997V2.99997H15.5001V3.99997C15.5001 4.27609 15.724 4.49997 16.0001 4.49997H17.0001V5.49997Z" fill="#169E23"/>
<path d="M8.35377 18.8535L9.85377 17.3535C10.0432 17.1572 10.0405 16.8454 9.84767 16.6526C9.6548 16.4597 9.34303 16.457 9.14674 16.6465L7.64674 18.1465C7.51686 18.272 7.46461 18.458 7.51051 18.6328C7.55617 18.8076 7.69264 18.9441 7.86745 18.9897C8.04225 19.0356 8.22828 18.9834 8.35377 18.8535Z" fill="#737F8C"/>
<path d="M10.647 17.6464L8.14699 20.1464C8.0171 20.2719 7.96486 20.458 8.01076 20.6328C8.05641 20.8076 8.19288 20.944 8.36769 20.9897C8.54249 21.0356 8.72853 20.9834 8.85402 20.8535L11.354 18.3535C11.5435 18.1572 11.5408 17.8454 11.3479 17.6525C11.155 17.4597 10.8433 17.457 10.647 17.6464Z" fill="#737F8C"/>
</g>
<defs>
<clipPath id="clip0_2418_1549">
<rect width="30" height="30" fill="white"/>
</clipPath>
</defs>
</svg>
