<svg width="16" height="16" viewBox="0 0 16 16" fill="none" xmlns="http://www.w3.org/2000/svg">
<g clip-path="url(#clip0_4411_2600)">
<path d="M10.0746 8.61765C10.6604 8.80213 11.2164 9.10517 11.7513 9.49044C11.8408 9.55544 11.9107 9.64378 11.9533 9.74582C11.996 9.84785 12.0098 9.95966 11.9932 10.069C11.9365 10.4539 11.863 10.8362 11.7727 11.2146C11.7157 11.4527 11.5753 11.6624 11.3769 11.8059C11.1786 11.9493 10.9354 12.0169 10.6914 11.9964C9.15592 11.866 7.526 11.116 6.20504 9.79492C4.88408 8.4738 4.134 6.84405 4.0036 5.30853C3.9831 5.0646 4.05069 4.82139 4.19411 4.62302C4.33753 4.42465 4.54729 4.28424 4.78536 4.22725C5.16381 4.137 5.54604 4.06343 5.93096 4.00677C6.0403 3.99017 6.15211 4.00396 6.25415 4.04663C6.35618 4.0893 6.44453 4.1592 6.50952 4.24869C6.8948 4.78357 7.19784 5.33957 7.38248 5.92549C7.42105 6.04756 7.41969 6.17875 7.3786 6.3C7.33751 6.42125 7.25883 6.52625 7.154 6.59973L6.3452 7.16549C6.6642 7.66406 7.03641 8.1265 7.45528 8.54469C7.87346 8.96356 8.33591 9.33577 8.83448 9.65476L9.40024 8.84597C9.47373 8.7411 9.57875 8.6624 9.70003 8.62131C9.82131 8.58022 9.95254 8.57904 10.0746 8.61765Z" fill="#737F8C"/>
<path d="M7.9999 15.6C3.80934 15.6 0.399902 12.1906 0.399902 8.00002C0.399902 3.80946 3.80934 0.400024 7.9999 0.400024C12.1905 0.400024 15.5999 3.80946 15.5999 8.00002C15.5999 12.1906 12.1905 15.6 7.9999 15.6ZM7.9999 1.20002C4.2503 1.20002 1.1999 4.25042 1.1999 8.00002C1.1999 11.7496 4.2503 14.8 7.9999 14.8C11.7495 14.8 14.7999 11.7496 14.7999 8.00002C14.7999 4.25042 11.7495 1.20002 7.9999 1.20002Z" fill="#737F8C"/>
</g>
<defs>
<clipPath id="clip0_4411_2600">
<rect width="16" height="16" fill="white"/>
</clipPath>
</defs>
</svg>
