<svg width="16" height="16" viewBox="0 0 16 16" fill="none" xmlns="http://www.w3.org/2000/svg">
<path d="M14.4 7.4H8.6V1.6C8.59557 1.44227 8.53093 1.29222 8.41935 1.18065C8.30778 1.06907 8.15773 1.00443 8 1C7.84227 1.00443 7.69222 1.06907 7.58065 1.18065C7.46907 1.29222 7.40443 1.44227 7.4 1.6V7.4H1.6C1.44227 7.40443 1.29222 7.46907 1.18065 7.58065C1.06907 7.69222 1.00443 7.84227 1 8C1 8.3184 1.2816 8.6 1.6 8.6H7.4V14.4C7.4 14.7184 7.6816 15 8 15C8.3184 15 8.6 14.7184 8.6 14.4V8.6H14.4C14.7184 8.6 15 8.3184 15 8C14.9956 7.84227 14.9309 7.69222 14.8194 7.58065C14.7078 7.46907 14.5577 7.40443 14.4 7.4Z" fill="currentColor"/>
</svg>
