<svg width="24" height="24" viewBox="0 0 24 24" fill="none" xmlns="http://www.w3.org/2000/svg">
<path d="M12.0001 13.5332C12.7365 13.5332 13.3334 12.9363 13.3334 12.1999C13.3334 11.4635 12.7365 10.8666 12.0001 10.8666C11.2637 10.8666 10.6667 11.4635 10.6667 12.1999C10.6667 12.9363 11.2637 13.5332 12.0001 13.5332Z" fill="currentColor"/>
<path d="M6.66671 13.5332C7.40309 13.5332 8.00004 12.9363 8.00004 12.1999C8.00004 11.4635 7.40309 10.8666 6.66671 10.8666C5.93033 10.8666 5.33337 11.4635 5.33337 12.1999C5.33337 12.9363 5.93033 13.5332 6.66671 13.5332Z" fill="currentColor"/>
<path d="M17.3333 13.5332C18.0697 13.5332 18.6667 12.9363 18.6667 12.1999C18.6667 11.4635 18.0697 10.8666 17.3333 10.8666C16.597 10.8666 16 11.4635 16 12.1999C16 12.9363 16.597 13.5332 17.3333 13.5332Z" fill="currentColor"/>
</svg>
