<svg width="20" height="20" viewBox="0 0 20 20" fill="none" xmlns="http://www.w3.org/2000/svg">
<path d="M9.95943 9.66338C11.1771 9.66338 12.2313 9.22663 13.093 8.36495C13.9544 7.50346 14.3912 6.44934 14.3912 5.23156C14.3912 4.01415 13.9545 2.95992 13.0929 2.0981C12.2312 1.23672 11.1769 0.800003 9.95943 0.800003C8.74161 0.800003 7.68746 1.23672 6.82596 2.09825C5.96447 2.95977 5.52758 4.01404 5.52758 5.23156C5.52758 6.44934 5.96444 7.5036 6.826 8.36513C7.68778 9.22652 8.74204 9.66338 9.95939 9.66338H9.95943ZM7.58852 2.86066C8.24956 2.19959 9.02505 1.87827 9.95943 1.87827C10.8937 1.87827 11.6693 2.19959 12.3304 2.86066C12.9915 3.52184 13.313 4.29744 13.313 5.23153C13.313 6.1659 12.9915 6.9414 12.3304 7.60258C11.6693 8.26379 10.8937 8.58511 9.95943 8.58511C9.0253 8.58511 8.24988 8.26365 7.58852 7.60258C6.92731 6.94154 6.60585 6.16594 6.60585 5.23156C6.60585 4.29744 6.92731 3.52184 7.58852 2.86066ZM17.7139 14.9487C17.689 14.5902 17.6388 14.199 17.5648 13.7861C17.4901 13.37 17.394 12.9766 17.2789 12.6171C17.1598 12.2455 16.9983 11.8786 16.7982 11.5269C16.5908 11.1619 16.3472 10.8441 16.0737 10.5826C15.7877 10.309 15.4376 10.089 15.0328 9.92852C14.6293 9.76896 14.1822 9.6881 13.7039 9.6881C13.5161 9.6881 13.3345 9.76515 12.9836 9.99357C12.7343 10.156 12.4842 10.3172 12.2333 10.4773C11.9923 10.6309 11.6657 10.7748 11.2624 10.9051C10.8689 11.0324 10.4694 11.097 10.0749 11.097C9.68077 11.097 9.28121 11.0324 8.88745 10.9051C8.48459 10.7749 8.15792 10.631 7.91728 10.4774C7.63804 10.299 7.3854 10.1362 7.16626 9.99339C6.81572 9.76501 6.63406 9.68792 6.44625 9.68792C5.96781 9.68792 5.52086 9.76892 5.11753 9.9287C4.71295 10.0889 4.3627 10.3088 4.07646 10.5827C3.80301 10.8444 3.55932 11.162 3.3521 11.5269C3.15236 11.8786 2.99064 12.2454 2.87158 12.6173C2.75658 12.9768 2.66045 13.37 2.58577 13.7861C2.51163 14.1985 2.46154 14.5898 2.43667 14.9491C2.41223 15.3005 2.3999 15.6662 2.3999 16.0357C2.3999 16.9962 2.70523 17.7737 3.30732 18.3472C3.90198 18.9131 4.68869 19.2 5.64563 19.2H14.5054C15.462 19.2 16.2487 18.9131 16.8435 18.3472C17.4458 17.7741 17.7511 16.9963 17.7511 16.0355C17.751 15.6648 17.7385 15.2991 17.7139 14.9487ZM16.1001 17.566C15.7072 17.9399 15.1855 18.1217 14.5052 18.1217H5.64567C4.96526 18.1217 4.4436 17.9399 4.0508 17.5661C3.66548 17.1993 3.47821 16.6986 3.47821 16.0357C3.47821 15.6909 3.48956 15.3505 3.51235 15.0237C3.53449 14.703 3.57984 14.3508 3.64711 13.9766C3.71349 13.6069 3.79798 13.2601 3.8985 12.9461C3.99495 12.6449 4.12648 12.3468 4.2896 12.0595C4.44529 11.7858 4.6244 11.5509 4.82205 11.3617C5.00695 11.1847 5.24001 11.0398 5.51457 10.9312C5.7685 10.8306 6.05392 10.7756 6.36374 10.7673C6.40147 10.7874 6.46875 10.8257 6.57767 10.8968C6.79934 11.0412 7.05481 11.206 7.33728 11.3864C7.65569 11.5894 8.06584 11.7727 8.55592 11.9309C9.05693 12.0929 9.56792 12.1752 10.0751 12.1752C10.5823 12.1752 11.0934 12.0929 11.5942 11.9311C12.0847 11.7726 12.4947 11.5894 12.8135 11.3861C13.1026 11.2014 13.3509 11.0414 13.5725 10.8968C13.6815 10.8258 13.7487 10.7874 13.7865 10.7673C14.0965 10.7756 14.3819 10.8306 14.6359 10.9311C14.9104 11.0398 15.1434 11.1848 15.3283 11.3617C15.526 11.5508 15.7051 11.7857 15.8608 12.0597C16.024 12.3468 16.1557 12.6451 16.252 12.9459C16.3527 13.2604 16.4373 13.6071 16.5036 13.9764C16.5707 14.3514 16.6162 14.7038 16.6383 15.0238V15.0241C16.6612 15.3496 16.6727 15.6899 16.6729 16.0357C16.6727 16.6987 16.4855 17.1993 16.1001 17.566H16.1001Z" fill="#0081FF"/>
</svg>
