<svg width="20" height="20" viewBox="0 0 20 20" fill="none" xmlns="http://www.w3.org/2000/svg">
<g clip-path="url(#clip0_4411_2203)">
<path d="M18.3333 4.16667H14.1667V3.33331C14.1667 2.41413 13.4192 1.66663 12.5 1.66663H7.5C6.58082 1.66663 5.83332 2.41409 5.83332 3.33331V4.16663H1.66668C0.747461 4.16667 0 4.91413 0 5.83331V16.6666C0 17.5858 0.747461 18.3333 1.66668 18.3333H18.3334C19.2525 18.3333 20 17.5858 20 16.6666V5.83331C20 4.91413 19.2525 4.16667 18.3333 4.16667ZM6.66668 3.33331C6.66668 2.87393 7.04063 2.49999 7.5 2.49999H12.5C12.9594 2.49999 13.3333 2.87393 13.3333 3.33331V4.16663H6.66668V3.33331ZM19.1667 16.6667C19.1667 17.126 18.7927 17.5 18.3334 17.5H1.66668C1.2073 17.5 0.833359 17.126 0.833359 16.6667V10.6015C1.07949 10.7451 1.36176 10.8333 1.66668 10.8333H8.33336V12.0833C8.33332 12.1381 8.34408 12.1923 8.365 12.2428C8.38593 12.2934 8.41662 12.3394 8.45532 12.3781C8.49402 12.4168 8.53997 12.4475 8.59054 12.4684C8.64111 12.4893 8.69531 12.5001 8.75004 12.5H11.25C11.3048 12.5001 11.359 12.4893 11.4095 12.4684C11.4601 12.4475 11.5061 12.4168 11.5448 12.3781C11.5835 12.3394 11.6141 12.2934 11.6351 12.2428C11.656 12.1923 11.6668 12.1381 11.6667 12.0833V10.8333H18.3334C18.6383 10.8333 18.9206 10.7451 19.1667 10.6015V16.6667H19.1667ZM9.16668 11.6667V9.99999H10.8334V11.6667H9.16668ZM19.1667 9.16667C19.1667 9.62604 18.7927 9.99999 18.3334 9.99999H11.6667V9.58331C11.6667 9.52858 11.656 9.47438 11.635 9.42381C11.6141 9.37324 11.5834 9.32729 11.5447 9.28859C11.506 9.24989 11.4601 9.2192 11.4095 9.19827C11.3589 9.17734 11.3047 9.16659 11.25 9.16663H8.75C8.69527 9.16659 8.64107 9.17734 8.5905 9.19827C8.53993 9.2192 8.49398 9.24989 8.45528 9.28859C8.41658 9.32729 8.38589 9.37324 8.36496 9.42381C8.34404 9.47438 8.33328 9.52858 8.33332 9.58331V9.99999H1.66668C1.2073 9.99999 0.833359 9.62604 0.833359 9.16667V5.83334C0.833359 5.37397 1.2073 5.00002 1.66668 5.00002H18.3334C18.7927 5.00002 19.1667 5.37397 19.1667 5.83334V9.16667Z" fill="#1F1F1F"/>
</g>
<defs>
<clipPath id="clip0_4411_2203">
<rect width="20" height="20" fill="white"/>
</clipPath>
</defs>
</svg>
