<svg width="20" height="20" viewBox="0 0 20 20" fill="none" xmlns="http://www.w3.org/2000/svg">
<g clip-path="url(#clip0_4411_3189)">
<path d="M1.48128 9.5008C0.847844 8.15467 0.50707 6.68558 0.482144 5.19352C0.459017 4.53596 0.563812 3.88023 0.790521 3.26395C1.01723 2.64766 1.36139 2.08296 1.80325 1.60223C2.24511 1.12151 2.77599 0.73422 3.36541 0.462591C3.95483 0.190962 4.5912 0.0403385 5.23801 0.0193611C6.10826 -0.0642825 6.98287 0.124392 7.74474 0.560122C8.50661 0.995852 9.11937 1.65784 9.50098 2.45745V9.43308L1.48128 9.5008Z" fill="#D3D8DE"/>
<path d="M9.50028 20C6.614 17.1479 4.08991 13.9399 1.98682 10.4508H9.50028V20Z" fill="#ADB4C1"/>
<path d="M18.0272 10.4508C15.9154 13.9338 13.3922 17.1407 10.5137 20V10.4508H18.0272Z" fill="black"/>
<path d="M10.5 2.45859C10.8831 1.66021 11.4961 0.999327 12.2576 0.563815C13.0191 0.128302 13.893 -0.0612027 14.763 0.0205003C15.4068 0.0397765 16.0407 0.187884 16.6282 0.456357C17.2158 0.724831 17.7455 1.10841 18.1872 1.58516C18.6289 2.06191 18.9738 2.62249 19.2023 3.23486C19.4308 3.84723 19.5384 4.49937 19.5188 5.15402C19.4901 6.63691 19.1494 8.09636 18.5197 9.43422H10.5266L10.5 2.45859Z" fill="#737F8C"/>
</g>
<defs>
<clipPath id="clip0_4411_3189">
<rect width="20" height="20" fill="white"/>
</clipPath>
</defs>
</svg>
