<svg width="815" height="740" viewBox="0 0 815 740" fill="none" xmlns="http://www.w3.org/2000/svg">
<path fill-rule="evenodd" clip-rule="evenodd" d="M467.054 168.455V571.728C467.054 615.246 478.605 651.512 504.592 682.7L511.089 691.404C521.917 701.559 528.414 707.361 540.686 716.065C561.621 730.571 590.496 740 616.483 740C628.033 740 635.974 739.275 646.08 735.648C661.962 730.571 674.956 721.142 687.949 710.988C714.659 691.404 738.481 676.173 773.853 676.173V454.953C773.853 446.249 773.131 384.597 773.853 381.696H815V370.816H651.134V381.696H692.281C691.559 383.872 691.559 474.536 691.559 485.416V576.805C691.559 589.135 690.837 601.466 689.393 613.796C687.227 635.555 681.452 658.04 674.234 676.898C672.79 679.799 672.068 682.7 670.624 685.602C665.571 694.305 661.962 701.559 655.465 710.262C648.246 719.691 634.53 729.12 622.98 729.12C612.152 729.12 606.377 727.67 598.436 721.867C582.555 710.988 571.727 692.129 565.23 673.997C557.289 652.237 552.236 629.753 550.792 606.543C550.07 598.564 549.349 589.861 549.349 581.157V159.025C549.349 145.245 550.071 132.189 552.236 119.133C555.124 98.8247 560.177 80.6919 567.396 62.5591L572.449 52.4047C578.224 40.0744 587.608 29.9201 598.436 21.2163C601.324 19.0404 603.49 17.5898 607.099 16.1392C622.98 8.16072 642.471 10.3367 659.074 15.4138C671.346 19.7657 680.731 26.2935 690.115 34.2719C713.937 53.8554 732.706 90.1209 738.481 119.859C739.925 127.112 740.646 134.365 741.368 141.618C742.09 148.146 742.812 154.674 742.812 161.201C742.812 166.279 742.812 164.828 753.64 164.828V10.3367H742.812C742.812 12.5126 742.812 14.6885 742.812 17.5898C742.09 20.491 742.09 21.9417 741.368 24.1176C740.646 28.4695 738.481 32.8213 736.315 35.7226C731.984 42.9757 724.765 47.3275 716.103 47.3275C716.103 45.8769 711.771 41.525 710.328 40.0744C707.44 36.4479 703.109 31.3707 699.499 28.4695C695.89 26.2935 693.002 23.3923 689.393 20.491C684.34 16.8645 678.565 13.2379 672.79 11.062C665.571 8.16073 661.24 5.98478 652.577 3.80885C619.371 -4.16958 583.277 1.63292 555.846 15.4138C547.183 19.7657 538.52 24.8429 530.58 30.6454C524.805 34.9972 519.752 40.0744 514.698 45.1516L509.645 50.2288C503.148 57.4819 498.095 65.4603 492.32 73.4388C490.155 77.7906 487.267 82.1425 485.101 86.4944C482.936 90.8462 480.77 95.1981 479.326 100.275C471.386 120.584 467.054 140.893 467.054 168.455Z" fill="#D2DCE5"/>
<path fill-rule="evenodd" clip-rule="evenodd" d="M172.529 182.96L181.913 223.577C183.357 230.83 184.801 237.358 186.245 243.886C187.688 251.139 189.132 257.667 190.576 264.195C197.073 291.031 202.848 318.593 208.623 346.155C212.232 359.211 215.12 372.991 218.007 386.772L228.836 436.819C233.167 453.501 236.776 471.634 240.386 488.316L243.995 503.548C243.995 504.998 244.717 507.174 244.717 508.625H103.229L111.891 468.007C113.335 461.479 114.779 454.952 116.222 447.699C117.666 441.171 119.11 434.643 120.554 427.39C121.997 420.862 123.441 414.334 124.885 407.081L144.376 315.692C147.985 299.01 152.316 281.602 155.204 264.195L159.535 243.886C160.979 237.358 162.423 230.83 163.866 223.577C165.31 217.049 166.754 210.522 168.198 203.269C168.92 200.367 169.641 196.741 170.363 193.114C171.085 190.938 171.085 190.213 171.807 188.037C171.807 187.312 171.807 186.586 171.807 185.861L172.529 182.96ZM0 720.416V729.845H98.1755V718.965H59.1941L75.0754 644.258C77.9629 629.026 101.063 521.68 101.063 519.504H246.161C247.604 519.504 247.604 520.955 248.326 524.582L290.195 718.965H249.048V729.845H415.08C415.08 716.789 417.246 718.965 405.696 718.965H373.933L359.496 651.511C358.052 644.258 355.886 637.005 354.442 629.026C351.555 615.245 347.945 598.563 344.336 584.057C341.449 568.826 338.561 554.319 334.952 539.088L300.301 382.421C298.858 375.167 297.414 367.189 295.248 359.936C291.639 344.704 289.473 329.473 285.864 314.966C278.645 284.503 272.87 254.766 265.651 225.028L221.617 22.666C220.173 14.6876 218.729 7.43444 216.564 0.181328C212.232 0.181328 207.179 0.181328 202.126 0.181328C200.682 0.181328 200.682 -0.543984 199.96 0.906639C199.96 1.63195 199.238 3.08257 199.238 4.53319L144.376 264.195C143.654 268.547 142.932 272.173 142.21 276.525C140.766 280.152 140.766 284.503 139.323 288.13C138.601 292.482 137.879 296.834 137.157 300.46C134.991 308.439 133.548 316.417 132.104 325.121C128.494 341.078 124.885 357.035 121.276 372.991L111.169 421.587C108.282 437.544 104.672 454.226 101.063 470.183C96.7317 494.118 90.9567 518.779 85.9036 542.714C84.4598 550.693 82.2942 558.671 80.8504 566.65L75.7973 591.31C73.6316 599.289 72.9097 607.267 70.7441 615.245L65.6909 639.906C64.2472 645.709 57.0284 681.974 54.8628 687.051C53.419 692.128 49.8096 697.931 46.9221 701.558C46.2002 702.283 46.2002 702.283 45.4783 703.008C44.0346 704.459 44.0346 704.459 43.3127 705.184C36.8158 710.261 33.2064 712.437 24.5439 715.339C17.3251 718.24 10.1063 718.965 2.16563 718.965C0.721877 718.965 0 718.965 0 720.416Z" fill="#D2DCE5"/>
</svg>
