<svg width="20" height="20" viewBox="0 0 20 20" fill="none" xmlns="http://www.w3.org/2000/svg">
<g clip-path="url(#clip0_4411_3198)">
<path fill-rule="evenodd" clip-rule="evenodd" d="M9.4621 0.0139718C14.9767 -0.283389 19.6881 3.94657 19.9855 9.4612C20.2825 14.9758 16.0525 19.6872 10.5379 19.9842C8.93605 20.0706 7.40252 19.7743 6.02474 19.1764L6.02581 19.1778C3.91419 18.2546 1.97072 19.244 0 19.9871L2.34667 16.435C0.995805 14.8318 0.13629 12.7916 0.014868 10.537C-0.282493 5.02238 3.94747 0.310979 9.4621 0.0139718Z" fill="#737F8C"/>
<path d="M9.97384 17.15L9.9434 17.1823C9.93313 17.1932 9.92074 17.2024 9.90941 17.2123L10.063 17.1989C10.0446 17.1964 10.0266 17.1904 9.97384 17.15ZM10.1045 7.93397C9.87649 7.54032 9.61134 7.16897 9.33699 6.81462C8.7805 6.09494 8.13799 5.41136 7.3776 4.95965C6.59384 4.49379 5.69149 4.33343 4.861 4.7561C4.19194 5.09594 3.60678 5.74023 3.37349 6.51797C2.91966 8.03238 3.67722 9.68061 4.40257 10.9309C5.30598 12.4875 6.45578 13.8702 7.65336 15.1574C8.12348 15.6629 8.60598 16.1553 9.09981 16.6325C9.34868 16.8729 9.59612 17.1253 9.86127 17.3447C9.8726 17.3543 9.88357 17.3649 9.8949 17.3752C9.94871 17.4226 10.0471 17.4003 10.096 17.3575C10.741 16.7879 11.3544 16.1723 11.9541 15.5464C13.1599 14.2879 14.3153 12.9417 15.2697 11.4396C15.7264 10.721 16.1451 9.95921 16.4337 9.13864C16.6744 8.45329 16.8298 7.70847 16.7374 6.9718C16.6461 6.24326 16.2825 5.61633 15.7664 5.1586C15.0258 4.50158 14.0909 4.34263 13.1995 4.69698C12.3623 5.02975 11.6539 5.68146 11.0479 6.38345C10.6411 6.85427 10.2666 7.36509 9.94057 7.90707C9.97597 7.93645 10.0099 7.95238 10.0429 7.95238C10.0634 7.95238 10.0839 7.94601 10.1045 7.93397Z" fill="#FEFEFE"/>
</g>
<defs>
<clipPath id="clip0_4411_3198">
<rect width="20" height="20" fill="white"/>
</clipPath>
</defs>
</svg>
