<svg width="23" height="24" viewBox="0 0 23 24" fill="none" xmlns="http://www.w3.org/2000/svg">
<path d="M11.9968 24C5.36938 23.9982 -0.0017808 18.6242 4.4291e-07 11.9968C0.00178169 5.36943 5.3758 -0.0017808 12.0032 4.42906e-07C16.5294 0.00121919 20.6698 2.54906 22.7108 6.58897C23.0715 7.33475 22.7593 8.23175 22.0135 8.59241C21.2869 8.94383 20.4125 8.65728 20.0348 7.94394C17.7949 3.50671 12.382 1.72537 7.94473 3.96524C3.50746 6.20511 1.72612 11.618 3.96599 16.0553C6.20586 20.4925 11.6187 22.2739 16.056 20.034C17.766 19.1709 19.156 17.7846 20.0238 16.077C20.3996 15.3385 21.3029 15.0446 22.0413 15.4205C22.7797 15.7963 23.0736 16.6996 22.6978 17.438C20.6581 21.4723 16.5175 24.0114 11.9968 24Z" fill="white"/>
</svg>
