<svg width="390" height="40" viewBox="0 0 390 40" fill="none" xmlns="http://www.w3.org/2000/svg">
<g clip-path="url(#clip0_4411_1891)">
<path fill-rule="evenodd" clip-rule="evenodd" d="M18.8164 11.6477V22.3233C18.8164 23.4753 19.1268 24.4354 19.8251 25.261L19.9997 25.4914C20.2907 25.7602 20.4653 25.9138 20.7951 26.1442C21.3576 26.5282 22.1336 26.7778 22.8319 26.7778C23.1423 26.7778 23.3557 26.7586 23.6273 26.6626C24.054 26.5282 24.4032 26.2786 24.7524 26.0098C25.4701 25.4914 26.1103 25.0882 27.0608 25.0882V19.232C27.0608 19.0016 27.0414 17.3695 27.0608 17.2927H28.1666V17.0047H23.7631V17.2927H24.8688C24.8494 17.3503 24.8494 19.7504 24.8494 20.0384V22.4577C24.8494 22.7841 24.83 23.1105 24.7912 23.4369C24.733 24.0129 24.5778 24.6082 24.3838 25.1074C24.345 25.1842 24.3256 25.261 24.2868 25.3378C24.151 25.5682 24.054 25.7602 23.8795 25.9906C23.6855 26.2402 23.3169 26.4898 23.0065 26.4898C22.7155 26.4898 22.5603 26.4514 22.347 26.2978C21.9202 26.0098 21.6292 25.5106 21.4546 25.0306C21.2412 24.4546 21.1054 23.8593 21.0666 23.2449C21.0472 23.0337 21.0279 22.8033 21.0279 22.5729V11.3981C21.0279 11.0333 21.0473 10.6877 21.1054 10.342C21.183 9.80443 21.3188 9.32441 21.5128 8.84439L21.6486 8.57558C21.8038 8.24917 22.056 7.98036 22.347 7.74995C22.4246 7.69235 22.4828 7.65395 22.5797 7.61555C23.0065 7.40434 23.5303 7.46194 23.9764 7.59635C24.3062 7.71155 24.5584 7.88436 24.8106 8.09557C25.4507 8.61399 25.9551 9.57402 26.1103 10.3612C26.1491 10.5533 26.1685 10.7453 26.1879 10.9373C26.2073 11.1101 26.2267 11.2829 26.2267 11.4557C26.2267 11.5901 26.2267 11.5517 26.5177 11.5517V7.46194H26.2267C26.2267 7.51955 26.2267 7.57715 26.2267 7.65395C26.2073 7.73075 26.2073 7.76915 26.1879 7.82676C26.1685 7.94196 26.1103 8.05717 26.0521 8.13397C25.9357 8.32597 25.7417 8.44118 25.5089 8.44118C25.5089 8.40278 25.3925 8.28757 25.3537 8.24917C25.2762 8.15317 25.1598 8.01876 25.0628 7.94196C24.9658 7.88436 24.8882 7.80756 24.7912 7.73075C24.6554 7.63475 24.5002 7.53875 24.345 7.48114C24.151 7.40434 24.0346 7.34674 23.8019 7.28914C22.9095 7.07793 21.9396 7.23154 21.2024 7.59635C20.9697 7.71155 20.7369 7.84596 20.5235 7.99956C20.3683 8.11477 20.2325 8.24917 20.0967 8.38358L19.9609 8.51798C19.7863 8.70999 19.6505 8.9212 19.4954 9.1324C19.4372 9.24761 19.3596 9.36281 19.3014 9.47802C19.2432 9.59322 19.185 9.70842 19.1462 9.84283C18.9328 10.3804 18.8164 10.9181 18.8164 11.6477Z" fill="#2B2A29"/>
<path fill-rule="evenodd" clip-rule="evenodd" d="M10.9019 12.0317L11.1541 13.107C11.1929 13.299 11.2317 13.4718 11.2705 13.6446C11.3093 13.8366 11.3481 14.0094 11.3869 14.1822C11.5615 14.8926 11.7166 15.6222 11.8718 16.3519C11.9688 16.6975 12.0464 17.0623 12.124 17.4271L12.415 18.752C12.5314 19.1936 12.6284 19.6736 12.7254 20.1152L12.8224 20.5184C12.8224 20.5568 12.8418 20.6144 12.8418 20.6528H9.03963L9.27242 19.5776C9.31121 19.4048 9.35001 19.232 9.38881 19.04C9.4276 18.8672 9.4664 18.6944 9.5052 18.5023C9.544 18.3295 9.58279 18.1567 9.62159 17.9647L10.1454 15.5454C10.2423 15.1038 10.3587 14.643 10.4363 14.1822L10.5527 13.6446C10.5915 13.4718 10.6303 13.299 10.6691 13.107C10.7079 12.9341 10.7467 12.7613 10.7855 12.5693C10.8049 12.4925 10.8243 12.3965 10.8437 12.3005C10.8631 12.2429 10.8631 12.2237 10.8825 12.1661C10.8825 12.1469 10.8825 12.1277 10.8825 12.1085L10.9019 12.0317ZM6.26562 26.2594V26.509H8.90384V26.221H7.85631L8.28308 24.2434C8.36068 23.8401 8.98144 20.9984 8.98144 20.9408H12.8806C12.9194 20.9408 12.9194 20.9792 12.9388 21.0752L14.0639 26.221H12.9582V26.509H17.4198C17.4198 26.1634 17.478 26.221 17.1677 26.221H16.3141L15.9261 24.4354C15.8874 24.2434 15.8292 24.0513 15.7904 23.8401C15.7128 23.4753 15.6158 23.0337 15.5188 22.6497C15.4412 22.2465 15.3636 21.8625 15.2666 21.4593L14.3355 17.3119C14.2967 17.1199 14.2579 16.9087 14.1997 16.7167C14.1027 16.3135 14.0445 15.9103 13.9475 15.5262C13.7535 14.7198 13.5983 13.9326 13.4043 13.1454L12.221 7.78836C12.1822 7.57715 12.1434 7.38514 12.0852 7.19314C11.9688 7.19314 11.833 7.19314 11.6972 7.19314C11.6584 7.19314 11.6584 7.17393 11.639 7.21234C11.639 7.23154 11.6197 7.26994 11.6197 7.30834L10.1454 14.1822C10.126 14.2974 10.1066 14.3934 10.0872 14.5086C10.0484 14.6046 10.0484 14.7198 10.0096 14.8158C9.99016 14.931 9.97077 15.0462 9.95137 15.1422C9.89317 15.3534 9.85437 15.5646 9.81558 15.795C9.71858 16.2175 9.62159 16.6399 9.5246 17.0623L9.25302 18.3487C9.17542 18.7712 9.07843 19.2128 8.98144 19.6352C8.86504 20.2688 8.70985 20.9216 8.57406 21.5553C8.53527 21.7665 8.47707 21.9777 8.43827 22.1889L8.30248 22.8417C8.24429 23.0529 8.22489 23.2641 8.16669 23.4753L8.0309 24.1282C7.9921 24.2818 7.79812 25.2418 7.73992 25.3762C7.70112 25.5106 7.60413 25.6642 7.52654 25.7602C7.50714 25.7794 7.50714 25.7794 7.48774 25.7986C7.44894 25.837 7.44894 25.837 7.42954 25.8562C7.25496 25.9906 7.15796 26.0482 6.92518 26.125C6.73119 26.2018 6.53721 26.221 6.32382 26.221C6.28502 26.221 6.26562 26.221 6.26562 26.2594Z" fill="#2B2A29"/>
<path fill-rule="evenodd" clip-rule="evenodd" d="M0.0385742 0.0888765V35.2838C0.0385742 35.303 0.0385742 35.303 0.0773715 35.303H37.1676V34.4005H36.8766V35.0149H0.329554V0.338486H36.8766V26.4514H37.1676V0.0504751H0.0773715C0.0385742 0.0504751 0.0385742 0.0504751 0.0385742 0.0888765Z" fill="#2B2A29" stroke="#2B2A29" stroke-width="2.258" stroke-miterlimit="22.9256"/>
<path fill-rule="evenodd" clip-rule="evenodd" d="M33.9282 28.8131C33.9282 29.2547 34.0252 29.6964 34.1998 30.0804C34.1998 30.0996 34.2386 30.1956 34.2774 30.1956H36.7798C36.7992 30.1956 36.7992 30.1956 36.7992 30.1764V28.0643C36.7992 27.9683 36.5276 27.6611 36.3919 27.5459C36.3725 27.5267 36.3337 27.5075 36.3143 27.4883C36.0233 27.2963 35.5189 27.2195 35.1115 27.3155C35.0727 27.3347 35.0145 27.3347 34.9758 27.3539C34.8206 27.4115 34.7236 27.4691 34.5878 27.5459C34.1998 27.8147 33.9282 28.3331 33.9282 28.8131Z" fill="#FFDD00"/>
<path fill-rule="evenodd" clip-rule="evenodd" d="M37.1094 28.0643V30.1764C37.1094 30.1956 37.1094 30.1956 37.1482 30.1956H39.6506C39.6894 30.1956 39.7088 30.1188 39.7282 30.0804C40.0386 29.3315 40.155 28.5443 39.6506 27.8531C39.5342 27.6995 39.282 27.4883 39.1074 27.4115C39.0104 27.3731 38.9522 27.3539 38.8165 27.3155C38.3897 27.2195 37.8271 27.2963 37.5361 27.5267C37.3616 27.6803 37.284 27.7763 37.1482 27.9683C37.1288 27.9875 37.1094 28.0259 37.1094 28.0643Z" fill="#008DD2"/>
<path fill-rule="evenodd" clip-rule="evenodd" d="M37.1094 33.4597C37.1676 33.4597 37.1482 33.4405 37.2064 33.3829L37.7301 32.8261C37.7301 32.8069 37.7495 32.7877 37.7689 32.7877L38.4673 31.9812C38.6613 31.7508 38.8165 31.5588 38.991 31.3284C39.0686 31.2132 39.4954 30.618 39.5148 30.5028H37.1094V33.4597Z" fill="#E31E24"/>
<path fill-rule="evenodd" clip-rule="evenodd" d="M36.7991 33.4597V30.6372C36.7991 30.5988 36.8185 30.5796 36.7991 30.5604C36.7991 30.5028 36.7991 30.5028 36.7603 30.5028H34.4131C34.4131 30.618 34.9562 31.386 35.0726 31.5204L36.062 32.6917C36.1784 32.8069 36.2754 32.9221 36.3917 33.0373C36.4305 33.0757 36.4305 33.0949 36.4693 33.1333L36.5857 33.2485C36.6051 33.2677 36.6245 33.2869 36.6245 33.3061C36.6827 33.3637 36.7797 33.4597 36.7991 33.4597Z" fill="#67B437"/>
<path fill-rule="evenodd" clip-rule="evenodd" d="M28.5354 37.3382H29.001V39.4887H28.3026C28.419 39.2775 28.4384 38.8743 28.4578 38.6055C28.4772 38.5671 28.4772 38.5095 28.4772 38.4711L28.5354 37.3382ZM28.128 39.4887C27.9728 39.4887 28.0116 39.4119 28.0116 39.9879H28.1862V39.6423H29.1756V39.9879H29.3501V39.4887H29.1756V37.1654H28.3802C28.3802 37.3958 28.3608 37.5878 28.3608 37.7798C28.3608 37.8375 28.3414 37.8759 28.3414 37.9335C28.3414 38.0295 28.322 38.2983 28.322 38.3943L28.3026 38.7015C28.2832 38.8359 28.2638 39.1239 28.225 39.2583C28.2056 39.3543 28.1668 39.4119 28.128 39.4887Z" fill="#2B2A29"/>
<path fill-rule="evenodd" clip-rule="evenodd" d="M29.9707 39.6423C30.1453 39.6423 30.1065 39.6999 30.2035 39.4119C30.2229 39.3735 30.2229 39.3351 30.2423 39.2967C30.2617 39.2583 30.2811 39.2199 30.2811 39.1815C30.3005 39.1239 30.3199 39.0855 30.3393 39.0471C30.3393 39.0087 30.3587 38.9703 30.3781 38.9319L30.5527 38.4327C30.5721 38.3559 30.6109 38.2791 30.6303 38.2023C30.6691 38.1063 30.6885 38.0295 30.7273 37.9527L30.8048 37.7222L30.8242 37.703V39.6423H30.9988V37.1654H30.8436C30.8242 37.2614 30.7466 37.4342 30.7079 37.5302C30.6885 37.5878 30.6885 37.607 30.6691 37.6646C30.6497 37.703 30.6497 37.7414 30.6303 37.7798L30.1453 39.1239V37.1654H29.9707V39.6423Z" fill="#2B2A29"/>
<path fill-rule="evenodd" clip-rule="evenodd" d="M24.9466 39.1047V37.703C24.9466 37.511 25.063 37.2998 25.2763 37.2998H25.3345C25.5285 37.2998 25.6449 37.511 25.6449 37.703V39.1047C25.6449 39.3159 25.5285 39.5271 25.3539 39.5271H25.2763C25.063 39.5271 24.9466 39.3159 24.9466 39.1047ZM24.772 37.7414V39.0855C24.772 39.8727 25.8195 39.8727 25.8195 39.0855V37.7414C25.8195 36.935 24.772 36.935 24.772 37.7414Z" fill="#2B2A29"/>
<path fill-rule="evenodd" clip-rule="evenodd" d="M4.65527 37.2038V39.6231C4.65527 39.6615 4.71347 39.6423 4.82986 39.6423V37.3382H5.43122V39.6231C5.43122 39.6615 5.48942 39.6423 5.60581 39.6423V37.1654H4.67467C4.65527 37.1654 4.65527 37.1846 4.65527 37.2038Z" fill="#2B2A29"/>
<path fill-rule="evenodd" clip-rule="evenodd" d="M20.2324 39.6423C20.3488 39.6423 20.407 39.6615 20.407 39.6231V37.3382H21.0084V39.6423C21.1248 39.6423 21.183 39.6615 21.183 39.6231V37.2038C21.183 37.1846 21.1636 37.1654 21.1442 37.1654H20.2324V39.6423Z" fill="#2B2A29"/>
<path fill-rule="evenodd" clip-rule="evenodd" d="M31.8135 39.6423H31.9881V38.4327H32.6088V39.6231C32.6088 39.6615 32.667 39.6423 32.7834 39.6423V37.1654C32.667 37.1654 32.6088 37.1654 32.6088 37.2038V38.2791H31.9881V37.1654H31.8135V39.6423Z" fill="#2B2A29"/>
<path fill-rule="evenodd" clip-rule="evenodd" d="M18.4478 39.6423H18.6223V37.3382H19.2237V39.6423H19.3983V37.1654H18.4478V39.6423Z" fill="#2B2A29"/>
<path fill-rule="evenodd" clip-rule="evenodd" d="M26.3625 39.4887H26.3237V39.6423C26.5565 39.6423 26.6535 39.4887 26.6923 39.2967C26.7505 39.0279 26.7505 38.6439 26.7893 38.3367C26.7893 38.2983 26.8087 38.2215 26.8087 38.1831C26.8087 38.1447 26.8087 38.1255 26.8087 38.0871C26.8087 38.0487 26.8087 38.0487 26.8087 38.0103L26.8475 37.3382H27.2937V39.6231C27.2937 39.6615 27.3519 39.6423 27.4683 39.6423V37.1654H26.6923C26.6923 37.2998 26.6729 37.3766 26.6729 37.4918C26.6729 37.5494 26.6729 37.5878 26.6729 37.6454C26.6535 37.703 26.6729 37.7414 26.6535 37.7991C26.6535 37.8951 26.6535 38.2599 26.6341 38.4327C26.5953 38.6247 26.5953 38.8359 26.5759 39.0279C26.5565 39.1815 26.5177 39.4887 26.3625 39.4887Z" fill="#2B2A29"/>
<path fill-rule="evenodd" clip-rule="evenodd" d="M9.38867 39.6423H9.56326V38.3943C9.85424 38.3943 9.79604 38.3559 9.85424 38.5479C9.87364 38.6055 9.89304 38.6439 9.89304 38.7015L10.1452 39.4887C10.1646 39.5271 10.184 39.5847 10.2034 39.6423H10.3974L9.99003 38.4135C9.97063 38.3367 9.95123 38.3367 9.97063 38.2599C9.99003 38.2215 10.0094 38.1639 10.0288 38.1063C10.0482 38.0103 10.3198 37.223 10.3198 37.1654C10.087 37.1654 10.1452 37.1462 10.1064 37.2998L9.81544 38.2599H9.56326V37.1654H9.38867V39.6423Z" fill="#2B2A29"/>
<path fill-rule="evenodd" clip-rule="evenodd" d="M3.4721 37.5302L3.68548 38.6823C3.70488 38.7207 3.72428 38.7975 3.72428 38.8551H3.21991C3.21991 38.7783 3.33631 38.2983 3.33631 38.2023C3.3557 38.1255 3.4721 37.5878 3.4721 37.5302ZM2.89014 39.6423C3.14232 39.6423 3.04533 39.7191 3.14232 39.3351C3.16172 39.2199 3.18112 39.1047 3.20051 38.9895H3.74368L3.86007 39.5847C3.87947 39.6615 3.84067 39.6423 4.05406 39.6423L3.54969 37.1654H3.3945C3.31691 37.511 3.21991 38.0487 3.14232 38.4135C3.12292 38.4711 2.89014 39.5847 2.89014 39.6423Z" fill="#2B2A29"/>
<path fill-rule="evenodd" clip-rule="evenodd" d="M11.3676 37.5302C11.387 37.6262 11.4064 37.7414 11.4258 37.8566C11.4452 37.9527 11.4646 38.0679 11.484 38.1831C11.5034 38.2983 11.5228 38.4135 11.5422 38.5095C11.5616 38.5671 11.5616 38.6247 11.581 38.6823C11.581 38.7207 11.6004 38.7975 11.6004 38.8551H11.1154L11.1736 38.5287C11.2318 38.2215 11.29 37.8951 11.3482 37.607L11.3676 37.5302ZM10.7856 39.6423H10.9602C10.9796 39.5655 10.999 39.4695 11.0184 39.3735C11.0378 39.2775 11.0378 39.1815 11.0572 39.0855C11.0766 38.9703 11.0378 38.9895 11.3094 38.9895C11.4064 38.9895 11.5228 38.9895 11.6392 38.9895C11.6392 39.0855 11.7556 39.5655 11.7556 39.6423H11.9496L11.872 39.3351C11.8332 39.1047 11.4452 37.2614 11.4452 37.1654C11.2318 37.1654 11.29 37.127 11.2318 37.3574L10.8438 39.3159C10.8244 39.3735 10.8244 39.4119 10.805 39.4695C10.805 39.5271 10.7856 39.5847 10.7856 39.6423Z" fill="#2B2A29"/>
<path fill-rule="evenodd" clip-rule="evenodd" d="M23.1812 39.6423H23.3751C23.4139 39.5655 23.7049 38.5863 23.7437 38.5287C23.7437 38.6055 23.8019 38.7399 23.8213 38.8167L24.0929 39.6423H24.2869C24.2675 39.6039 24.2481 39.5271 24.2287 39.4887L23.8407 38.3367L24.2287 37.1654H24.0347C24.0347 37.2038 24.0153 37.2614 23.9959 37.2998L23.7437 38.1447V38.1255L23.7049 38.0295C23.6467 37.8375 23.4721 37.3382 23.4333 37.1654H23.2393C23.2587 37.223 23.2781 37.2806 23.2975 37.319C23.3169 37.3766 23.3363 37.415 23.3557 37.4726C23.3751 37.5878 23.4139 37.6838 23.4527 37.7991L23.6079 38.2599C23.6467 38.3367 23.6467 38.3175 23.6273 38.4135C23.5885 38.5095 23.5497 38.6055 23.5109 38.7207L23.1812 39.6423Z" fill="#2B2A29"/>
<path fill-rule="evenodd" clip-rule="evenodd" d="M15.7515 38.5095H15.4993V37.3382H15.7515C15.9067 37.3382 16.0425 37.4726 16.0425 37.607V38.2215C16.0425 38.3751 15.9067 38.5095 15.7515 38.5095ZM15.3247 37.2038V39.6231C15.3247 39.6615 15.3829 39.6423 15.4993 39.6423V38.6631C15.7127 38.6631 15.9067 38.6823 16.0619 38.5479C16.1394 38.4711 16.217 38.3559 16.217 38.2215V37.6262C16.217 37.4918 16.1394 37.3766 16.0813 37.2998C16.0231 37.2614 16.0037 37.2422 15.9455 37.223C15.7709 37.1462 15.5575 37.1654 15.3441 37.1654C15.3247 37.1654 15.3247 37.1846 15.3247 37.2038Z" fill="#2B2A29"/>
<path fill-rule="evenodd" clip-rule="evenodd" d="M17.0125 39.6423C17.2453 39.6423 17.1871 39.6807 17.2259 39.5079L17.6915 37.799C17.7109 37.703 17.7303 37.607 17.7691 37.4918C17.7885 37.4342 17.8467 37.223 17.8467 37.1654C17.6139 37.1654 17.6721 37.1462 17.6139 37.3382C17.5169 37.7414 17.4199 38.1831 17.3035 38.5671V38.6055C17.3035 38.6055 17.3035 38.6055 17.2841 38.6055L16.8961 37.1654H16.7021L17.1677 38.7015C17.2065 38.8743 17.2259 38.8359 17.1871 39.0087C17.1677 39.0663 17.0125 39.6039 17.0125 39.6423Z" fill="#2B2A29"/>
<path fill-rule="evenodd" clip-rule="evenodd" d="M7.81738 39.6423H8.65152V39.4887H7.99197V38.4327H8.49634V38.2791H7.99197V37.3382H8.61273C8.65152 37.3382 8.65152 37.2998 8.65152 37.2038C8.65152 37.1846 8.63213 37.1654 8.61273 37.1654H7.81738V39.6423Z" fill="#2B2A29"/>
<path fill-rule="evenodd" clip-rule="evenodd" d="M6.22656 37.3382H6.63393V39.6423C6.75033 39.6423 6.80852 39.6615 6.80852 39.6231V37.3382H7.19649C7.23529 37.3382 7.21589 37.2998 7.21589 37.2038C7.21589 37.1846 7.21589 37.1654 7.19649 37.1654H6.22656V37.3382Z" fill="#2B2A29"/>
<path fill-rule="evenodd" clip-rule="evenodd" d="M13.9473 37.2038V39.6231C13.9473 39.6615 14.0055 39.6423 14.1219 39.6423V37.3382H14.7038C14.7426 37.3382 14.7232 37.2806 14.7232 37.1654H13.9861C13.9473 37.1654 13.9473 37.1846 13.9473 37.2038Z" fill="#2B2A29"/>
<path fill-rule="evenodd" clip-rule="evenodd" d="M35.1309 38.4903H37.1677V38.2407H35.1309V38.4903Z" fill="#2B2A29"/>
<path fill-rule="evenodd" clip-rule="evenodd" d="M33.6177 39.6423H33.7729V37.3382H34.3548C34.3742 37.3382 34.3742 37.319 34.3742 37.2998V37.1654H33.6177V39.6423Z" fill="#2B2A29"/>
<path fill-rule="evenodd" clip-rule="evenodd" d="M0.0385742 38.2791V38.4903H1.99784V38.2407H0.0773715C0.0385742 38.2407 0.0385742 38.2599 0.0385742 38.2791Z" fill="#2B2A29"/>
</g>
<path d="M64.224 21.498H62.904V29H61.54V13.776H62.904V20.266H64.268L66.116 13.776H67.59L65.346 20.86L68.03 29H66.512L64.224 21.498ZM69.2441 17.296C69.2441 16.1667 69.5521 15.272 70.1681 14.612C70.7988 13.9373 71.5981 13.6 72.5661 13.6C73.5341 13.6 74.3261 13.9373 74.9421 14.612C75.5728 15.272 75.8881 16.1667 75.8881 17.296V25.48C75.8881 26.6093 75.5728 27.5113 74.9421 28.186C74.3261 28.846 73.5341 29.176 72.5661 29.176C71.5981 29.176 70.7988 28.846 70.1681 28.186C69.5521 27.5113 69.2441 26.6093 69.2441 25.48V17.296ZM70.6081 25.414C70.6081 26.2207 70.7915 26.844 71.1581 27.284C71.5248 27.724 71.9941 27.944 72.5661 27.944C73.1381 27.944 73.6075 27.724 73.9741 27.284C74.3408 26.844 74.5241 26.2207 74.5241 25.414V17.362C74.5241 16.5553 74.3408 15.932 73.9741 15.492C73.6075 15.052 73.1381 14.832 72.5661 14.832C71.9941 14.832 71.5248 15.052 71.1581 15.492C70.7915 15.932 70.6081 16.5553 70.6081 17.362V25.414ZM78.5986 13.776H81.2606C82.1846 13.776 82.9326 14.0693 83.5046 14.656C84.0766 15.228 84.3626 15.976 84.3626 16.9V19.958C84.3626 20.882 84.0766 21.6373 83.5046 22.224C82.9326 22.796 82.1846 23.082 81.2606 23.082H79.9626V29H78.5986V13.776ZM81.1946 21.85C81.7373 21.85 82.1699 21.6813 82.4926 21.344C82.8299 21.0067 82.9986 20.5227 82.9986 19.892V16.966C82.9986 16.3353 82.8299 15.8513 82.4926 15.514C82.1699 15.1767 81.7373 15.008 81.1946 15.008H79.9626V21.85H81.1946ZM92.9216 29H91.5576V15.008H88.1696V29H86.8056V13.776H92.9216V29ZM95.6269 17.296C95.6269 16.1667 95.9349 15.272 96.5509 14.612C97.1816 13.9373 97.9809 13.6 98.9489 13.6C99.9169 13.6 100.709 13.9373 101.325 14.612C101.956 15.272 102.271 16.1667 102.271 17.296V25.48C102.271 26.6093 101.956 27.5113 101.325 28.186C100.709 28.846 99.9169 29.176 98.9489 29.176C97.9809 29.176 97.1816 28.846 96.5509 28.186C95.9349 27.5113 95.6269 26.6093 95.6269 25.48V17.296ZM96.9909 25.414C96.9909 26.2207 97.1743 26.844 97.5409 27.284C97.9076 27.724 98.3769 27.944 98.9489 27.944C99.5209 27.944 99.9903 27.724 100.357 27.284C100.724 26.844 100.907 26.2207 100.907 25.414V17.362C100.907 16.5553 100.724 15.932 100.357 15.492C99.9903 15.052 99.5209 14.832 98.9489 14.832C98.3769 14.832 97.9076 15.052 97.5409 15.492C97.1743 15.932 96.9909 16.5553 96.9909 17.362V25.414ZM104.981 13.776H107.643C108.567 13.776 109.315 14.0693 109.887 14.656C110.459 15.228 110.745 15.976 110.745 16.9V19.958C110.745 20.882 110.459 21.6373 109.887 22.224C109.315 22.796 108.567 23.082 107.643 23.082H106.345V29H104.981V13.776ZM107.577 21.85C108.12 21.85 108.553 21.6813 108.875 21.344C109.213 21.0067 109.381 20.5227 109.381 19.892V16.966C109.381 16.3353 109.213 15.8513 108.875 15.514C108.553 15.1767 108.12 15.008 107.577 15.008H106.345V21.85H107.577ZM114.411 13.776H115.687L118.767 29H117.315L116.633 25.15H113.465L112.783 29H111.331L114.411 13.776ZM116.413 23.918L115.049 16.262L113.685 23.918H116.413ZM118.574 13.776H124.998V15.008H122.468V29H121.104V15.008H118.574V13.776ZM133.409 13.776V29H132.045V17.736L128.085 29H126.853V13.776H128.216V25.04L132.177 13.776H133.409ZM141.031 20.948C141.53 21.168 141.918 21.5127 142.197 21.982C142.476 22.4367 142.615 22.9793 142.615 23.61V25.876C142.615 26.8 142.329 27.5553 141.757 28.142C141.185 28.714 140.437 29 139.513 29H136.499V13.776H139.183C140.107 13.776 140.855 14.0693 141.427 14.656C141.999 15.228 142.285 15.976 142.285 16.9V18.594C142.285 19.694 141.867 20.4787 141.031 20.948ZM137.863 15.008V20.486H139.117C139.66 20.486 140.092 20.3173 140.415 19.98C140.752 19.6427 140.921 19.1587 140.921 18.528V16.966C140.921 16.3353 140.752 15.8513 140.415 15.514C140.092 15.1767 139.66 15.008 139.117 15.008H137.863ZM141.251 23.676C141.251 23.0453 141.082 22.5613 140.745 22.224C140.422 21.8867 139.99 21.718 139.447 21.718H137.863V27.768H139.447C139.99 27.768 140.422 27.5993 140.745 27.262C141.082 26.9247 141.251 26.4407 141.251 25.81V23.676ZM145.114 13.776H146.478V20.442H149.998V13.776H151.362V29H149.998V21.674H146.478V29H145.114V13.776ZM157.188 19.672C158.112 19.672 158.86 19.9653 159.432 20.552C160.004 21.124 160.29 21.872 160.29 22.796V25.876C160.29 26.8 160.004 27.5553 159.432 28.142C158.86 28.714 158.112 29 157.188 29H154.438V13.776H155.802V19.672H157.188ZM163.282 13.776V29H161.918V13.776H163.282ZM158.926 22.862C158.926 22.2313 158.758 21.7473 158.42 21.41C158.098 21.0727 157.665 20.904 157.122 20.904H155.802V27.768H157.122C157.665 27.768 158.098 27.5993 158.42 27.262C158.758 26.9247 158.926 26.4407 158.926 25.81V22.862ZM172.918 13.776V29H171.554V17.736L167.594 29H166.362V13.776H167.726V25.04L171.686 13.776H172.918ZM169.64 12.764C168.995 12.764 168.46 12.588 168.034 12.236C167.624 11.8693 167.418 11.4073 167.418 10.85H168.562C168.562 11.1287 168.658 11.356 168.848 11.532C169.054 11.6933 169.318 11.774 169.64 11.774C169.963 11.774 170.22 11.6933 170.41 11.532C170.616 11.356 170.718 11.1287 170.718 10.85H171.862C171.862 11.4073 171.65 11.8693 171.224 12.236C170.814 12.588 170.286 12.764 169.64 12.764ZM183.978 17.362C183.978 16.5407 183.817 15.9173 183.494 15.492C183.172 15.052 182.754 14.832 182.24 14.832C181.712 14.832 181.28 15.052 180.942 15.492C180.605 15.9173 180.436 16.5407 180.436 17.362V25.414C180.436 26.2353 180.605 26.866 180.942 27.306C181.28 27.7313 181.712 27.944 182.24 27.944C182.768 27.944 183.201 27.7313 183.538 27.306C183.876 26.866 184.044 26.2353 184.044 25.414V24.358H185.408V25.48C185.408 26.6093 185.115 27.5113 184.528 28.186C183.942 28.846 183.179 29.176 182.24 29.176C181.302 29.176 180.539 28.846 179.952 28.186C179.366 27.5113 179.072 26.6093 179.072 25.48V17.296C179.072 16.1667 179.366 15.272 179.952 14.612C180.539 13.9373 181.302 13.6 182.24 13.6C183.164 13.6 183.912 13.9373 184.484 14.612C185.056 15.272 185.342 16.1667 185.342 17.296V18.198H183.978V17.362ZM189.456 13.776H190.732L193.812 29H192.36L191.678 25.15H188.51L187.828 29H186.376L189.456 13.776ZM191.458 23.918L190.094 16.262L188.73 23.918H191.458ZM202.116 13.776V29H200.752V17.736L196.792 29H195.56V13.776H196.924V25.04L200.884 13.776H202.116ZM198.838 12.764C198.192 12.764 197.657 12.588 197.232 12.236C196.821 11.8693 196.616 11.4073 196.616 10.85H197.76C197.76 11.1287 197.855 11.356 198.046 11.532C198.251 11.6933 198.515 11.774 198.838 11.774C199.16 11.774 199.417 11.6933 199.608 11.532C199.813 11.356 199.916 11.1287 199.916 10.85H201.06C201.06 11.4073 200.847 11.8693 200.422 12.236C200.011 12.588 199.483 12.764 198.838 12.764ZM203.974 13.776H210.398V15.008H207.868V29H206.504V15.008H203.974V13.776ZM219.792 29L217.636 22.356L215.502 29H213.962L216.822 20.97L214.336 13.776H215.854L217.636 19.54L219.462 13.776H220.98L218.428 20.97L221.31 29H219.792ZM222.514 17.296C222.514 16.1667 222.822 15.272 223.438 14.612C224.068 13.9373 224.868 13.6 225.836 13.6C226.804 13.6 227.596 13.9373 228.212 14.612C228.842 15.272 229.158 16.1667 229.158 17.296V25.48C229.158 26.6093 228.842 27.5113 228.212 28.186C227.596 28.846 226.804 29.176 225.836 29.176C224.868 29.176 224.068 28.846 223.438 28.186C222.822 27.5113 222.514 26.6093 222.514 25.48V17.296ZM223.878 25.414C223.878 26.2207 224.061 26.844 224.428 27.284C224.794 27.724 225.264 27.944 225.836 27.944C226.408 27.944 226.877 27.724 227.244 27.284C227.61 26.844 227.794 26.2207 227.794 25.414V17.362C227.794 16.5553 227.61 15.932 227.244 15.492C226.877 15.052 226.408 14.832 225.836 14.832C225.264 14.832 224.794 15.052 224.428 15.492C224.061 15.932 223.878 16.5553 223.878 17.362V25.414ZM237.573 29H236.209V15.008H233.789C233.686 17.1933 233.554 19.3493 233.393 21.476C233.246 23.6027 233.107 25.0913 232.975 25.942C232.813 27.0273 232.527 27.812 232.117 28.296C231.706 28.7653 231.112 29 230.335 29V27.768C230.716 27.768 231.017 27.6067 231.237 27.284C231.457 26.9613 231.618 26.426 231.721 25.678C231.897 24.5047 232.065 22.73 232.227 20.354C232.388 17.978 232.483 15.7853 232.513 13.776H237.573V29ZM247.607 27.768V31.178H246.243V29H240.479V31.178H239.115V27.768H239.819C240.171 27.328 240.413 26.6313 240.545 25.678C240.721 24.5047 240.89 22.73 241.051 20.354C241.213 17.978 241.308 15.7853 241.337 13.776H246.573V27.768H247.607ZM245.209 27.768V15.008H242.613C242.511 17.1933 242.379 19.3493 242.217 21.476C242.071 23.6027 241.931 25.0913 241.799 25.942C241.697 26.69 241.521 27.2987 241.271 27.768H245.209ZM256.127 13.776V29H254.763V17.736L250.803 29H249.571V13.776H250.935V25.04L254.895 13.776H256.127ZM259.218 13.776H260.582V20.442H264.102V13.776H265.466V29H264.102V21.674H260.582V29H259.218V13.776ZM268.542 13.776H273.558V15.008H269.906V29H268.542V13.776ZM276.059 13.776H277.335L280.415 29H278.963L278.281 25.15H275.113L274.431 29H272.979L276.059 13.776ZM278.061 23.918L276.697 16.262L275.333 23.918H278.061ZM284.728 18.66V17.428L285.63 13.776H286.378L285.784 16.768H286.488V18.66H284.728ZM287.852 18.66V17.428L288.754 13.776H289.502L288.908 16.768H289.612V18.66H287.852ZM293.655 13.776H294.931L298.011 29H296.559L295.877 25.15H292.709L292.027 29H290.575L293.655 13.776ZM295.657 23.918L294.293 16.262L292.929 23.918H295.657ZM305.875 29H304.511V15.008H301.123V29H299.759V13.776H305.875V29ZM307.722 13.776H314.146V15.008H311.616V29H310.252V15.008H307.722V13.776ZM316.001 13.776H321.325V15.008H317.365V20.442H320.445V21.674H317.365V27.768H321.435V29H316.001V13.776ZM326.613 21.498H325.293V29H323.929V13.776H325.293V20.266H326.657L328.505 13.776H329.979L327.735 20.86L330.419 29H328.901L326.613 21.498ZM333.874 13.776H335.15L338.23 29H336.778L336.096 25.15H332.928L332.246 29H330.794L333.874 13.776ZM335.876 23.918L334.512 16.262L333.148 23.918H335.876ZM343.114 13.776H348.13V15.008H344.478V29H343.114V13.776ZM349.903 13.776H352.565C353.489 13.776 354.237 14.0693 354.809 14.656C355.381 15.228 355.667 15.976 355.667 16.9V19.958C355.667 20.882 355.381 21.6373 354.809 22.224C354.237 22.796 353.489 23.082 352.565 23.082H351.267V29H349.903V13.776ZM352.499 21.85C353.042 21.85 353.475 21.6813 353.797 21.344C354.135 21.0067 354.303 20.5227 354.303 19.892V16.966C354.303 16.3353 354.135 15.8513 353.797 15.514C353.475 15.1767 353.042 15.008 352.499 15.008H351.267V21.85H352.499ZM363.986 13.776L360.004 29H358.574L359.806 24.292L356.682 13.776H358.134L360.466 22.114L362.556 13.776H363.986ZM371.832 29H370.468V15.008H367.08V29H365.716V13.776H371.832V29ZM381.027 29H379.663V15.008H376.275V29H374.911V13.776H381.027V29ZM385.47 13.776V15.008L384.568 18.66H383.82L384.414 15.668H383.71V13.776H385.47ZM388.594 13.776V15.008L387.692 18.66H386.944L387.538 15.668H386.834V13.776H388.594Z" fill="#0F1A24"/>
<defs>
<clipPath id="clip0_4411_1891">
<rect width="40" height="40" fill="white"/>
</clipPath>
</defs>
</svg>
