<svg width="118" height="120" viewBox="0 0 118 120" fill="none" xmlns="http://www.w3.org/2000/svg">
<g clip-path="url(#clip0_2613_5423)">
<path fill-rule="evenodd" clip-rule="evenodd" d="M55.5092 34.9431V66.9699C55.5092 70.426 56.4248 73.3061 58.485 75.783L59 76.4742C59.8584 77.2806 60.3734 77.7415 61.3463 78.4327C63.0058 79.5847 65.2949 80.3335 67.355 80.3335C68.2706 80.3335 68.9001 80.276 69.7013 79.9879C70.9602 79.5847 71.9903 78.8359 73.0204 78.0295C75.1377 76.4742 77.0262 75.2646 79.8303 75.2646V57.6959C79.8303 57.0047 79.773 52.1085 79.8303 51.8781H83.0922V51.0141H70.1018V51.8781H73.3637C73.3065 52.0509 73.3065 59.2512 73.3065 60.1152V67.3731C73.3065 68.3523 73.2493 69.3316 73.1348 70.3108C72.9631 72.0388 72.5053 73.8245 71.9331 75.3222C71.8186 75.5526 71.7614 75.783 71.647 76.0134C71.2464 76.7046 70.9602 77.2806 70.4452 77.9719C69.8729 78.7207 68.7856 79.4695 67.87 79.4695C67.0116 79.4695 66.5538 79.3543 65.9244 78.8935C64.6654 78.0295 63.807 76.5318 63.292 75.0918C62.6625 73.3637 62.2619 71.578 62.1474 69.7348C62.0902 69.1011 62.033 68.4099 62.033 67.7187V34.1943C62.033 33.0998 62.0902 32.063 62.2619 31.0262C62.4908 29.4133 62.8914 27.9732 63.4636 26.5332L63.8642 25.7268C64.322 24.7475 65.066 23.9411 65.9244 23.2499C66.1533 23.0771 66.3249 22.9619 66.6111 22.8467C67.87 22.213 69.4151 22.3858 70.7313 22.7891C71.7042 23.1347 72.4481 23.6531 73.1921 24.2867C75.0805 25.842 76.5684 28.7221 77.0262 31.0838C77.1406 31.6598 77.1979 32.2358 77.2551 32.8118C77.3123 33.3302 77.3696 33.8487 77.3696 34.3671C77.3696 34.7703 77.3695 34.6551 78.2279 34.6551V22.3858H77.3696C77.3696 22.5587 77.3696 22.7315 77.3696 22.9619C77.3123 23.1923 77.3123 23.3075 77.2551 23.4803C77.1979 23.8259 77.0262 24.1715 76.8545 24.4019C76.5112 24.9779 75.9389 25.3236 75.2522 25.3236C75.2522 25.2083 74.9088 24.8627 74.7944 24.7475C74.5655 24.4595 74.2221 24.0563 73.936 23.8259C73.6499 23.6531 73.421 23.4227 73.1348 23.1923C72.7342 22.9043 72.2764 22.6163 71.8186 22.4434C71.2464 22.213 70.903 22.0402 70.2163 21.8674C67.5839 21.2338 64.7226 21.6946 62.548 22.7891C61.8613 23.1347 61.1746 23.5379 60.5451 23.9987C60.0873 24.3443 59.6867 24.7475 59.2861 25.1507L58.8856 25.554C58.3705 26.13 57.9699 26.7636 57.5121 27.3972C57.3405 27.7428 57.1115 28.0885 56.9399 28.4341C56.7682 28.7797 56.5965 29.1253 56.4821 29.5285C55.8526 31.1414 55.5092 32.7542 55.5092 34.9431Z" fill="#2B2A29"/>
<path fill-rule="evenodd" clip-rule="evenodd" d="M32.161 36.0951L32.9049 39.3209C33.0194 39.8969 33.1339 40.4153 33.2483 40.9337C33.3628 41.5097 33.4772 42.0282 33.5917 42.5466C34.1067 44.6779 34.5645 46.8667 35.0223 49.0556C35.3084 50.0925 35.5373 51.1869 35.7662 52.2813L36.6246 56.2559C36.968 57.5807 37.2541 59.0208 37.5403 60.3456L37.8264 61.5553C37.8264 61.6705 37.8836 61.8433 37.8836 61.9585H26.6673L27.354 58.7328C27.4685 58.2143 27.5829 57.6959 27.6974 57.1199C27.8118 56.6015 27.9263 56.0831 28.0407 55.507C28.1552 54.9886 28.2696 54.4702 28.3841 53.8942L29.9292 46.6363C30.2153 45.3115 30.5587 43.929 30.7876 42.5466L31.1309 40.9337C31.2454 40.4153 31.3598 39.8969 31.4743 39.3209C31.5887 38.8024 31.7032 38.284 31.8177 37.708C31.8749 37.4776 31.9321 37.1896 31.9893 36.9016C32.0466 36.7288 32.0466 36.6712 32.1038 36.4984C32.1038 36.4408 32.1038 36.3832 32.1038 36.3256L32.161 36.0951ZM18.484 78.7783V79.5271H26.2667V78.6631H23.1765L24.4355 72.7301C24.6644 71.5204 26.4956 62.9953 26.4956 62.8225H37.9981C38.1125 62.8225 38.1125 62.9377 38.1697 63.2257L41.4888 78.6631H38.227V79.5271H51.3889C51.3889 78.4903 51.5606 78.6631 50.645 78.6631H48.1271L46.9825 73.3061C46.8681 72.7301 46.6964 72.1541 46.582 71.5204C46.3531 70.426 46.0669 69.1011 45.7808 67.9491C45.5519 66.7395 45.323 65.5874 45.0369 64.3778L42.29 51.9357C42.1756 51.3597 42.0611 50.7261 41.8894 50.1501C41.6033 48.9404 41.4316 47.7308 41.1455 46.5787C40.5732 44.1594 40.1154 41.7978 39.5432 39.4361L36.0524 23.3651C35.9379 22.7315 35.8235 22.1554 35.6518 21.5794C35.3084 21.5794 34.9079 21.5794 34.5073 21.5794C34.3928 21.5794 34.3928 21.5218 34.3356 21.637C34.3356 21.6946 34.2784 21.8098 34.2784 21.925L29.9292 42.5466C29.872 42.8922 29.8147 43.1802 29.7575 43.5258C29.6431 43.8138 29.6431 44.1594 29.5286 44.4474C29.4714 44.7931 29.4142 45.1387 29.3569 45.4267C29.1853 46.0603 29.0708 46.6939 28.9564 47.3852C28.6702 48.6524 28.3841 49.9196 28.098 51.1869L27.2968 55.0462C27.0679 56.3135 26.7818 57.6383 26.4956 58.9056C26.1523 60.8064 25.6945 62.7649 25.2939 64.6658C25.1794 65.2994 25.0078 65.933 24.8933 66.5667L24.4927 68.5251C24.321 69.1587 24.2638 69.7924 24.0921 70.426L23.6916 72.3845C23.5771 72.8453 23.0048 75.7254 22.8332 76.1286C22.7187 76.5318 22.4326 76.9926 22.2037 77.2806C22.1465 77.3382 22.1465 77.3382 22.0892 77.3958C21.9748 77.511 21.9748 77.511 21.9176 77.5686C21.4025 77.9719 21.1164 78.1447 20.4297 78.3751C19.8574 78.6055 19.2852 78.6631 18.6557 78.6631C18.5412 78.6631 18.484 78.6631 18.484 78.7783Z" fill="#2B2A29"/>
<path fill-rule="evenodd" clip-rule="evenodd" d="M0.114449 0.266632V105.851C0.114449 105.909 0.114449 105.909 0.228901 105.909H109.645V103.202H108.787V105.045H0.972839V1.01546H108.787V79.3543H109.645V0.151428H0.228901C0.114449 0.151428 0.114449 0.151428 0.114449 0.266632Z" fill="#2B2A29" stroke="#2B2A29" stroke-width="2.258" stroke-miterlimit="22.9256"/>
<path fill-rule="evenodd" clip-rule="evenodd" d="M100.088 86.4394C100.088 87.7642 100.374 89.0891 100.889 90.2411C100.889 90.2987 101.004 90.5867 101.118 90.5867H108.5C108.558 90.5867 108.558 90.5867 108.558 90.5291V84.1929C108.558 83.9049 107.757 82.9832 107.356 82.6376C107.299 82.58 107.184 82.5224 107.127 82.4648C106.269 81.8888 104.781 81.6584 103.579 81.9464C103.465 82.004 103.293 82.004 103.178 82.0616C102.721 82.2344 102.435 82.4072 102.034 82.6376C100.889 83.4441 100.088 84.9993 100.088 86.4394Z" fill="#FFDD00"/>
<path fill-rule="evenodd" clip-rule="evenodd" d="M109.473 84.1929V90.5291C109.473 90.5867 109.473 90.5867 109.588 90.5867H116.97C117.084 90.5867 117.142 90.3563 117.199 90.2411C118.114 87.9946 118.458 85.6329 116.97 83.5593C116.627 83.0985 115.883 82.4648 115.368 82.2344C115.081 82.1192 114.91 82.0616 114.509 81.9464C113.25 81.6584 111.591 81.8888 110.732 82.58C110.217 83.0408 109.988 83.3289 109.588 83.9049C109.531 83.9625 109.473 84.0777 109.473 84.1929Z" fill="#008DD2"/>
<path fill-rule="evenodd" clip-rule="evenodd" d="M109.473 100.379C109.645 100.379 109.588 100.321 109.759 100.149L111.305 98.4782C111.305 98.4206 111.362 98.363 111.419 98.363L113.479 95.9437C114.051 95.2525 114.509 94.6765 115.024 93.9852C115.253 93.6396 116.512 91.854 116.569 91.5084H109.473V100.379Z" fill="#E31E24"/>
<path fill-rule="evenodd" clip-rule="evenodd" d="M108.558 100.379V91.9116C108.558 91.7964 108.615 91.7388 108.558 91.6812C108.558 91.5084 108.558 91.5084 108.443 91.5084H101.519C101.519 91.854 103.121 94.158 103.465 94.5613L106.383 98.075C106.726 98.4206 107.013 98.7662 107.356 99.1118C107.47 99.227 107.47 99.2846 107.585 99.3998L107.928 99.7454C107.985 99.8031 108.043 99.8607 108.043 99.9183C108.214 100.091 108.5 100.379 108.558 100.379Z" fill="#67B437"/>
<path fill-rule="evenodd" clip-rule="evenodd" d="M84.1794 112.015H85.5529V118.466H83.4927C83.8361 117.833 83.8933 116.623 83.9505 115.816C84.0078 115.701 84.0078 115.528 84.0078 115.413L84.1794 112.015ZM82.9777 118.466C82.5199 118.466 82.6343 118.236 82.6343 119.964H83.1494V118.927H86.0679V119.964H86.5829V118.466H86.0679V111.496H83.7216C83.7216 112.188 83.6644 112.764 83.6644 113.34C83.6644 113.512 83.6072 113.628 83.6072 113.8C83.6072 114.088 83.5499 114.895 83.5499 115.183L83.4927 116.104C83.4355 116.508 83.3783 117.372 83.2638 117.775C83.2066 118.063 83.0921 118.236 82.9777 118.466Z" fill="#2B2A29"/>
<path fill-rule="evenodd" clip-rule="evenodd" d="M88.4142 118.927C88.9292 118.927 88.8147 119.1 89.1009 118.236C89.1581 118.121 89.1581 118.005 89.2153 117.89C89.2725 117.775 89.3298 117.66 89.3298 117.545C89.387 117.372 89.4442 117.256 89.5015 117.141C89.5015 117.026 89.5587 116.911 89.6159 116.796L90.1309 115.298C90.1882 115.068 90.3026 114.837 90.3598 114.607C90.4743 114.319 90.5315 114.088 90.646 113.858L90.8749 113.167L90.9321 113.109V118.927H91.4471V111.496H90.9893C90.9321 111.784 90.7032 112.303 90.5887 112.591C90.5315 112.764 90.5315 112.821 90.4743 112.994C90.4171 113.109 90.4171 113.224 90.3598 113.34L88.9292 117.372V111.496H88.4142V118.927Z" fill="#2B2A29"/>
<path fill-rule="evenodd" clip-rule="evenodd" d="M73.5926 117.314V113.109C73.5926 112.533 73.936 111.899 74.5655 111.899H74.7371C75.3094 111.899 75.6528 112.533 75.6528 113.109V117.314C75.6528 117.948 75.3094 118.581 74.7944 118.581H74.5655C73.936 118.581 73.5926 117.948 73.5926 117.314ZM73.0776 113.224V117.256C73.0776 119.618 76.1678 119.618 76.1678 117.256V113.224C76.1678 110.805 73.0776 110.805 73.0776 113.224Z" fill="#2B2A29"/>
<path fill-rule="evenodd" clip-rule="evenodd" d="M13.7342 111.611V118.869C13.7342 118.985 13.9059 118.927 14.2493 118.927V112.015H16.0233V118.869C16.0233 118.985 16.195 118.927 16.5383 118.927V111.496H13.7915C13.7342 111.496 13.7342 111.554 13.7342 111.611Z" fill="#2B2A29"/>
<path fill-rule="evenodd" clip-rule="evenodd" d="M59.6867 118.927C60.0301 118.927 60.2017 118.985 60.2017 118.869V112.015H61.9757V118.927C62.3191 118.927 62.4908 118.985 62.4908 118.869V111.611C62.4908 111.554 62.4336 111.496 62.3763 111.496H59.6867V118.927Z" fill="#2B2A29"/>
<path fill-rule="evenodd" clip-rule="evenodd" d="M93.8506 118.927H94.3657V115.298H96.1969V118.869C96.1969 118.985 96.3686 118.927 96.7119 118.927V111.496C96.3686 111.496 96.1969 111.496 96.1969 111.611V114.837H94.3657V111.496H93.8506V118.927Z" fill="#2B2A29"/>
<path fill-rule="evenodd" clip-rule="evenodd" d="M54.4219 118.927H54.937V112.015H56.711V118.927H57.226V111.496H54.4219V118.927Z" fill="#2B2A29"/>
<path fill-rule="evenodd" clip-rule="evenodd" d="M77.7701 118.466H77.6557V118.927C78.3424 118.927 78.6285 118.466 78.743 117.89C78.9146 117.084 78.9146 115.932 79.0291 115.01C79.0291 114.895 79.0863 114.664 79.0863 114.549C79.0863 114.434 79.0863 114.376 79.0863 114.261C79.0863 114.146 79.0863 114.146 79.0863 114.031L79.2008 112.015H80.517V118.869C80.517 118.985 80.6886 118.927 81.032 118.927V111.496H78.743C78.743 111.9 78.6857 112.13 78.6857 112.476C78.6857 112.648 78.6857 112.764 78.6857 112.936C78.6285 113.109 78.6857 113.224 78.6285 113.397C78.6285 113.685 78.6285 114.78 78.5713 115.298C78.4568 115.874 78.4568 116.508 78.3996 117.084C78.3424 117.545 78.2279 118.466 77.7701 118.466Z" fill="#2B2A29"/>
<path fill-rule="evenodd" clip-rule="evenodd" d="M27.6974 118.927H28.2124V115.183C29.0708 115.183 28.8991 115.068 29.0708 115.644C29.128 115.816 29.1853 115.932 29.1853 116.104L29.9292 118.466C29.9864 118.581 30.0436 118.754 30.1009 118.927H30.6731L29.4714 115.24C29.4142 115.01 29.3569 115.01 29.4142 114.78C29.4714 114.664 29.5286 114.492 29.5858 114.319C29.6431 114.031 30.4442 111.669 30.4442 111.496C29.7575 111.496 29.9292 111.439 29.8147 111.899L28.9564 114.78H28.2124V111.496H27.6974V118.927Z" fill="#2B2A29"/>
<path fill-rule="evenodd" clip-rule="evenodd" d="M10.2435 112.591L10.8729 116.047C10.9302 116.162 10.9874 116.392 10.9874 116.565H9.49951C9.49951 116.335 9.84287 114.895 9.84287 114.607C9.9001 114.376 10.2435 112.764 10.2435 112.591ZM8.52667 118.927C9.27061 118.927 8.98448 119.157 9.27061 118.005C9.32784 117.66 9.38506 117.314 9.44229 116.968H11.0446L11.388 118.754C11.4452 118.985 11.3307 118.927 11.9602 118.927L10.4724 111.496H10.0145C9.78564 112.533 9.49951 114.146 9.27061 115.24C9.21338 115.413 8.52667 118.754 8.52667 118.927Z" fill="#2B2A29"/>
<path fill-rule="evenodd" clip-rule="evenodd" d="M33.5344 112.591C33.5917 112.879 33.6489 113.224 33.7061 113.57C33.7633 113.858 33.8206 114.204 33.8778 114.549C33.935 114.895 33.9922 115.24 34.0495 115.528C34.1067 115.701 34.1067 115.874 34.1639 116.047C34.1639 116.162 34.2211 116.392 34.2211 116.565H32.7905L32.9622 115.586C33.1338 114.664 33.3055 113.685 33.4772 112.821L33.5344 112.591ZM31.8176 118.927H32.3327C32.3899 118.697 32.4471 118.409 32.5044 118.121C32.5616 117.833 32.5616 117.545 32.6188 117.256C32.676 116.911 32.5616 116.968 33.3628 116.968C33.6489 116.968 33.9922 116.968 34.3356 116.968C34.3356 117.256 34.6789 118.697 34.6789 118.927H35.2512L35.0223 118.005C34.9079 117.314 33.7633 111.784 33.7633 111.496C33.1338 111.496 33.3055 111.381 33.1338 112.072L31.9893 117.948C31.9321 118.121 31.9321 118.236 31.8749 118.409C31.8749 118.581 31.8176 118.754 31.8176 118.927Z" fill="#2B2A29"/>
<path fill-rule="evenodd" clip-rule="evenodd" d="M68.3851 118.927H68.9573C69.0718 118.697 69.9302 115.759 70.0446 115.586C70.0446 115.816 70.2163 116.22 70.2735 116.45L71.0747 118.927H71.6469C71.5897 118.812 71.5325 118.581 71.4753 118.466L70.3307 115.01L71.4753 111.496H70.903C70.903 111.611 70.8458 111.784 70.7885 111.9L70.0446 114.434V114.376L69.9302 114.088C69.7585 113.512 69.2434 112.015 69.129 111.496H68.5567C68.614 111.669 68.6712 111.842 68.7284 111.957C68.7856 112.13 68.8429 112.245 68.9001 112.418C68.9573 112.764 69.0718 113.052 69.1862 113.397L69.644 114.78C69.7585 115.01 69.7585 114.952 69.7013 115.24C69.5868 115.528 69.4723 115.816 69.3579 116.162L68.3851 118.927Z" fill="#2B2A29"/>
<path fill-rule="evenodd" clip-rule="evenodd" d="M46.4675 115.528H45.7236V112.015H46.4675C46.9253 112.015 47.3259 112.418 47.3259 112.821V114.664C47.3259 115.125 46.9253 115.528 46.4675 115.528ZM45.2085 111.611V118.869C45.2085 118.985 45.3802 118.927 45.7236 118.927V115.989C46.3531 115.989 46.9253 116.047 47.3831 115.644C47.612 115.413 47.8409 115.068 47.8409 114.664V112.879C47.8409 112.476 47.612 112.13 47.4404 111.899C47.2687 111.784 47.2115 111.727 47.0398 111.669C46.5247 111.439 45.8953 111.496 45.2658 111.496C45.2085 111.496 45.2085 111.554 45.2085 111.611Z" fill="#2B2A29"/>
<path fill-rule="evenodd" clip-rule="evenodd" d="M50.1872 118.927C50.8739 118.927 50.7022 119.042 50.8167 118.524L52.1901 113.397C52.2473 113.109 52.3046 112.821 52.419 112.476C52.4762 112.303 52.6479 111.669 52.6479 111.496C51.9612 111.496 52.1329 111.439 51.9612 112.015C51.6751 113.224 51.3889 114.549 51.0456 115.701V115.816C51.0456 115.816 51.0456 115.816 50.9884 115.816L49.8438 111.496H49.2716L50.645 116.104C50.7595 116.623 50.8167 116.508 50.7022 117.026C50.645 117.199 50.1872 118.812 50.1872 118.927Z" fill="#2B2A29"/>
<path fill-rule="evenodd" clip-rule="evenodd" d="M23.0621 118.927H25.5228V118.466H23.5771V115.298H25.065V114.837H23.5771V112.015H25.4083C25.5228 112.015 25.5228 111.9 25.5228 111.611C25.5228 111.554 25.4656 111.496 25.4083 111.496H23.0621V118.927Z" fill="#2B2A29"/>
<path fill-rule="evenodd" clip-rule="evenodd" d="M18.3695 112.015H19.5713V118.927C19.9146 118.927 20.0863 118.985 20.0863 118.869V112.015H21.2308C21.3453 112.015 21.2881 111.9 21.2881 111.611C21.2881 111.554 21.2881 111.496 21.2308 111.496H18.3695V112.015Z" fill="#2B2A29"/>
<path fill-rule="evenodd" clip-rule="evenodd" d="M41.1455 111.611V118.869C41.1455 118.985 41.3172 118.927 41.6605 118.927V112.015H43.3773C43.4918 112.015 43.4345 111.842 43.4345 111.496H41.2599C41.1455 111.496 41.1455 111.554 41.1455 111.611Z" fill="#2B2A29"/>
<path fill-rule="evenodd" clip-rule="evenodd" d="M103.636 115.471H109.645V114.722H103.636V115.471Z" fill="#2B2A29"/>
<path fill-rule="evenodd" clip-rule="evenodd" d="M99.1726 118.927H99.6304V112.015H101.347C101.404 112.015 101.404 111.957 101.404 111.9V111.496H99.1726V118.927Z" fill="#2B2A29"/>
<path fill-rule="evenodd" clip-rule="evenodd" d="M0.114449 114.837V115.471H5.89427V114.722H0.228901C0.114449 114.722 0.114449 114.78 0.114449 114.837Z" fill="#2B2A29"/>
</g>
<defs>
<clipPath id="clip0_2613_5423">
<rect width="118" height="120" fill="white"/>
</clipPath>
</defs>
</svg>
