<svg width="141" height="40" viewBox="0 0 141 40" fill="none" xmlns="http://www.w3.org/2000/svg">
<g clip-path="url(#clip0_4411_3353)">
<path fill-rule="evenodd" clip-rule="evenodd" d="M18.8174 11.6477V22.3233C18.8174 23.4753 19.1278 24.4354 19.8261 25.261L20.0007 25.4914C20.2917 25.7602 20.4663 25.9138 20.796 26.1442C21.3586 26.5282 22.1346 26.7778 22.8329 26.7778C23.1433 26.7778 23.3567 26.7586 23.6282 26.6626C24.055 26.5282 24.4042 26.2786 24.7534 26.0098C25.4711 25.4914 26.1113 25.0882 27.0618 25.0882V19.232C27.0618 19.0016 27.0424 17.3695 27.0618 17.2927H28.1675V17.0047H23.764V17.2927H24.8698C24.8504 17.3503 24.8504 19.7504 24.8504 20.0384V22.4577C24.8504 22.7841 24.831 23.1105 24.7922 23.4369C24.734 24.0129 24.5788 24.6082 24.3848 25.1074C24.346 25.1842 24.3266 25.261 24.2878 25.3378C24.152 25.5682 24.055 25.7602 23.8804 25.9906C23.6864 26.2402 23.3179 26.4898 23.0075 26.4898C22.7165 26.4898 22.5613 26.4514 22.3479 26.2978C21.9212 26.0098 21.6302 25.5106 21.4556 25.0306C21.2422 24.4546 21.1064 23.8593 21.0676 23.2449C21.0482 23.0337 21.0288 22.8033 21.0288 22.5729V11.3981C21.0288 11.0333 21.0482 10.6877 21.1064 10.342C21.184 9.80443 21.3198 9.32441 21.5138 8.84439L21.6496 8.57558C21.8048 8.24917 22.057 7.98036 22.3479 7.74995C22.4255 7.69235 22.4837 7.65395 22.5807 7.61555C23.0075 7.40434 23.5313 7.46194 23.9774 7.59635C24.3072 7.71155 24.5594 7.88436 24.8116 8.09557C25.4517 8.61399 25.9561 9.57402 26.1113 10.3612C26.1501 10.5533 26.1695 10.7453 26.1889 10.9373C26.2083 11.1101 26.2277 11.2829 26.2277 11.4557C26.2277 11.5901 26.2277 11.5517 26.5186 11.5517V7.46194H26.2277C26.2277 7.51955 26.2277 7.57715 26.2277 7.65395C26.2083 7.73075 26.2083 7.76915 26.1889 7.82676C26.1695 7.94196 26.1113 8.05717 26.0531 8.13397C25.9367 8.32597 25.7427 8.44118 25.5099 8.44118C25.5099 8.40278 25.3935 8.28757 25.3547 8.24917C25.2771 8.15317 25.1607 8.01876 25.0637 7.94196C24.9668 7.88436 24.8892 7.80756 24.7922 7.73075C24.6564 7.63475 24.5012 7.53875 24.346 7.48114C24.152 7.40434 24.0356 7.34674 23.8028 7.28914C22.9105 7.07793 21.9406 7.23154 21.2034 7.59635C20.9706 7.71155 20.7378 7.84596 20.5245 7.99956C20.3693 8.11477 20.2335 8.24917 20.0977 8.38358L19.9619 8.51798C19.7873 8.70999 19.6515 8.9212 19.4963 9.1324C19.4381 9.24761 19.3605 9.36281 19.3023 9.47802C19.2442 9.59322 19.186 9.70842 19.1472 9.84283C18.9338 10.3804 18.8174 10.9181 18.8174 11.6477Z" fill="#2B2A29"/>
<path fill-rule="evenodd" clip-rule="evenodd" d="M10.9019 12.0317L11.1541 13.107C11.1929 13.299 11.2317 13.4718 11.2705 13.6446C11.3093 13.8366 11.3481 14.0094 11.3869 14.1822C11.5615 14.8926 11.7166 15.6222 11.8718 16.3519C11.9688 16.6975 12.0464 17.0623 12.124 17.4271L12.415 18.752C12.5314 19.1936 12.6284 19.6736 12.7254 20.1152L12.8224 20.5184C12.8224 20.5568 12.8418 20.6144 12.8418 20.6528H9.03963L9.27242 19.5776C9.31121 19.4048 9.35001 19.232 9.38881 19.04C9.4276 18.8672 9.4664 18.6944 9.5052 18.5023C9.544 18.3295 9.58279 18.1567 9.62159 17.9647L10.1454 15.5454C10.2423 15.1038 10.3587 14.643 10.4363 14.1822L10.5527 13.6446C10.5915 13.4718 10.6303 13.299 10.6691 13.107C10.7079 12.9341 10.7467 12.7613 10.7855 12.5693C10.8049 12.4925 10.8243 12.3965 10.8437 12.3005C10.8631 12.2429 10.8631 12.2237 10.8825 12.1661C10.8825 12.1469 10.8825 12.1277 10.8825 12.1085L10.9019 12.0317ZM6.26562 26.2594V26.509H8.90384V26.221H7.85631L8.28308 24.2434C8.36068 23.8401 8.98144 20.9984 8.98144 20.9408H12.8806C12.9194 20.9408 12.9194 20.9792 12.9388 21.0752L14.0639 26.221H12.9582V26.509H17.4198C17.4198 26.1634 17.478 26.221 17.1677 26.221H16.3141L15.9261 24.4354C15.8874 24.2434 15.8292 24.0514 15.7904 23.8401C15.7128 23.4753 15.6158 23.0337 15.5188 22.6497C15.4412 22.2465 15.3636 21.8625 15.2666 21.4593L14.3355 17.3119C14.2967 17.1199 14.2579 16.9087 14.1997 16.7167C14.1027 16.3135 14.0445 15.9103 13.9475 15.5262C13.7535 14.7198 13.5983 13.9326 13.4043 13.1454L12.221 7.78836C12.1822 7.57715 12.1434 7.38515 12.0852 7.19314C11.9688 7.19314 11.833 7.19314 11.6972 7.19314C11.6584 7.19314 11.6584 7.17394 11.639 7.21234C11.639 7.23154 11.6197 7.26994 11.6197 7.30834L10.1454 14.1822C10.126 14.2974 10.1066 14.3934 10.0872 14.5086C10.0484 14.6046 10.0484 14.7198 10.0096 14.8158C9.99016 14.931 9.97077 15.0462 9.95137 15.1422C9.89317 15.3534 9.85437 15.5646 9.81558 15.7951C9.71858 16.2175 9.62159 16.6399 9.5246 17.0623L9.25302 18.3487C9.17542 18.7712 9.07843 19.2128 8.98144 19.6352C8.86504 20.2688 8.70985 20.9216 8.57406 21.5553C8.53527 21.7665 8.47707 21.9777 8.43827 22.1889L8.30248 22.8417C8.24429 23.0529 8.22489 23.2641 8.16669 23.4753L8.0309 24.1282C7.9921 24.2818 7.79812 25.2418 7.73992 25.3762C7.70112 25.5106 7.60413 25.6642 7.52654 25.7602C7.50714 25.7794 7.50714 25.7794 7.48774 25.7986C7.44894 25.837 7.44894 25.837 7.42954 25.8562C7.25496 25.9906 7.15796 26.0482 6.92518 26.125C6.73119 26.2018 6.53721 26.221 6.32382 26.221C6.28502 26.221 6.26562 26.221 6.26562 26.2594Z" fill="#2B2A29"/>
<path fill-rule="evenodd" clip-rule="evenodd" d="M0.0390625 0.0888775V35.2838C0.0390625 35.303 0.0390625 35.303 0.0778598 35.303H37.1681V34.4005H36.8771V35.0149H0.330042V0.338487H36.8771V26.4514H37.1681V0.0504761H0.0778598C0.0390625 0.0504761 0.0390625 0.0504761 0.0390625 0.0888775Z" fill="#2B2A29" stroke="#2B2A29" stroke-width="2.258" stroke-miterlimit="22.9256"/>
<path fill-rule="evenodd" clip-rule="evenodd" d="M33.9287 28.8131C33.9287 29.2547 34.0257 29.6964 34.2003 30.0804C34.2003 30.0996 34.2391 30.1956 34.2779 30.1956H36.7803C36.7997 30.1956 36.7997 30.1956 36.7997 30.1764V28.0643C36.7997 27.9683 36.5281 27.6611 36.3923 27.5459C36.3729 27.5267 36.3341 27.5075 36.3147 27.4883C36.0238 27.2963 35.5194 27.2195 35.112 27.3155C35.0732 27.3347 35.015 27.3347 34.9762 27.3539C34.8211 27.4115 34.7241 27.4691 34.5883 27.5459C34.2003 27.8147 33.9287 28.3331 33.9287 28.8131Z" fill="#FFDD00"/>
<path fill-rule="evenodd" clip-rule="evenodd" d="M37.1104 28.0643V30.1764C37.1104 30.1956 37.1104 30.1956 37.1491 30.1956H39.6516C39.6904 30.1956 39.7098 30.1188 39.7292 30.0804C40.0395 29.3315 40.1559 28.5443 39.6516 27.8531C39.5352 27.6995 39.283 27.4883 39.1084 27.4115C39.0114 27.3731 38.9532 27.3539 38.8174 27.3155C38.3907 27.2195 37.8281 27.2963 37.5371 27.5267C37.3625 27.6803 37.2849 27.7763 37.1491 27.9683C37.1298 27.9875 37.1104 28.0259 37.1104 28.0643Z" fill="#008DD2"/>
<path fill-rule="evenodd" clip-rule="evenodd" d="M37.1104 33.4597C37.1685 33.4597 37.1492 33.4405 37.2073 33.3829L37.7311 32.8261C37.7311 32.8069 37.7505 32.7877 37.7699 32.7877L38.4683 31.9812C38.6622 31.7508 38.8174 31.5588 38.992 31.3284C39.0696 31.2132 39.4964 30.618 39.5158 30.5028H37.1104V33.4597Z" fill="#E31E24"/>
<path fill-rule="evenodd" clip-rule="evenodd" d="M36.7991 33.4597V30.6372C36.7991 30.5988 36.8185 30.5796 36.7991 30.5604C36.7991 30.5028 36.7991 30.5028 36.7603 30.5028H34.4131C34.4131 30.618 34.9562 31.386 35.0726 31.5204L36.062 32.6917C36.1784 32.8069 36.2754 32.9221 36.3917 33.0373C36.4305 33.0757 36.4305 33.0949 36.4693 33.1333L36.5857 33.2485C36.6051 33.2677 36.6245 33.2869 36.6245 33.3061C36.6827 33.3637 36.7797 33.4597 36.7991 33.4597Z" fill="#67B437"/>
<path fill-rule="evenodd" clip-rule="evenodd" d="M28.5359 37.3382H29.0015V39.4887H28.3031C28.4195 39.2775 28.4389 38.8743 28.4583 38.6055C28.4777 38.5671 28.4777 38.5095 28.4777 38.4711L28.5359 37.3382ZM28.1285 39.4887C27.9733 39.4887 28.0121 39.4119 28.0121 39.9879H28.1867V39.6423H29.176V39.9879H29.3506V39.4887H29.176V37.1654H28.3807C28.3807 37.3958 28.3613 37.5878 28.3613 37.7798C28.3613 37.8375 28.3419 37.8759 28.3419 37.9335C28.3419 38.0295 28.3225 38.2983 28.3225 38.3943L28.3031 38.7015C28.2837 38.8359 28.2643 39.1239 28.2255 39.2583C28.2061 39.3543 28.1673 39.4119 28.1285 39.4887Z" fill="#2B2A29"/>
<path fill-rule="evenodd" clip-rule="evenodd" d="M29.9707 39.6423C30.1453 39.6423 30.1065 39.6999 30.2035 39.4119C30.2229 39.3735 30.2229 39.3351 30.2423 39.2967C30.2617 39.2583 30.2811 39.2199 30.2811 39.1815C30.3005 39.1239 30.3199 39.0855 30.3393 39.0471C30.3393 39.0087 30.3587 38.9703 30.3781 38.9319L30.5527 38.4327C30.5721 38.3559 30.6109 38.2791 30.6303 38.2023C30.6691 38.1063 30.6885 38.0295 30.7273 37.9527L30.8048 37.7222L30.8242 37.703V39.6423H30.9988V37.1654H30.8436C30.8242 37.2614 30.7466 37.4342 30.7079 37.5302C30.6885 37.5878 30.6885 37.607 30.6691 37.6646C30.6497 37.703 30.6497 37.7414 30.6303 37.7798L30.1453 39.1239V37.1654H29.9707V39.6423Z" fill="#2B2A29"/>
<path fill-rule="evenodd" clip-rule="evenodd" d="M24.947 39.1047V37.703C24.947 37.511 25.0634 37.2998 25.2768 37.2998H25.335C25.529 37.2998 25.6454 37.511 25.6454 37.703V39.1047C25.6454 39.3159 25.529 39.5271 25.3544 39.5271H25.2768C25.0634 39.5271 24.947 39.3159 24.947 39.1047ZM24.7725 37.7414V39.0855C24.7725 39.8727 25.82 39.8727 25.82 39.0855V37.7414C25.82 36.935 24.7725 36.935 24.7725 37.7414Z" fill="#2B2A29"/>
<path fill-rule="evenodd" clip-rule="evenodd" d="M4.65625 37.2038V39.6231C4.65625 39.6615 4.71445 39.6423 4.83084 39.6423V37.3382H5.4322V39.6231C5.4322 39.6615 5.49039 39.6423 5.60678 39.6423V37.1654H4.67565C4.65625 37.1654 4.65625 37.1846 4.65625 37.2038Z" fill="#2B2A29"/>
<path fill-rule="evenodd" clip-rule="evenodd" d="M20.2334 39.6423C20.3498 39.6423 20.408 39.6615 20.408 39.6231V37.3382H21.0093V39.6423C21.1257 39.6423 21.1839 39.6615 21.1839 39.6231V37.2038C21.1839 37.1846 21.1645 37.1654 21.1451 37.1654H20.2334V39.6423Z" fill="#2B2A29"/>
<path fill-rule="evenodd" clip-rule="evenodd" d="M31.8145 39.6423H31.989V38.4327H32.6098V39.6231C32.6098 39.6615 32.668 39.6423 32.7844 39.6423V37.1654C32.668 37.1654 32.6098 37.1654 32.6098 37.2038V38.2791H31.989V37.1654H31.8145V39.6423Z" fill="#2B2A29"/>
<path fill-rule="evenodd" clip-rule="evenodd" d="M18.4482 39.6423H18.6228V37.3382H19.2242V39.6423H19.3988V37.1654H18.4482V39.6423Z" fill="#2B2A29"/>
<path fill-rule="evenodd" clip-rule="evenodd" d="M26.363 39.4887H26.3242V39.6423C26.557 39.6423 26.654 39.4887 26.6928 39.2967C26.751 39.0279 26.751 38.6439 26.7898 38.3367C26.7898 38.2983 26.8092 38.2215 26.8092 38.1831C26.8092 38.1447 26.8092 38.1255 26.8092 38.0871C26.8092 38.0487 26.8092 38.0487 26.8092 38.0103L26.848 37.3382H27.2942V39.6231C27.2942 39.6615 27.3523 39.6423 27.4687 39.6423V37.1654H26.6928C26.6928 37.2998 26.6734 37.3766 26.6734 37.4918C26.6734 37.5494 26.6734 37.5878 26.6734 37.6454C26.654 37.703 26.6734 37.7414 26.654 37.7991C26.654 37.8951 26.654 38.2599 26.6346 38.4327C26.5958 38.6247 26.5958 38.8359 26.5764 39.0279C26.557 39.1815 26.5182 39.4887 26.363 39.4887Z" fill="#2B2A29"/>
<path fill-rule="evenodd" clip-rule="evenodd" d="M9.38965 39.6423H9.56424V38.3943C9.85522 38.3943 9.79702 38.3559 9.85522 38.5479C9.87461 38.6055 9.89401 38.6439 9.89401 38.7015L10.1462 39.4887C10.1656 39.5271 10.185 39.5847 10.2044 39.6423H10.3984L9.99101 38.4135C9.97161 38.3367 9.95221 38.3367 9.97161 38.2599C9.99101 38.2215 10.0104 38.1639 10.0298 38.1063C10.0492 38.0103 10.3208 37.223 10.3208 37.1654C10.088 37.1654 10.1462 37.1462 10.1074 37.2998L9.81642 38.2599H9.56424V37.1654H9.38965V39.6423Z" fill="#2B2A29"/>
<path fill-rule="evenodd" clip-rule="evenodd" d="M3.47258 37.5302L3.68597 38.6823C3.70537 38.7207 3.72477 38.7975 3.72477 38.8551H3.2204C3.2204 38.7783 3.33679 38.2983 3.33679 38.2023C3.35619 38.1255 3.47258 37.5878 3.47258 37.5302ZM2.89062 39.6423C3.14281 39.6423 3.04581 39.7191 3.14281 39.3351C3.16221 39.2199 3.1816 39.1047 3.201 38.9895H3.74417L3.86056 39.5847C3.87996 39.6615 3.84116 39.6423 4.05454 39.6423L3.55018 37.1654H3.39499C3.3174 37.511 3.2204 38.0487 3.14281 38.4135C3.12341 38.4711 2.89062 39.5847 2.89062 39.6423Z" fill="#2B2A29"/>
<path fill-rule="evenodd" clip-rule="evenodd" d="M11.3681 37.5302C11.3875 37.6262 11.4069 37.7414 11.4263 37.8566C11.4457 37.9527 11.4651 38.0679 11.4845 38.1831C11.5039 38.2983 11.5233 38.4135 11.5427 38.5095C11.5621 38.5671 11.5621 38.6247 11.5815 38.6823C11.5815 38.7207 11.6009 38.7975 11.6009 38.8551H11.1159L11.1741 38.5287C11.2323 38.2215 11.2905 37.8951 11.3487 37.607L11.3681 37.5302ZM10.7861 39.6423H10.9607C10.9801 39.5655 10.9995 39.4695 11.0189 39.3735C11.0383 39.2775 11.0383 39.1815 11.0577 39.0855C11.0771 38.9703 11.0383 38.9895 11.3099 38.9895C11.4069 38.9895 11.5233 38.9895 11.6397 38.9895C11.6397 39.0855 11.7561 39.5655 11.7561 39.6423H11.9501L11.8725 39.3351C11.8337 39.1047 11.4457 37.2614 11.4457 37.1654C11.2323 37.1654 11.2905 37.127 11.2323 37.3574L10.8443 39.3159C10.8249 39.3735 10.8249 39.4119 10.8055 39.4695C10.8055 39.5271 10.7861 39.5847 10.7861 39.6423Z" fill="#2B2A29"/>
<path fill-rule="evenodd" clip-rule="evenodd" d="M23.1816 39.6423H23.3756C23.4144 39.5655 23.7054 38.5863 23.7442 38.5287C23.7442 38.6055 23.8024 38.7399 23.8218 38.8167L24.0934 39.6423H24.2874C24.268 39.6039 24.2486 39.5271 24.2292 39.4887L23.8412 38.3367L24.2292 37.1654H24.0352C24.0352 37.2038 24.0158 37.2614 23.9964 37.2998L23.7442 38.1447V38.1255L23.7054 38.0295C23.6472 37.8375 23.4726 37.3382 23.4338 37.1654H23.2398C23.2592 37.223 23.2786 37.2806 23.298 37.319C23.3174 37.3766 23.3368 37.415 23.3562 37.4726C23.3756 37.5878 23.4144 37.6838 23.4532 37.7991L23.6084 38.2599C23.6472 38.3367 23.6472 38.3175 23.6278 38.4135C23.589 38.5095 23.5502 38.6055 23.5114 38.7207L23.1816 39.6423Z" fill="#2B2A29"/>
<path fill-rule="evenodd" clip-rule="evenodd" d="M15.752 38.5095H15.4998V37.3382H15.752C15.9072 37.3382 16.0429 37.4726 16.0429 37.607V38.2215C16.0429 38.3751 15.9072 38.5095 15.752 38.5095ZM15.3252 37.2038V39.6231C15.3252 39.6615 15.3834 39.6423 15.4998 39.6423V38.6631C15.7132 38.6631 15.9072 38.6823 16.0623 38.5479C16.1399 38.4711 16.2175 38.3559 16.2175 38.2215V37.6262C16.2175 37.4918 16.1399 37.3766 16.0817 37.2998C16.0235 37.2614 16.0041 37.2422 15.946 37.223C15.7714 37.1462 15.558 37.1654 15.3446 37.1654C15.3252 37.1654 15.3252 37.1846 15.3252 37.2038Z" fill="#2B2A29"/>
<path fill-rule="evenodd" clip-rule="evenodd" d="M17.0125 39.6423C17.2453 39.6423 17.1871 39.6807 17.2259 39.5079L17.6915 37.799C17.7109 37.703 17.7303 37.607 17.7691 37.4918C17.7885 37.4342 17.8467 37.223 17.8467 37.1654C17.6139 37.1654 17.6721 37.1462 17.6139 37.3382C17.5169 37.7414 17.4199 38.1831 17.3035 38.5671V38.6055C17.3035 38.6055 17.3035 38.6055 17.2841 38.6055L16.8961 37.1654H16.7021L17.1677 38.7015C17.2065 38.8743 17.2259 38.8359 17.1871 39.0087C17.1677 39.0663 17.0125 39.6039 17.0125 39.6423Z" fill="#2B2A29"/>
<path fill-rule="evenodd" clip-rule="evenodd" d="M7.81836 39.6423H8.6525V39.4887H7.99295V38.4327H8.49731V38.2791H7.99295V37.3382H8.6137C8.6525 37.3382 8.6525 37.2998 8.6525 37.2038C8.6525 37.1846 8.6331 37.1654 8.6137 37.1654H7.81836V39.6423Z" fill="#2B2A29"/>
<path fill-rule="evenodd" clip-rule="evenodd" d="M6.22754 37.3382H6.63491V39.6423C6.7513 39.6423 6.8095 39.6615 6.8095 39.6231V37.3382H7.19747C7.23627 37.3382 7.21687 37.2998 7.21687 37.2038C7.21687 37.1846 7.21687 37.1654 7.19747 37.1654H6.22754V37.3382Z" fill="#2B2A29"/>
<path fill-rule="evenodd" clip-rule="evenodd" d="M13.9482 37.2038V39.6231C13.9482 39.6615 14.0064 39.6423 14.1228 39.6423V37.3382H14.7048C14.7436 37.3382 14.7242 37.2806 14.7242 37.1654H13.987C13.9482 37.1654 13.9482 37.1846 13.9482 37.2038Z" fill="#2B2A29"/>
<path fill-rule="evenodd" clip-rule="evenodd" d="M35.1309 38.4903H37.1677V38.2407H35.1309V38.4903Z" fill="#2B2A29"/>
<path fill-rule="evenodd" clip-rule="evenodd" d="M33.6182 39.6423H33.7734V37.3382H34.3553C34.3747 37.3382 34.3747 37.319 34.3747 37.2998V37.1654H33.6182V39.6423Z" fill="#2B2A29"/>
<path fill-rule="evenodd" clip-rule="evenodd" d="M0.0390625 38.2791V38.4903H1.99833V38.2407H0.0778598C0.0390625 38.2407 0.0390625 38.2599 0.0390625 38.2791Z" fill="#2B2A29"/>
</g>
<path d="M52.88 11.885H51.98V17H51.05V6.62H51.98V11.045H52.91L54.17 6.62H55.175L53.645 11.45L55.475 17H54.44L52.88 11.885ZM56.9028 9.02C56.9028 8.25 57.1128 7.64 57.5328 7.19C57.9628 6.73 58.5078 6.5 59.1678 6.5C59.8278 6.5 60.3678 6.73 60.7878 7.19C61.2178 7.64 61.4328 8.25 61.4328 9.02V14.6C61.4328 15.37 61.2178 15.985 60.7878 16.445C60.3678 16.895 59.8278 17.12 59.1678 17.12C58.5078 17.12 57.9628 16.895 57.5328 16.445C57.1128 15.985 56.9028 15.37 56.9028 14.6V9.02ZM57.8328 14.555C57.8328 15.105 57.9578 15.53 58.2078 15.83C58.4578 16.13 58.7778 16.28 59.1678 16.28C59.5578 16.28 59.8778 16.13 60.1278 15.83C60.3778 15.53 60.5028 15.105 60.5028 14.555V9.065C60.5028 8.515 60.3778 8.09 60.1278 7.79C59.8778 7.49 59.5578 7.34 59.1678 7.34C58.7778 7.34 58.4578 7.49 58.2078 7.79C57.9578 8.09 57.8328 8.515 57.8328 9.065V14.555ZM63.8809 6.62H65.6959C66.3259 6.62 66.8359 6.82 67.2259 7.22C67.6159 7.61 67.8109 8.12 67.8109 8.75V10.835C67.8109 11.465 67.6159 11.98 67.2259 12.38C66.8359 12.77 66.3259 12.965 65.6959 12.965H64.8109V17H63.8809V6.62ZM65.6509 12.125C66.0209 12.125 66.3159 12.01 66.5359 11.78C66.7659 11.55 66.8809 11.22 66.8809 10.79V8.795C66.8809 8.365 66.7659 8.035 66.5359 7.805C66.3159 7.575 66.0209 7.46 65.6509 7.46H64.8109V12.125H65.6509ZM74.2466 17H73.3166V7.46H71.0066V17H70.0766V6.62H74.2466V17ZM76.6911 9.02C76.6911 8.25 76.9011 7.64 77.3211 7.19C77.7511 6.73 78.2961 6.5 78.9561 6.5C79.6161 6.5 80.1561 6.73 80.5761 7.19C81.0061 7.64 81.2211 8.25 81.2211 9.02V14.6C81.2211 15.37 81.0061 15.985 80.5761 16.445C80.1561 16.895 79.6161 17.12 78.9561 17.12C78.2961 17.12 77.7511 16.895 77.3211 16.445C76.9011 15.985 76.6911 15.37 76.6911 14.6V9.02ZM77.6211 14.555C77.6211 15.105 77.7461 15.53 77.9961 15.83C78.2461 16.13 78.5661 16.28 78.9561 16.28C79.3461 16.28 79.6661 16.13 79.9161 15.83C80.1661 15.53 80.2911 15.105 80.2911 14.555V9.065C80.2911 8.515 80.1661 8.09 79.9161 7.79C79.6661 7.49 79.3461 7.34 78.9561 7.34C78.5661 7.34 78.2461 7.49 77.9961 7.79C77.7461 8.09 77.6211 8.515 77.6211 9.065V14.555ZM83.6691 6.62H85.4841C86.1141 6.62 86.6241 6.82 87.0141 7.22C87.4041 7.61 87.5991 8.12 87.5991 8.75V10.835C87.5991 11.465 87.4041 11.98 87.0141 12.38C86.6241 12.77 86.1141 12.965 85.4841 12.965H84.5991V17H83.6691V6.62ZM85.4391 12.125C85.8091 12.125 86.1041 12.01 86.3241 11.78C86.5541 11.55 86.6691 11.22 86.6691 10.79V8.795C86.6691 8.365 86.5541 8.035 86.3241 7.805C86.1041 7.575 85.8091 7.46 85.4391 7.46H84.5991V12.125H85.4391ZM90.6983 6.62H91.5683L93.6683 17H92.6783L92.2133 14.375H90.0533L89.5883 17H88.5983L90.6983 6.62ZM92.0633 13.535L91.1333 8.315L90.2033 13.535H92.0633ZM94.1366 6.62H98.5166V7.46H96.7916V17H95.8616V7.46H94.1366V6.62ZM104.851 6.62V17H103.921V9.32L101.221 17H100.381V6.62H101.311V14.3L104.011 6.62H104.851ZM110.648 11.51C110.988 11.66 111.253 11.895 111.443 12.215C111.633 12.525 111.728 12.895 111.728 13.325V14.87C111.728 15.5 111.533 16.015 111.143 16.415C110.753 16.805 110.243 17 109.613 17H107.558V6.62H109.388C110.018 6.62 110.528 6.82 110.918 7.22C111.308 7.61 111.503 8.12 111.503 8.75V9.905C111.503 10.655 111.218 11.19 110.648 11.51ZM108.488 7.46V11.195H109.343C109.713 11.195 110.008 11.08 110.228 10.85C110.458 10.62 110.573 10.29 110.573 9.86V8.795C110.573 8.365 110.458 8.035 110.228 7.805C110.008 7.575 109.713 7.46 109.343 7.46H108.488ZM110.798 13.37C110.798 12.94 110.683 12.61 110.453 12.38C110.233 12.15 109.938 12.035 109.568 12.035H108.488V16.16H109.568C109.938 16.16 110.233 16.045 110.453 15.815C110.683 15.585 110.798 15.255 110.798 14.825V13.37ZM114.032 6.62H114.962V11.165H117.362V6.62H118.292V17H117.362V12.005H114.962V17H114.032V6.62ZM122.865 10.64C123.495 10.64 124.005 10.84 124.395 11.24C124.785 11.63 124.98 12.14 124.98 12.77V14.87C124.98 15.5 124.785 16.015 124.395 16.415C124.005 16.805 123.495 17 122.865 17H120.99V6.62H121.92V10.64H122.865ZM127.02 6.62V17H126.09V6.62H127.02ZM124.05 12.815C124.05 12.385 123.935 12.055 123.705 11.825C123.485 11.595 123.19 11.48 122.82 11.48H121.92V16.16H122.82C123.19 16.16 123.485 16.045 123.705 15.815C123.935 15.585 124.05 15.255 124.05 14.825V12.815ZM134.19 6.62V17H133.26V9.32L130.56 17H129.72V6.62H130.65V14.3L133.35 6.62H134.19ZM131.955 5.93C131.515 5.93 131.15 5.81 130.86 5.57C130.58 5.32 130.44 5.005 130.44 4.625H131.22C131.22 4.815 131.285 4.97 131.415 5.09C131.555 5.2 131.735 5.255 131.955 5.255C132.175 5.255 132.35 5.2 132.48 5.09C132.62 4.97 132.69 4.815 132.69 4.625H133.47C133.47 5.005 133.325 5.32 133.035 5.57C132.755 5.81 132.395 5.93 131.955 5.93ZM54.14 27.065C54.14 26.505 54.03 26.08 53.81 25.79C53.59 25.49 53.305 25.34 52.955 25.34C52.595 25.34 52.3 25.49 52.07 25.79C51.84 26.08 51.725 26.505 51.725 27.065V32.555C51.725 33.115 51.84 33.545 52.07 33.845C52.3 34.135 52.595 34.28 52.955 34.28C53.315 34.28 53.61 34.135 53.84 33.845C54.07 33.545 54.185 33.115 54.185 32.555V31.835H55.115V32.6C55.115 33.37 54.915 33.985 54.515 34.445C54.115 34.895 53.595 35.12 52.955 35.12C52.315 35.12 51.795 34.895 51.395 34.445C50.995 33.985 50.795 33.37 50.795 32.6V27.02C50.795 26.25 50.995 25.64 51.395 25.19C51.795 24.73 52.315 24.5 52.955 24.5C53.585 24.5 54.095 24.73 54.485 25.19C54.875 25.64 55.07 26.25 55.07 27.02V27.635H54.14V27.065ZM58.4746 24.62H59.3446L61.4446 35H60.4546L59.9896 32.375H57.8296L57.3646 35H56.3746L58.4746 24.62ZM59.8396 31.535L58.9096 26.315L57.9796 31.535H59.8396ZM67.7063 24.62V35H66.7763V27.32L64.0763 35H63.2363V24.62H64.1663V32.3L66.8663 24.62H67.7063ZM65.4713 23.93C65.0313 23.93 64.6663 23.81 64.3763 23.57C64.0963 23.32 63.9563 23.005 63.9563 22.625H64.7363C64.7363 22.815 64.8013 22.97 64.9313 23.09C65.0713 23.2 65.2513 23.255 65.4713 23.255C65.6913 23.255 65.8663 23.2 65.9963 23.09C66.1363 22.97 66.2063 22.815 66.2063 22.625H66.9863C66.9863 23.005 66.8413 23.32 66.5513 23.57C66.2713 23.81 65.9113 23.93 65.4713 23.93ZM69.5735 24.62H73.9535V25.46H72.2285V35H71.2985V25.46H69.5735V24.62ZM81.5582 35L80.0882 30.47L78.6332 35H77.5832L79.5332 29.525L77.8382 24.62H78.8732L80.0882 28.55L81.3332 24.62H82.3682L80.6282 29.525L82.5932 35H81.5582ZM84.0141 27.02C84.0141 26.25 84.2241 25.64 84.6441 25.19C85.0741 24.73 85.6191 24.5 86.2791 24.5C86.9391 24.5 87.4791 24.73 87.8991 25.19C88.3291 25.64 88.5441 26.25 88.5441 27.02V32.6C88.5441 33.37 88.3291 33.985 87.8991 34.445C87.4791 34.895 86.9391 35.12 86.2791 35.12C85.6191 35.12 85.0741 34.895 84.6441 34.445C84.2241 33.985 84.0141 33.37 84.0141 32.6V27.02ZM84.9441 32.555C84.9441 33.105 85.0691 33.53 85.3191 33.83C85.5691 34.13 85.8891 34.28 86.2791 34.28C86.6691 34.28 86.9891 34.13 87.2391 33.83C87.4891 33.53 87.6141 33.105 87.6141 32.555V27.065C87.6141 26.515 87.4891 26.09 87.2391 25.79C86.9891 25.49 86.6691 25.34 86.2791 25.34C85.8891 25.34 85.5691 25.49 85.3191 25.79C85.0691 26.09 84.9441 26.515 84.9441 27.065V32.555ZM94.8818 35H93.9518V25.46H92.3018C92.2318 26.95 92.1418 28.42 92.0318 29.87C91.9318 31.32 91.8368 32.335 91.7468 32.915C91.6368 33.655 91.4418 34.19 91.1618 34.52C90.8818 34.84 90.4768 35 89.9468 35V34.16C90.2068 34.16 90.4118 34.05 90.5618 33.83C90.7118 33.61 90.8218 33.245 90.8918 32.735C91.0118 31.935 91.1268 30.725 91.2368 29.105C91.3468 27.485 91.4118 25.99 91.4318 24.62H94.8818V35ZM102.323 34.16V36.485H101.393V35H97.4634V36.485H96.5334V34.16H97.0134C97.2534 33.86 97.4184 33.385 97.5084 32.735C97.6284 31.935 97.7434 30.725 97.8534 29.105C97.9634 27.485 98.0284 25.99 98.0484 24.62H101.618V34.16H102.323ZM100.688 34.16V25.46H98.9184C98.8484 26.95 98.7584 28.42 98.6484 29.87C98.5484 31.32 98.4534 32.335 98.3634 32.915C98.2934 33.425 98.1734 33.84 98.0034 34.16H100.688ZM108.733 24.62V35H107.803V27.32L105.103 35H104.263V24.62H105.193V32.3L107.893 24.62H108.733ZM111.44 24.62H112.37V29.165H114.77V24.62H115.7V35H114.77V30.005H112.37V35H111.44V24.62ZM118.397 24.62H121.817V25.46H119.327V35H118.397V24.62ZM124.122 24.62H124.992L127.092 35H126.102L125.637 32.375H123.477L123.012 35H122.022L124.122 24.62ZM125.487 31.535L124.557 26.315L123.627 31.535H125.487Z" fill="#0F1A24"/>
<defs>
<clipPath id="clip0_4411_3353">
<rect width="40" height="40" fill="white"/>
</clipPath>
</defs>
</svg>
