<svg xmlns="http://www.w3.org/2000/svg" version="1.1" xmlns:xlink="http://www.w3.org/1999/xlink" width="1000" height="1000"><g clip-path="url(#SvgjsClipPath1014)"><rect width="1000" height="1000" fill="#ffffff"></rect><g transform="matrix(1.4,0,0,1.4,150,150)"><svg xmlns="http://www.w3.org/2000/svg" version="1.1" xmlns:xlink="http://www.w3.org/1999/xlink" width="500" height="500"><svg width="500" height="500" viewBox="0 0 500 500" fill="none" xmlns="http://www.w3.org/2000/svg">
<path fill-rule="evenodd" clip-rule="evenodd" d="M285.984 135.254V373.548C285.984 399.263 292.836 420.693 308.252 439.122L312.106 444.265C318.529 450.265 322.383 453.694 329.663 458.837C342.081 467.408 359.21 472.98 374.626 472.98C381.478 472.98 386.188 472.552 392.183 470.409C401.604 467.409 409.312 461.837 417.02 455.837C432.864 444.265 446.995 435.265 467.978 435.265V304.545C467.978 299.402 467.55 262.973 467.978 261.258H492.387V254.829H395.181V261.258H419.589C419.161 262.544 419.161 316.117 419.161 322.546V376.548C419.161 383.834 418.733 391.12 417.876 398.406C416.592 411.264 413.166 424.55 408.884 435.693C408.027 437.407 407.599 439.122 406.743 440.836C403.745 445.979 401.604 450.265 397.75 455.408C393.468 460.98 385.332 466.551 378.48 466.551C372.057 466.551 368.631 465.694 363.921 462.265C354.5 455.837 348.076 444.693 344.222 433.979C339.512 421.121 336.514 407.835 335.658 394.12C335.23 389.406 334.802 384.263 334.802 379.12V129.682C334.802 121.539 335.23 113.824 336.514 106.11C338.227 94.1093 341.225 83.3946 345.507 72.6799L348.505 66.6797C351.93 59.3937 357.497 53.3935 363.921 48.2505C365.633 46.9647 366.918 46.1075 369.059 45.2503C378.48 40.5359 390.042 41.8216 399.891 44.8218C407.171 47.3933 412.738 51.2506 418.305 55.965C432.436 67.5369 443.57 88.9662 446.995 106.538C447.852 110.824 448.28 115.11 448.708 119.396C449.137 123.253 449.565 127.11 449.565 130.968C449.565 133.968 449.565 133.111 455.988 133.111V41.8216H449.565C449.565 43.1074 449.565 44.3932 449.565 46.1075C449.137 47.8219 449.137 48.679 448.708 49.9648C448.28 52.5363 446.995 55.1078 445.711 56.8222C443.141 61.1081 438.859 63.6796 433.721 63.6796C433.721 62.8224 431.151 60.2509 430.295 59.3937C428.582 57.2508 426.013 54.2507 423.872 52.5363C421.73 51.2506 420.018 49.5362 417.876 47.8219C414.879 45.6789 411.453 43.536 408.027 42.2502C403.745 40.5359 401.176 39.2501 396.037 37.9644C376.339 33.2499 354.928 36.6786 338.656 44.8218C333.517 47.3933 328.378 50.3934 323.668 53.8221C320.242 56.3936 317.244 59.3937 314.247 62.3938L311.249 65.3939C307.395 69.6798 304.398 74.3943 300.972 79.1087C299.687 81.6802 297.975 84.2517 296.69 86.8233C295.405 89.3948 294.121 91.9663 293.264 94.9664C288.554 106.967 285.984 118.967 285.984 135.254Z" fill="#2B2A29"></path>
<path fill-rule="evenodd" clip-rule="evenodd" d="M111.273 143.825L116.84 167.826C117.697 172.112 118.553 175.969 119.41 179.827C120.266 184.112 121.123 187.97 121.979 191.827C125.833 207.685 129.259 223.971 132.685 240.257C134.826 247.972 136.539 256.115 138.251 264.258L144.675 293.831C147.244 303.688 149.385 314.403 151.526 324.26L153.667 333.261C153.667 334.118 154.096 335.404 154.096 336.261H70.1643L75.303 312.26C76.1594 308.403 77.0158 304.545 77.8723 300.26C78.7287 296.402 79.5852 292.545 80.4416 288.259C81.298 284.402 82.1545 280.545 83.0109 276.259L94.5729 222.257C96.714 212.399 99.2833 202.113 100.996 191.827L103.566 179.827C104.422 175.969 105.278 172.112 106.135 167.826C106.991 163.969 107.848 160.112 108.704 155.826C109.132 154.111 109.561 151.968 109.989 149.826C110.417 148.54 110.417 148.111 110.845 146.825C110.845 146.397 110.845 145.968 110.845 145.54L111.273 143.825ZM8.92871 461.408V466.98H67.1668V460.551H44.0428L53.4637 416.407C55.1766 407.406 68.8796 343.975 68.8796 342.69H154.952C155.808 342.69 155.808 343.547 156.237 345.69L181.074 460.551H156.665V466.98H255.156C255.156 459.265 256.44 460.551 249.589 460.551H230.747L222.183 420.693C221.326 416.407 220.042 412.121 219.185 407.406C217.472 399.263 215.331 389.406 213.19 380.834C211.477 371.834 209.764 363.262 207.623 354.262L187.069 261.687C186.212 257.401 185.356 252.686 184.071 248.401C181.93 239.4 180.645 230.4 178.504 221.828C174.222 203.827 170.796 186.255 166.514 168.683L140.393 49.1076C139.536 44.3931 138.68 40.1073 137.395 35.8214C134.826 35.8214 131.828 35.8214 128.831 35.8214C127.974 35.8214 127.974 35.3928 127.546 36.25C127.546 36.6786 127.118 37.5357 127.118 38.3929L94.5729 191.827C94.1447 194.399 93.7164 196.542 93.2882 199.113C92.4318 201.256 92.4318 203.827 91.5753 205.97C91.1471 208.542 90.7189 211.113 90.2907 213.256C89.006 217.971 88.1496 222.685 87.2931 227.828C85.152 237.257 83.0109 246.686 80.8698 256.115L74.8747 284.83C73.1618 294.259 71.0207 304.117 68.8796 313.546C66.3103 327.689 62.8845 342.261 59.887 356.404C59.0306 361.119 57.7459 365.833 56.8894 370.548L53.8919 385.12C52.6073 389.834 52.179 394.549 50.8944 399.263L47.8968 413.835C47.0404 417.264 42.7582 438.693 41.4735 441.693C40.6171 444.693 38.476 448.122 36.7631 450.265C36.3349 450.694 36.3348 450.694 35.9066 451.122C35.0502 451.979 35.0502 451.979 34.622 452.408C30.768 455.408 28.6269 456.694 23.4882 458.408C19.206 460.123 14.9238 460.551 10.2134 460.551C9.35693 460.551 8.92871 460.551 8.92871 461.408Z" fill="#2B2A29"></path>
</svg></svg></g></g><defs><clipPath id="SvgjsClipPath1014"><rect width="1000" height="1000" x="0" y="0" rx="350" ry="350"></rect></clipPath></defs></svg>