<svg width="320" height="174" fill="none" xmlns="http://www.w3.org/2000/svg"><path d="M0 172.974h320" stroke="#D4D4D8" stroke-width="2" stroke-miterlimit="10"/><mask id="a" style="mask-type:luminance" maskUnits="userSpaceOnUse" x="162" y="125" width="51" height="47"><path d="M162.717 125.818h50.068v45.991h-50.068v-45.991z" fill="#fff"/></mask><g mask="url(#a)"><path d="M236.353 126.245l-1.997 1.845-4.911 4.528-4.916 4.529-14.735 13.586-4.911 4.533v-.004l-4.916 4.528-4.911 4.529-9.586 8.842-5.149 4.748-4.916 4.528-12.045 11.106c.309-.003.622-.011.931-.023l7.372-6.797 4.916-4.528 4.907-4.529h.004l9.823-9.057 4.912-4.533 4.916-4.528 24.557-22.644 4.916-4.528 5.714-5.268c.008-.289.021-.574.025-.863z" fill="#3E6EC1"/></g><mask id="b" style="mask-type:luminance" maskUnits="userSpaceOnUse" x="168" y="130" width="45" height="42"><path d="M168.063 130.747h44.722v41.062h-44.722v-41.062z" fill="#fff"/></mask><g mask="url(#b)"><path d="M236.069 131.04l-6.624 6.107-4.916 4.529-14.735 13.586-4.911 4.532v-.004l-4.916 4.533v-.004l-4.911 4.532-14.735 13.586-4.916 4.529-6.849 6.316c.334-.027.668-.054.998-.085l6.782-6.254.243-.22 14.734-13.586 4.912-4.532v.004l4.916-4.529 4.907-4.528h.004l4.912-4.533 9.823-9.057 4.916-4.529 10.274-9.473c.033-.304.062-.612.092-.92z" fill="#3E6EC1"/></g><mask id="c" style="mask-type:luminance" maskUnits="userSpaceOnUse" x="195" y="156" width="18" height="16"><path d="M195.862 156.378h16.923v15.431h-16.923v-15.431z" fill="#fff"/></mask><g mask="url(#c)"><path d="M196.379 185.745a73.618 73.618 0 001.988-.993l2.769-2.557h.005l4.907-4.529h.004l4.912-4.529 4.911-4.532v.004l9.823-9.058 1.116-1.024c.367-.608.726-1.217 1.077-1.833l-3.358 3.1-.004-.004-4.912 4.533v-.004l-9.585 8.838-.238.223-4.911 4.529-4.916 4.528" fill="#3E6EC1"/></g><mask id="d" style="mask-type:luminance" maskUnits="userSpaceOnUse" x="187" y="148" width="26" height="24"><path d="M187.308 148.492h25.477v23.317h-25.477v-23.317z" fill="#fff"/></mask><g mask="url(#d)"><path d="M187.542 189.361c.493-.161.977-.335 1.466-.512l12.128-11.183h.005l4.911-4.529 4.912-4.532v.004l9.823-9.057 4.911-4.533 4.916-4.529.648-.597c.187-.446.375-.897.555-1.347l-7.284 6.716h-.004l-4.912 4.532v-.004l-4.911 4.533v-.004l-4.912 4.529-4.911 4.532-4.912 4.529h-.004l-4.911 4.528" fill="#3E6EC1"/></g><mask id="e" style="mask-type:luminance" maskUnits="userSpaceOnUse" x="179" y="141" width="34" height="31"><path d="M179.824 141.591h32.961v30.218h-32.961v-30.218z" fill="#fff"/></mask><g mask="url(#e)"><path d="M186.402 186.723l9.823-9.057 4.916-4.529 4.911-4.528 4.912-4.533 4.911-4.524 4.912-4.533 4.916-4.529 4.911-4.528 3.091-2.846c.113-.381.225-.763.334-1.148l-9.506 8.765-4.915 4.529-9.824 9.057-4.911 4.532-4.912 4.529h-.004l-19.554 18.03c.413-.1.827-.204 1.24-.308" fill="#3E6EC1"/></g><mask id="f" style="mask-type:luminance" maskUnits="userSpaceOnUse" x="173" y="135" width="40" height="37"><path d="M173.409 135.676h39.376v36.133h-39.376v-36.133z" fill="#fff"/></mask><g mask="url(#f)"><path d="M181.49 186.723l19.646-18.114h.005l4.911-4.533 4.912-4.524 9.823-9.062 4.916-4.528 9.455-8.719c.067-.335.125-.674.188-1.009l-10.813 9.97h-.004l-9.823 9.058-4.912 4.532v-.004l-29.473 27.176-4.916 4.529-1.215 1.124c.363-.058.731-.115 1.094-.177l1.29-1.19" fill="#3E6EC1"/></g><mask id="g" style="mask-type:luminance" maskUnits="userSpaceOnUse" x="110" y="77" width="6" height="6"><path d="M110.878 77.851h4.795v4.59h-4.795v-4.59z" fill="#fff"/></mask><g mask="url(#g)"><path d="M115.101 71.297a72.772 72.772 0 00-11.327 10.44l4.026-3.709 4.916-4.532" fill="#3E6EC1"/></g><mask id="h" style="mask-type:luminance" maskUnits="userSpaceOnUse" x="148" y="113" width="65" height="59"><path d="M148.818 113.002h63.967v58.807h-63.967v-58.807z" fill="#fff"/></mask><g mask="url(#h)"><path d="M235.371 113.568l-5.926 5.464-4.916 4.529-19.646 18.115-4.916 4.528-9.823 9.058-4.912 4.532v-.004l-24.562 22.647-4.915 4.529-6.148 5.669c.259.042.518.08.777.119l6.544-6.031 19.408-17.895.243-.219 4.911-4.533 4.912-4.524 4.911-4.533 4.912-4.529 4.916-4.528 4.907-4.529h.004l14.735-13.586 4.916-4.529 4.911-4.532 4.887-4.502c-.042-.242-.088-.477-.13-.716z" fill="#3E6EC1"/></g><mask id="i" style="mask-type:luminance" maskUnits="userSpaceOnUse" x="153" y="116" width="60" height="56"><path d="M153.094 116.945h59.691v54.864h-59.691v-54.864z" fill="#fff"/></mask><g mask="url(#i)"><path d="M235.956 117.554l-1.6 1.478-4.911 4.529-4.916 4.529-19.646 18.114-4.916 4.529-39.296 36.233-4.916 4.529-1.825 1.683c.275.026.551.05.827.073l2.171-1.999 19.647-18.115 4.915-4.528 4.912-4.533 4.911-4.524 9.824-9.062h.004l4.907-4.528h.004l19.647-18.115 4.915-4.529 4.912-4.532.509-.47c-.025-.254-.05-.508-.079-.762z" fill="#3E6EC1"/></g><mask id="j" style="mask-type:luminance" maskUnits="userSpaceOnUse" x="158" y="120" width="55" height="52"><path d="M158.44 120.889h54.345v50.92H158.44v-50.92z" fill="#fff"/></mask><g mask="url(#j)"><path d="M236.294 121.77l-1.938 1.791-9.823 9.057-4.915 4.529-14.735 13.586-4.912 4.532-.004-.003-9.823 9.057-4.912 4.532-4.911 4.529-4.916 4.529-16.898 15.58c.288.012.581.023.873.031l17.195-15.854h.004l9.823-9.057 4.911-4.533 4.912-4.528 4.916-4.529 19.646-18.115 4.916-4.528 4.911-4.529 4.912-4.532v.003l.802-.743a56.534 56.534 0 00-.034-.805z" fill="#3E6EC1"/></g><mask id="k" style="mask-type:luminance" maskUnits="userSpaceOnUse" x="130" y="95" width="83" height="77"><path d="M130.641 95.257h82.144v76.552h-82.144V95.257z" fill="#fff"/></mask><g mask="url(#k)"><path d="M229.62 96.22l-.175.165-4.912 4.529h-.004l-9.823 9.057-4.912 4.533-9.823 9.057h-.004l-19.646 18.115-4.916 4.528-14.735 13.586-4.915 4.529-4.912 4.532-14.735 13.586h-.004l-5.308 4.895c.205.088.413.177.622.262l5.856-5.399 4.915-4.529 39.297-36.233h.004l14.735-13.586 4.911-4.532.005.003 9.823-9.057 4.911-4.532 4.912-4.529 4.916-4.529 4.201-3.878c-.092-.188-.188-.38-.284-.573z" fill="#3E6EC1"/></g><mask id="l" style="mask-type:luminance" maskUnits="userSpaceOnUse" x="133" y="99" width="80" height="73"><path d="M133.849 99.2h78.936v72.609h-78.936V99.2z" fill="#fff"/></mask><g mask="url(#l)"><path d="M231.349 99.994c-.083-.204-.167-.4-.255-.601l-6.561 6.05-4.916 4.528-4.911 4.533-14.735 13.586h-.004l-19.646 18.114-4.916 4.529-34.385 31.704-4.916 4.529-1.871 1.729c.217.077.435.154.652.235l12.216-11.264 9.827-9.057 4.912-4.533 4.911-4.524 29.474-27.176 4.916-4.529 4.911-4.529 4.912-4.532 4.911-4.525 4.912-4.532 4.916-4.529 4.911-4.529" fill="#3E6EC1"/></g><mask id="m" style="mask-type:luminance" maskUnits="userSpaceOnUse" x="121" y="87" width="92" height="85"><path d="M121.019 87.37h91.766v84.439h-91.766V87.37z" fill="#fff"/></mask><g mask="url(#m)"><path d="M224.391 87.459l-4.774 4.398-9.823 9.057-4.911 4.533v-.004l-4.912 4.528h-.004l-4.911 4.533-14.735 13.586-4.916 4.528-14.735 13.586-4.915 4.529-9.823 9.057-4.912 4.533v-.004l-19.73 18.192c.184.107.368.219.552.327l10.52-9.701 4.912-4.532v.004l4.915-4.529 34.386-31.704 4.915-4.529 4.912-4.528 4.911-4.533 9.823-9.057h.005l23.605-21.766c-.117-.169-.234-.338-.355-.504z" fill="#3E6EC1"/></g><mask id="n" style="mask-type:luminance" maskUnits="userSpaceOnUse" x="124" y="89" width="89" height="83"><path d="M124.226 89.342h88.559v82.467h-88.559V89.342z" fill="#fff"/></mask><g mask="url(#n)"><path d="M226.596 90.79c-.108-.181-.221-.354-.334-.528l-1.733 1.595-9.823 9.057-4.912 4.532v-.003l-29.473 27.175-4.916 4.529-14.735 13.586-4.915 4.529-4.912 4.532v-.004l-14.739 13.59-4.907 4.529h-.004l-6.862 6.327c.188.104.38.208.572.308l12.371-11.407 4.915-4.528 29.474-27.176 4.916-4.529 14.734-13.586 4.912-4.532 4.915-4.525 4.912-4.532 14.735-13.586 4.915-4.529" fill="#3E6EC1"/></g><mask id="o" style="mask-type:luminance" maskUnits="userSpaceOnUse" x="112" y="79" width="101" height="93"><path d="M112.465 79.484h100.32v92.325h-100.32V79.484z" fill="#fff"/></mask><g mask="url(#o)"><path d="M218.473 80.162c-.138-.15-.276-.3-.418-.451l-13.172 12.146-4.916 4.528-14.735 13.586-4.911 4.533-4.916 4.528-14.735 13.586-4.915 4.529-19.651 18.118v-.003l-9.823 9.057-9.823 9.061h-.004l-3.563 3.289c.159.127.326.254.485.385l4.252-3.917 4.911-4.528 4.912-4.533 9.823-9.057 4.915-4.529 9.824-9.057 4.915-4.529 14.735-13.586 4.916-4.528 4.911-4.529 4.912-4.532 14.734-13.586h.005l14.734-13.586" fill="#3E6EC1"/></g><mask id="p" style="mask-type:luminance" maskUnits="userSpaceOnUse" x="110" y="77" width="103" height="95"><path d="M110.878 77.851h101.907v93.958H110.878V77.851z" fill="#fff"/></mask><g mask="url(#p)"><path d="M216.151 77.774a44.147 44.147 0 00-.438-.431l-10.83 9.985-4.916 4.529-39.296 36.233-4.916 4.528-14.735 13.586h-.004l-4.912 4.529-4.907 4.529h-.004l-20.87 19.243c.155.138.309.269.468.404l1.921-1.772 4.916-4.528 4.911-4.533 4.912-4.524 4.911-4.533 4.912-4.529 4.916-4.528 14.375-13.255.363-.331 9.824-9.058 4.911-4.532 4.916-4.525 4.911-4.532 14.735-13.586 4.916-4.529 14.735-13.586" fill="#3E6EC1"/></g><mask id="q" style="mask-type:luminance" maskUnits="userSpaceOnUse" x="114" y="81" width="99" height="91"><path d="M114.604 81.455h98.181v90.354h-98.181V81.455z" fill="#fff"/></mask><g mask="url(#q)"><path d="M220.682 82.653l-.396-.47-15.403 14.202-4.916 4.529-4.912 4.533v-.004l-4.911 4.528-4.912 4.533-4.911 4.528-4.916 4.529-14.735 13.586-4.915 4.529-19.651 18.118v-.004l-4.911 4.533v-.004l-4.912 4.532-9.823 9.058-.885.812c.167.124.338.247.509.37l6.457-5.953 4.911-4.533v.004l29.474-27.176h.004l24.562-22.647 4.912-4.525 4.911-4.532 9.823-9.058h.005l14.734-13.586" fill="#3E6EC1"/></g><mask id="r" style="mask-type:luminance" maskUnits="userSpaceOnUse" x="110" y="77" width="103" height="95"><path d="M110.878 77.851h101.907v93.958H110.878V77.851z" fill="#fff"/></mask><g mask="url(#r)"><path d="M213.712 75.49c-.15-.134-.301-.273-.455-.412l-13.286 12.25-4.915 4.529-9.823 9.057-4.912 4.532v-.003l-4.916 4.532-4.911 4.525-4.912 4.532-4.911 4.529-4.916 4.529-14.735 13.586h-.004l-4.907 4.528-4.916 4.529-14.735 13.586h-.004l-4.911 4.529-3.676 3.392c.146.143.297.281.447.424l9.314-8.588 4.911-4.524 9.823-9.062 4.912-4.528 4.916-4.529 9.823-9.057 4.915-4.529 4.912-4.529 4.912-4.532 4.911-4.529 4.916-4.528 14.735-13.586 4.915-4.529 14.735-13.586" fill="#3E6EC1"/></g><mask id="s" style="mask-type:luminance" maskUnits="userSpaceOnUse" x="110" y="77" width="66" height="61"><path d="M110.878 77.851h64.669v59.797h-64.669V77.851z" fill="#fff"/></mask><g mask="url(#s)"><path d="M170.494 60.156l-4.912 4.529-4.912 4.525-24.561 22.647h-.005l-19.646 18.114-4.911 4.533h-.005l-23.267 21.453.125.716 4.666-4.297 4.911-4.529 4.912-4.532v.004l29.473-27.176 4.916-4.529 14.735-13.586 4.915-4.529 4.912-4.528 4.911-4.533v.004l4.912-4.532 3.02-2.78a53.44 53.44 0 00-.777-.12" fill="#3E6EC1"/></g><mask id="t" style="mask-type:luminance" maskUnits="userSpaceOnUse" x="110" y="77" width="62" height="56"><path d="M110.878 77.851h60.393v54.868h-60.393V77.851z" fill="#fff"/></mask><g mask="url(#t)"><path d="M165.582 60.156l-4.912 4.529-4.915 4.525-4.912 4.532-9.823 9.057-4.916 4.53-19.646 18.114-4.916 4.528-4.911 4.533-14.735 13.586-4.201 3.87c.029.254.062.501.092.751l.363-.335 4.916-4.529 4.911-4.532v.003l9.823-9.057 4.912-4.532 4.916-4.529 19.646-18.115 4.915-4.528 9.824-9.058 4.915-4.528 4.912-4.533v.004l4.911-4.532 3.634-3.35c-.271-.028-.543-.058-.814-.085" fill="#3E6EC1"/></g><mask id="u" style="mask-type:luminance" maskUnits="userSpaceOnUse" x="110" y="77" width="56" height="52"><path d="M110.878 77.851h55.047v50.924h-55.047V77.851z" fill="#fff"/></mask><g mask="url(#u)"><path d="M160.671 60.156l-4.916 4.529-4.912 4.525-4.911 4.532-4.912 4.529-4.916 4.528-19.646 18.115h-.004l-9.823 9.057-4.912 4.533-9.823 9.057h-.004l-4.523 4.174c.012.266.02.532.037.798l.744-.686 4.911-4.532.005.003 9.823-9.057 4.911-4.532 4.912-4.529 4.916-4.529 19.646-18.114 4.916-4.529 14.738-13.59v.004l4.912-4.532 4.014-3.701c-.289-.015-.577-.023-.869-.035" fill="#3E6EC1"/></g><mask id="v" style="mask-type:luminance" maskUnits="userSpaceOnUse" x="110" y="77" width="52" height="48"><path d="M110.878 77.851h50.77v46.981h-50.77V77.851z" fill="#fff"/></mask><g mask="url(#v)"><path d="M155.755 60.156l-4.912 4.529-4.911 4.525-4.912 4.532h-.004l-4.908 4.529-4.915 4.528-14.735 13.586h-.004l-4.907 4.529h-.005l-9.823 9.057-4.911 4.533-4.912 4.528-4.577 4.217c-.009.281-.009.562-.013.847l.848-.781v.003l4.907-4.528 4.916-4.529 4.912-4.532 9.823-9.058 4.915-4.528 19.647-18.115 4.915-4.529 18.853-17.382c-.309.003-.614.003-.919.011" fill="#3E6EC1"/></g><mask id="w" style="mask-type:luminance" maskUnits="userSpaceOnUse" x="110" y="77" width="41" height="38"><path d="M110.878 77.851h40.078v37.123h-40.078V77.851z" fill="#fff"/></mask><g mask="url(#w)"><path d="M145.932 60.156l-4.912 4.529h-.004l-24.558 22.643h-.004l-4.908 4.529h-.004L91.896 109.97l-3.537 3.258c-.059.335-.122.67-.18 1.001l4.882-4.501 4.916-4.529 14.735-13.586 4.915-4.529 24.562-22.647v.004l4.912-4.532 3.245-2.989c-.363.05-.727.108-1.09.166" fill="#3E6EC1"/></g><mask id="x" style="mask-type:luminance" maskUnits="userSpaceOnUse" x="144" y="109" width="69" height="63"><path d="M144.541 109.059h68.244v62.75h-68.244v-62.75z" fill="#fff"/></mask><g mask="url(#x)"><path d="M147.101 191.252l4.912-4.529 4.915-4.528 9.824-9.058 4.911-4.532v.004l4.912-4.529 4.915-4.529 4.912-4.532 9.823-9.057 4.916-4.529 29.473-27.176 4.122-3.797-.162-.685-.218.2-4.911 4.525-4.912 4.532h-.004l-24.558 22.644h-.004l-14.734 13.586-4.912 4.532v-.004l-4.916 4.533v-.004l-4.911 4.529-4.912 4.532-4.911 4.529-4.916 4.528-10.262 9.462c.247.05.493.104.744.15" fill="#3E6EC1"/></g><mask id="y" style="mask-type:luminance" maskUnits="userSpaceOnUse" x="141" y="106" width="72" height="66"><path d="M141.333 106.101h71.452v65.708h-71.452v-65.708z" fill="#fff"/></mask><g mask="url(#y)"><path d="M147.101 186.723l4.912-4.528 4.916-4.529 9.823-9.057 4.911-4.533 4.912-4.525h.004l4.911-4.532 14.735-13.586 4.916-4.529 14.735-13.586 4.911-4.532 4.916-4.525 4.911-4.532 3.166-2.915c-.067-.22-.129-.44-.196-.659l-28.701 26.463-4.916 4.529-24.562 22.647v-.004l-4.911 4.529-9.823 9.061-4.916 4.529-14.188 13.081c.238.062.477.116.715.177" fill="#3E6EC1"/></g><mask id="z" style="mask-type:luminance" maskUnits="userSpaceOnUse" x="137" y="102" width="76" height="70"><path d="M137.056 102.158h75.729v69.651h-75.729v-69.651z" fill="#fff"/></mask><g mask="url(#z)"><path d="M142.189 186.724l9.824-9.058 4.915-4.528 4.912-4.529 4.911-4.533 4.912-4.524 4.911-4.533 4.916-4.529 19.646-18.114h.005l9.823-9.057 4.911-4.533 4.912-4.525 4.911-4.532 4.916-4.529 2.03-1.871c-.071-.212-.146-.42-.221-.628l-2.978 2.746v-.004l-4.912 4.528h-.004l-4.912 4.533-19.646 18.114h-.004l-19.646 18.115-4.916 4.529-4.911 4.532v-.004l-4.912 4.529-4.912 4.533-4.915 4.528-17.934 16.536.681.208" fill="#3E6EC1"/></g><mask id="A" style="mask-type:luminance" maskUnits="userSpaceOnUse" x="110" y="77" width="29" height="26"><path d="M110.878 77.851h27.248v24.307h-27.248V77.851z" fill="#fff"/></mask><g mask="url(#A)"><path d="M137.244 59.94a73.05 73.05 0 00-1.415.47l-19.371 17.86-4.916 4.53-19.575 18.049c-.175.431-.342.866-.51 1.305l21.255-19.597 4.915-4.529 9.824-9.057 4.911-4.533" fill="#3E6EC1"/></g><mask id="B" style="mask-type:luminance" maskUnits="userSpaceOnUse" x="127" y="92" width="86" height="80"><path d="M127.434 92.3h85.351v79.509h-85.351v-79.51z" fill="#fff"/></mask><g mask="url(#B)"><path d="M132.362 182.195l4.912-4.529h.004l9.823-9.057 4.912-4.533 4.915-4.528 19.647-18.115h.004l19.646-18.115 4.916-4.528 4.911-4.529 4.912-4.532 9.823-9.058 4.916-4.528 2.614-2.41c-.1-.186-.205-.37-.309-.552l-3.475 3.204-4.915 4.529-9.824 9.057-4.911 4.533-4.912 4.528h-.004l-19.646 18.115-4.916 4.529-4.911 4.528-9.824 9.061v-.003l-4.915 4.528-4.912 4.529-9.585 8.842-5.149 4.748h-.005l-8.607 7.936c.196.097.396.193.597.285" fill="#3E6EC1"/></g><mask id="C" style="mask-type:luminance" maskUnits="userSpaceOnUse" x="110" y="77" width="20" height="19"><path d="M110.878 77.851h18.694v17.406h-18.694V77.851z" fill="#fff"/></mask><g mask="url(#C)"><path d="M126.899 64.115l-.618.566-4.911 4.532-9.823 9.058h-.005L95.985 92.615a53.28 53.28 0 00-.956 1.718l17.683-16.305 4.916-4.529 4.911-4.528 4.912-4.533 1.311-1.205a63.49 63.49 0 00-1.863.882z" fill="#3E6EC1"/></g><mask id="D" style="mask-type:luminance" maskUnits="userSpaceOnUse" x="117" y="84" width="96" height="88"><path d="M117.811 84.413h94.974v87.396h-94.974V84.413z" fill="#fff"/></mask><g mask="url(#D)"><path d="M122.539 177.666l14.735-13.586 4.915-4.528 4.912-4.533 9.823-9.057h.004l19.646-18.115 4.916-4.529 4.912-4.532 4.911-4.525 4.912-4.532 4.911-4.529h.005l21.634-19.948a40.204 40.204 0 00-.38-.485l-22.428 20.679v-.003l-4.912 4.528-4.911 4.533-9.823 9.057-4.916 4.529-14.735 13.586-4.915 4.528-9.823 9.058-4.912 4.532v-.004l-4.916 4.529-4.911 4.532-9.823 9.058-2.999 2.761c.175.119.351.235.53.35" fill="#3E6EC1"/></g><mask id="E" style="mask-type:luminance" maskUnits="userSpaceOnUse" x="110" y="77" width="102" height="95"><path d="M110.878 77.851h101.021v93.315H110.878V77.851z" fill="#fff"/></mask><g mask="url(#E)"><path d="M105.528 169.868c.138.146.284.293.426.443l1.846-1.702 4.912-4.533 4.916-4.528 19.646-18.115 4.916-4.529 14.738-13.589v.004l9.824-9.058 4.911-4.532 4.912-4.529 4.915-4.529 19.647-18.114h.004l10.023-9.242c-.163-.131-.321-.262-.48-.393l-10.713 9.877h-.004l-19.646 18.115-4.916 4.529-4.911 4.528-4.912 4.533-4.911 4.528-4.916 4.529-19.646 18.115h-.005l-19.646 18.114-4.916 4.529-4.911 4.532" fill="#3E6EC1"/></g><mask id="F" style="mask-type:luminance" maskUnits="userSpaceOnUse" x="110" y="77" width="97" height="90"><path d="M110.878 77.851h95.676v88.386h-95.676V77.851z" fill="#fff"/></mask><g mask="url(#F)"><path d="M101.193 164.804l.384.482 1.312-1.206 4.911-4.528 4.912-4.533 4.916-4.529 19.646-18.114 4.916-4.529 4.911-4.529 4.912-4.532 4.915-4.525 4.912-4.532 9.823-9.058 4.916-4.528 19.646-18.115 4.916-4.529 4.573-4.22c-.175-.12-.347-.239-.522-.354l-.309.288-4.916 4.53-19.646 18.114-4.916 4.528-34.385 31.705-4.916 4.528-14.734 13.586-4.916 4.529-4.912 4.529-4.911 4.532v-.004l-4.912 4.533v-.004" fill="#3E6EC1"/></g><mask id="G" style="mask-type:luminance" maskUnits="userSpaceOnUse" x="110" y="77" width="94" height="87"><path d="M110.878 77.851h92.468v85.428h-92.468V77.851z" fill="#fff"/></mask><g mask="url(#G)"><path d="M102.889 159.552l9.823-9.062 4.915-4.528 14.735-13.586 4.916-4.529 4.911-4.528 4.912-4.533 4.911-4.525 24.562-22.647 4.916-4.529L196.225 73.5l4.916-4.53 1.674-1.547a23.002 23.002 0 00-.547-.331l-2.297 2.121h-.004l-19.646 18.115-4.916 4.529-9.823 9.057-4.912 4.533v-.004l-4.915 4.528-4.912 4.533-14.735 13.586h-.004l-19.646 18.114-4.916 4.529-12.337 11.376c.121.169.238.338.359.504" fill="#3E6EC1"/></g><mask id="H" style="mask-type:luminance" maskUnits="userSpaceOnUse" x="110" y="77" width="99" height="92"><path d="M110.878 77.851h97.814v90.357h-97.814V77.851z" fill="#fff"/></mask><g mask="url(#H)"><path d="M103.707 167.854l4.093-3.778 4.912-4.524 24.562-22.648 4.915-4.528 14.739-13.59 4.912-4.525 4.911-4.532 9.823-9.058 4.916-4.528 19.646-18.115h.005l4.911-4.529 2.443-2.256c-.167-.123-.33-.25-.501-.374l-3.111 2.873-4.912 4.529h-.004l-19.646 18.114-4.916 4.529-9.823 9.057-4.912 4.533-4.915 4.528-14.735 13.586-4.916 4.529-19.646 18.115-4.912 4.532-.004-.004-8.24 7.598c.134.158.271.312.405.466z" fill="#3E6EC1"/></g><mask id="I" style="mask-type:luminance" maskUnits="userSpaceOnUse" x="110" y="77" width="87" height="81"><path d="M110.878 77.851h86.053v79.513h-86.053V77.851z" fill="#fff"/></mask><g mask="url(#I)"><path d="M96.808 155.262l-1.212 1.116.314.547 16.802-15.492 4.915-4.529 14.735-13.586 4.912-4.532 4.915-4.525 4.912-4.532 9.823-9.058 4.916-4.528 9.823-9.058 4.916-4.528 14.734-13.586 4.912-4.533.422-.385c-.201-.096-.397-.196-.593-.289l-.999.917-4.911 4.532-9.823 9.058-4.916 4.528-14.735 13.586-4.915 4.529-4.912 4.532v-.003l-4.911 4.532-4.912 4.525-4.916 4.532-4.907 4.529h-.004l-9.823 9.057-4.916 4.529-19.646 18.115z" fill="#3E6EC1"/></g><mask id="J" style="mask-type:luminance" maskUnits="userSpaceOnUse" x="110" y="77" width="84" height="78"><path d="M110.878 77.851h82.845v76.556h-82.845V77.851z" fill="#fff"/></mask><g mask="url(#J)"><path d="M97.977 150.49l14.735-13.586 4.915-4.528 34.386-31.705 4.915-4.528 24.562-22.647 4.912-4.525 4.911-4.533 2.051-1.89c-.205-.089-.409-.181-.614-.266l-2.606 2.399-4.912 4.532-4.911 4.53-4.916 4.528-14.735 13.586-4.915 4.528-14.735 13.586-4.912 4.533h-.004l-19.646 18.114-4.916 4.529-17.553 16.185.288.57" fill="#3E6EC1"/></g><mask id="K" style="mask-type:luminance" maskUnits="userSpaceOnUse" x="110" y="77" width="91" height="84"><path d="M110.878 77.851h89.26v82.471h-89.26V77.851z" fill="#fff"/></mask><g mask="url(#K)"><path d="M97.676 159.829l.301-.277 4.912-4.533 9.823-9.057 4.916-4.529 39.296-36.233 4.916-4.529 9.823-9.057 4.916-4.529 19.646-18.114 3.567-3.293c-.188-.1-.376-.208-.568-.308L180.321 82.8l-4.916 4.528-19.65 18.118v-.003l-4.912 4.532-4.911 4.525-4.912 4.532-4.916 4.529-4.907 4.529h-.004l-14.735 13.586h-.004l-19.116 17.625c.113.177.226.351.338.528z" fill="#3E6EC1"/></g><mask id="L" style="mask-type:luminance" maskUnits="userSpaceOnUse" x="110" y="77" width="35" height="33"><path d="M110.878 77.851h33.663v31.208h-33.663V77.851z" fill="#fff"/></mask><g mask="url(#L)"><path d="M93.061 105.2l4.916-4.529 14.735-13.586 4.916-4.528 14.734-13.586 4.912-4.533 4.916-4.528 2.021-1.864c-.401.088-.806.18-1.203.273l-1.988 1.837-4.916 4.525-4.907 4.532h-.004L116.458 82.8h-.004l-19.646 18.115-4.912 4.532-.004-.003-2.193 2.025c-.104.37-.2.74-.3 1.109" fill="#3E6EC1"/></g><mask id="M" style="mask-type:luminance" maskUnits="userSpaceOnUse" x="110" y="77" width="70" height="64"><path d="M110.878 77.851h68.946v62.754h-68.946V77.851z" fill="#fff"/></mask><g mask="url(#M)"><path d="M93.066 136.904l14.734-13.586 4.912-4.532 4.915-4.525 4.912-4.532 9.823-9.058 4.916-4.528 14.735-13.586 4.915-4.529 9.823-9.057 4.912-4.533 4.912-4.528 2.192-2.018c-.246-.054-.493-.104-.739-.154l-2.623 2.414-4.911 4.529-4.912 4.532-4.912 4.53-4.915 4.528-19.647 18.114h-.004l-4.911 4.529-4.912 4.533v-.004l-4.911 4.532-4.912 4.525-4.911 4.532h-.005l-22.478 20.726.163.682" fill="#3E6EC1"/></g><mask id="N" style="mask-type:luminance" maskUnits="userSpaceOnUse" x="110" y="77" width="78" height="71"><path d="M110.878 77.851h76.43v69.655h-76.43V77.851z" fill="#fff"/></mask><g mask="url(#N)"><path d="M91.437 147.464l1.624-1.502h.005l19.646-18.115 4.916-4.529 4.911-4.532 9.823-9.057 4.916-4.529 14.735-13.586 4.915-4.529 29.457-27.16c-.225-.07-.447-.146-.672-.216l-.481.447-4.911 4.525-19.65 18.118-4.916 4.529-14.735 13.586-4.911 4.532-.005-.003-4.911 4.532-4.912 4.525-4.911 4.532-9.823 9.058h-.005l-20.34 18.754c.076.208.155.412.235.62z" fill="#3E6EC1"/></g><mask id="O" style="mask-type:luminance" maskUnits="userSpaceOnUse" x="110" y="77" width="74" height="68"><path d="M110.878 77.851h72.154v66.697h-72.154V77.851z" fill="#fff"/></mask><g mask="url(#O)"><path d="M93.061 141.433l4.916-4.529 19.65-18.118 4.912-4.525 4.912-4.532 9.823-9.058 4.915-4.528 9.824-9.058 4.915-4.528L182.66 58.83a46.767 46.767 0 00-.702-.188l-1.637 1.513-4.916 4.525-4.911 4.532-9.824 9.058-4.915 4.528-14.735 13.586-4.916 4.529-4.907 4.532-.004-.003-4.912 4.528-4.911 4.533-4.912 4.528h-.004l-24.558 22.644h-.004l-1.846 1.706.2.647" fill="#3E6EC1"/></g><mask id="P" style="mask-type:luminance" maskUnits="userSpaceOnUse" x="110" y="77" width="81" height="75"><path d="M110.878 77.851h79.638v73.598h-79.638V77.851z" fill="#fff"/></mask><g mask="url(#P)"><path d="M92.786 150.748l.275-.258 4.916-4.528 14.735-13.586h.004l9.823-9.058 4.912-4.532 4.911-4.529 4.916-4.528 14.735-13.586 4.915-4.529 14.735-13.586 4.916-4.529 4.911-4.528 4.912-4.533 3.546-3.27-.643-.242-4.072 3.755-4.912 4.532-4.916 4.53-14.734 13.585-4.916 4.529-9.823 9.057-4.912 4.533v-.004l-4.911 4.532-4.916 4.525-4.912 4.532-14.734 13.586h-.005l-14.734 13.586-4.29 3.951c.088.201.18.397.268.593z" fill="#3E6EC1"/></g><mask id="Q" style="mask-type:luminance" maskUnits="userSpaceOnUse" x="109" y="77" width="47" height="43"><path d="M109.809 77.824h45.424v42.052h-45.424V77.824z" fill="#fff"/></mask><g mask="url(#Q)"><path d="M87.08 118.759l4.912-4.525h.004l4.912-4.532 14.734-13.586 4.916-4.529 19.646-18.115 4.916-4.528 4.912-4.533 4.911-4.528 3.893-3.586c-.334.024-.664.055-.998.081l-8.976 8.276-4.911 4.532-4.912 4.53h-.004L115.389 91.83l-4.916 4.528-9.823 9.058-4.912 4.532-4.911 4.525h-.004l-4.273 3.943-.088.917" fill="#3E6EC1"/></g><mask id="R" style="mask-type:luminance" maskUnits="userSpaceOnUse" x="28" y="57" width="73" height="118"><path d="M100.704 57.919H28V174h72.704V57.919z" fill="#fff"/></mask><g mask="url(#R)"><mask id="S" style="mask-type:luminance" maskUnits="userSpaceOnUse" x="28" y="59" width="72" height="115"><path d="M28.18 59.426h71.313v114.35H28.18V59.426z" fill="#fff"/></mask><g mask="url(#S)"><path d="M28.823 172.97h70.599V60.08h-70.6v112.89z" fill="#fff"/></g><mask id="T" style="mask-type:luminance" maskUnits="userSpaceOnUse" x="28" y="59" width="73" height="115"><path d="M28.18 59.326h71.857v114.45H28.18V59.326z" fill="#fff"/></mask><g mask="url(#T)"><path d="M28.823 172.97h70.599V60.08h-70.6v112.89z" stroke="#3F3F46" stroke-width="1.333" stroke-miterlimit="10" stroke-linecap="round" stroke-linejoin="round"/></g></g><path d="M128.866 1c3.174.49 16.927 2.927 16.927 2.927v17.07M39.761 154.622c20.481-12.496 32.159-36.244 28.855-58.68m53.618 8.981l7.392-8.98 8.04 8.406" stroke="#3F3F46" stroke-width="1.333" stroke-miterlimit="10" stroke-linecap="round" stroke-linejoin="round"/></svg>