<svg width="1598" height="665" fill="none" xmlns="http://www.w3.org/2000/svg"><mask id="a" style="mask-type:luminance" maskUnits="userSpaceOnUse" x="111" y="628" width="1378" height="12"><path d="M112 629.169h1376v9.662H112v-9.662z" fill="#fff" stroke="#fff" stroke-width="2"/></mask><g mask="url(#a)"><path d="M111 635.112h1378" stroke="#D4D4D8" stroke-width="2" stroke-miterlimit="10"/></g><path d="M808.63 345.573a8.184 8.184 0 11-16.37 0c0-4.521 3.662-8.188 8.183-8.188a8.189 8.189 0 018.187 8.188z" stroke="#3F3F46" stroke-width="1.333" stroke-miterlimit="10" stroke-linecap="round" stroke-linejoin="round"/><path d="M1194.73 229.776l-21.03-25.036h21.03v25.036z" stroke="#3E6EC1" stroke-width="1.333" stroke-miterlimit="10" stroke-linecap="round" stroke-linejoin="round"/><path d="M1101 204.734V139h93.73v65.74h-21.03v-.006H1101zm70.98-42.484h-53.77m53.77 19.714h-40.5m-377.147 156.01V237.448H610.99v100.531h32.161l.005-.005h111.177zM645.792 273h82.229m-82.229 30.151h61.932" stroke="#3F3F46" stroke-width="1.333" stroke-miterlimit="10" stroke-linecap="round" stroke-linejoin="round"/><mask id="b" style="mask-type:luminance" maskUnits="userSpaceOnUse" x="1192" y="392" width="151" height="245"><path d="M1342.09 392.297h-149.33v244h149.33v-244z" fill="#fff"/></mask><g mask="url(#b)"><mask id="c" style="mask-type:luminance" maskUnits="userSpaceOnUse" x="1194" y="392" width="147" height="244"><path d="M1194.09 392.631h146.67v243.067h-146.67V392.631z" fill="#fff"/></mask><g mask="url(#c)"><path d="M1194.36 635h145.94V393.339h-145.94V635z" fill="#fff"/></g><mask id="d" style="mask-type:luminance" maskUnits="userSpaceOnUse" x="1193" y="392" width="148" height="244"><path d="M1193.7 392.631h147.27v243.067H1193.7V392.631z" fill="#fff"/></mask><g mask="url(#d)"><path d="M1194.36 635h145.94V393.339h-145.94V635z" stroke="#3F3F46" stroke-width="1.333" stroke-miterlimit="10" stroke-linecap="round" stroke-linejoin="round"/></g></g><path d="M1249.45 307.698l-88.88 19.349a4.546 4.546 0 01-4.96-2.323l-40.5-90.218c-2.22-4.188-7.42-5.782-11.61-3.558l-2.67 1.417 42.05 105.807.07.125a5.613 5.613 0 006.39 2.802l108.28-28.229c-.86-3.656-4.49-5.953-8.17-5.172z" fill="#ACC3BF"/><path d="M1104.7 464.506s-7.25 15.005-12.64 18.416l-14.79 3.516c-6.96.828-9.27 5.833-9.27 5.833l39.08 18.078 18.8-36.692" fill="#3F3F46"/><path d="M1307.2 334.183s-93.05 3.5-136.71 10.125c-12.63 1.916-23.55 9.849-29.42 21.192l-51.34 99.214 45.48 23.911 52.67-95.328 95.76-2.854" fill="#fff"/><path d="M1307.2 334.183s-93.05 3.5-136.71 10.125c-12.63 1.916-23.55 9.849-29.42 21.192l-51.34 99.214 45.48 23.911 52.67-95.328 95.76-2.854 23.56-56.26z" stroke="#3F3F46" stroke-width="1.333" stroke-miterlimit="10" stroke-linecap="round" stroke-linejoin="round"/><path d="M1310.86 311.641c-1.21 4.042-3.05 7.901-5.66 11.219-21.79 27.656-66.97-6.141-103.89-5.865-5.09.037-9.62.13-10.71 1.766-1.83 2.755-4.01 6.713-5.34 6.599-1.54-.13.86-5.521 2.22-9.578 0 0-4.55 11.218-6.21 10.604-2.01-.745 3.12-13.516 3.12-13.516s-6.54 13.073-8.21 11.047c-1.68-2.026 5.42-13.672 5.42-13.672s-6.72 10.375-8.88 9.328c-1.75-.849 3.95-8.739 9.81-14.994 3.46-3.698 7.98-6.245 12.95-7.193 4.76-.906 11.75-1.469 21.75-.74 0 0 37.32 4.162 68.37 9.214l12.05-55.709c1.49-6.859 6.67-12.463 13.51-14.036 5.35-1.229 11.37-.682 15.31 5.552 2.8 4.422 3.26 9.938 1.69 14.927" fill="#fff"/><path d="M1310.86 311.641c-1.21 4.042-3.05 7.901-5.66 11.219-21.79 27.656-66.97-6.141-103.89-5.865-5.09.037-9.62.13-10.71 1.766-1.83 2.755-4.01 6.713-5.34 6.599-1.54-.13.86-5.521 2.22-9.578 0 0-4.55 11.218-6.21 10.604-2.01-.745 3.12-13.516 3.12-13.516s-6.54 13.073-8.21 11.047c-1.68-2.026 5.42-13.672 5.42-13.672s-6.72 10.375-8.88 9.328c-1.75-.849 3.95-8.739 9.81-14.995 3.46-3.697 7.98-6.244 12.95-7.192 4.76-.906 11.75-1.469 21.75-.74 0 0 37.32 4.162 68.37 9.214l12.05-55.709c1.49-6.859 6.67-12.463 13.51-14.036 5.35-1.229 11.37-.682 15.31 5.552 2.8 4.422 3.26 9.938 1.69 14.927l-17.3 55.047z" stroke="#3F3F46" stroke-width="1.333" stroke-miterlimit="10" stroke-linecap="round" stroke-linejoin="round"/><path d="M1193.43 486.657s10.23 18.786 9.71 25.151l-6.09 13.927c-3.52 6.052-.91 10.911-.91 10.911l37.95-20.344-18.06-37.203" fill="#3F3F46"/><path d="M1316.56 322.391s-130-7.693-167.45 27.573c-30.18 28.427 36.38 150.573 36.38 150.573l47.39-19.948-38.52-86.094 110.63-1.437s44.98-12.849 33.41-70.667" fill="#fff"/><path d="M1316.56 322.391s-130-7.693-167.45 27.573c-30.18 28.427 36.38 150.573 36.38 150.573l47.39-19.948-38.52-86.094 110.63-1.437s44.98-12.849 33.41-70.667h-21.84z" stroke="#3F3F46" stroke-width="1.333" stroke-miterlimit="10" stroke-linecap="round" stroke-linejoin="round"/><path d="M1381.98 232.776s2.78-14.229-13.27-20.052c-14.36-5.218-15.68-19.989-15.68-19.989s-4.59-11.552-17.54-10.823c-12.95.724-6.43-21.219-28.5-25.573-3.31-.651-6.36.672-9.03 2.896-8.18 6.823-9.52 18.927-3.67 27.828l30.02 45.713" fill="#3F3F46"/><path d="M1381.98 232.776s2.78-14.229-13.27-20.052c-14.36-5.218-15.68-19.989-15.68-19.989s-4.59-11.552-17.54-10.823c-12.95.724-6.43-21.219-28.5-25.573-3.31-.651-6.36.672-9.03 2.896-8.18 6.823-9.52 18.927-3.67 27.828l30.02 45.713h57.67z" stroke="#3F3F46" stroke-width="1.333" stroke-miterlimit="10" stroke-linecap="round" stroke-linejoin="round"/><path d="M1298.69 245.058l-14.15-35.276 12.32-17.453 30.37 44.765-28.54 7.964z" fill="#fff" stroke="#3F3F46" stroke-width="1.333" stroke-miterlimit="10" stroke-linecap="round" stroke-linejoin="round"/><path d="M1290.03 221.11l6.16-9.906-9.18 2.588" fill="#3F3F46"/><path d="M1290.03 221.11l6.16-9.906-9.18 2.588 3.02 7.318z" stroke="#3F3F46" stroke-width="1.333" stroke-miterlimit="10" stroke-linecap="round" stroke-linejoin="round"/><path d="M1320.81 167.948c7.59 14.719-5.56 36.604-21.2 44.672-15.64 8.073-28.08 2.818-33.99-12.651-5.51-14.437-2.51-35.984 13.13-44.052 15.64-8.068 34.47-2.682 42.06 12.031z" fill="#fff"/><path d="M1320.81 167.948c7.59 14.719-5.56 36.604-21.2 44.672-15.64 8.073-28.08 2.818-33.99-12.651-5.51-14.437-2.51-35.984 13.13-44.052 15.64-8.068 34.47-2.682 42.06 12.031z" stroke="#3F3F46" stroke-width="1.333" stroke-miterlimit="10" stroke-linecap="round" stroke-linejoin="round"/><path d="M1322.36 172.079c-4.95-15.573-20.68-23.172-37.65-18.485-13.35 3.693-21.94 16.735-22.85 29.901.19.047 10.77-.281 15.29-12.01 0 0 1.26 18.88 21.17 15.213l8.85 20.808c11.81-5.459 20.68-18.177 15.19-35.427z" fill="#3F3F46"/><path d="M1322.36 172.078c-4.95-15.572-20.68-23.171-37.65-18.484-13.35 3.693-21.94 16.734-22.85 29.901.19.047 10.77-.281 15.29-12.01 0 0 1.26 18.88 21.17 15.213l8.85 20.808c11.81-5.459 20.68-18.177 15.19-35.428z" stroke="#3F3F46" stroke-width="1.333" stroke-miterlimit="10" stroke-linecap="round" stroke-linejoin="round"/><mask id="e" style="mask-type:luminance" maskUnits="userSpaceOnUse" x="1279" y="198" width="9" height="9"><path d="M1287.43 198.964h-8v8h8v-8z" fill="#fff"/></mask><g mask="url(#e)"><mask id="f" style="mask-type:luminance" maskUnits="userSpaceOnUse" x="1280" y="199" width="7" height="7"><path d="M1280.76 199.334h5.33v6.297h-5.33v-6.297z" fill="#fff"/></mask><g mask="url(#f)"><path d="M1281.07 205.172s4.28-.323 4.96-5.125l-4.96 5.125z" fill="#fff"/></g><mask id="g" style="mask-type:luminance" maskUnits="userSpaceOnUse" x="1280" y="199" width="7" height="7"><path d="M1280.36 199.334h6.38v6.547h-6.38v-6.547z" fill="#fff"/></mask><g mask="url(#g)"><path d="M1281.07 205.172s4.28-.323 4.96-5.125" stroke="#3F3F46" stroke-width="1.333" stroke-miterlimit="10" stroke-linecap="round" stroke-linejoin="round"/></g></g><mask id="h" style="mask-type:luminance" maskUnits="userSpaceOnUse" x="1295" y="184" width="14" height="19"><path d="M1308.76 184.297h-13.33v18.667h13.33v-18.667z" fill="#fff"/></mask><g mask="url(#h)"><mask id="i" style="mask-type:luminance" maskUnits="userSpaceOnUse" x="1296" y="184" width="12" height="18"><path d="M1296.76 184.87h10.67v16.761h-10.67V184.87z" fill="#fff"/></mask><g mask="url(#i)"><path d="M1300.51 200.896c1.89-.547 3.68-1.838 4.91-3.745 2.47-3.807 1.78-8.63-1.53-10.77-2.25-1.454-4.6-.933-6.65.75" fill="#fff"/></g><mask id="j" style="mask-type:luminance" maskUnits="userSpaceOnUse" x="1296" y="184" width="12" height="18"><path d="M1296.49 184.87h11.07v16.761h-11.07V184.87z" fill="#fff"/></mask><g mask="url(#j)"><path d="M1300.51 200.896c1.89-.547 3.68-1.838 4.91-3.745 2.47-3.807 1.78-8.63-1.53-10.77-2.25-1.454-4.6-.933-6.65.75" stroke="#3F3F46" stroke-width="1.333" stroke-miterlimit="10" stroke-linecap="round" stroke-linejoin="round"/></g></g><mask id="k" style="mask-type:luminance" maskUnits="userSpaceOnUse" x="1296" y="190" width="8" height="8"><path d="M1303.43 190.964h-6.67v6.667h6.67v-6.667z" fill="#fff"/></mask><g mask="url(#k)"><mask id="l" style="mask-type:luminance" maskUnits="userSpaceOnUse" x="1297" y="192" width="6" height="5"><path d="M1297.22 192.297h5.65v4h-5.65v-4z" fill="#fff"/></mask><g mask="url(#l)"><path d="M1297.97 195.954s.92-3.698 4.18-3.006l-4.18 3.006z" fill="#fff"/></g><mask id="m" style="mask-type:luminance" maskUnits="userSpaceOnUse" x="1297" y="192" width="6" height="5"><path d="M1297.22 192.214h5.65v4.479h-5.65v-4.479z" fill="#fff"/></mask><g mask="url(#m)"><path d="M1297.97 195.954s.92-3.698 4.18-3.006" stroke="#3F3F46" stroke-width="1.333" stroke-miterlimit="10" stroke-linecap="round" stroke-linejoin="round"/></g></g><path d="M1309.31 152.792c.32 5.641 5.14 9.953 10.78 9.635 5.63-.317 9.95-5.14 9.63-10.776-.31-5.64-5.14-9.947-10.78-9.635-5.63.318-9.95 5.141-9.63 10.776z" fill="#3F3F46"/><path d="M1309.31 152.792c.32 5.641 5.14 9.953 10.78 9.635 5.63-.317 9.95-5.14 9.63-10.776-.31-5.64-5.14-9.948-10.78-9.635-5.63.318-9.95 5.141-9.63 10.776z" stroke="#3F3F46" stroke-width="1.333" stroke-miterlimit="10" stroke-linecap="round" stroke-linejoin="round"/><path d="M1291.6 234.204l30.1-10.75s36.08 59.895 37.37 99.723c0 0-42.51-.786-79.11-1.192" fill="#3F3F46"/><mask id="n" style="mask-type:luminance" maskUnits="userSpaceOnUse" x="1298" y="250" width="15" height="4"><path d="M1298.09 250.964h14.67v2.667h-14.67v-2.667z" fill="#fff"/></mask><g mask="url(#n)"><mask id="o" style="mask-type:luminance" maskUnits="userSpaceOnUse" x="1279" y="223" width="81" height="101"><path d="M1291.6 234.204l-11.64 87.781c36.6.406 79.11 1.198 79.11 1.198-1.29-39.834-37.37-99.729-37.37-99.729l-30.1 10.75z" fill="#fff"/></mask><g mask="url(#o)"><path d="M1298.96 251.761h12.12" stroke="#fff" stroke-width="1.333" stroke-miterlimit="10" stroke-linecap="round" stroke-linejoin="round"/></g></g><mask id="p" style="mask-type:luminance" maskUnits="userSpaceOnUse" x="1303" y="233" width="16" height="9"><path d="M1303.43 233.631h14.66v8h-14.66v-8z" fill="#fff"/></mask><g mask="url(#p)"><mask id="q" style="mask-type:luminance" maskUnits="userSpaceOnUse" x="1279" y="223" width="81" height="101"><path d="M1291.6 234.203l-11.64 87.782c36.6.406 79.11 1.198 79.11 1.198-1.29-39.834-37.37-99.73-37.37-99.73l-30.1 10.75z" fill="#fff"/></mask><g mask="url(#q)"><path d="M1305.02 239.636l11.3-4.683" stroke="#fff" stroke-width="1.333" stroke-miterlimit="10" stroke-linecap="round" stroke-linejoin="round"/></g></g><mask id="r" style="mask-type:luminance" maskUnits="userSpaceOnUse" x="1322" y="237" width="3" height="17"><path d="M1322.09 237.631h2.67v16h-2.67v-16z" fill="#fff"/></mask><g mask="url(#r)"><mask id="s" style="mask-type:luminance" maskUnits="userSpaceOnUse" x="1279" y="223" width="81" height="101"><path d="M1291.6 234.203l-11.64 87.782c36.6.406 79.11 1.198 79.11 1.198-1.29-39.834-37.37-99.73-37.37-99.73l-30.1 10.75z" fill="#fff"/></mask><g mask="url(#s)"><path d="M1324.03 238.537v13.224" stroke="#fff" stroke-width="1.333" stroke-miterlimit="10" stroke-linecap="round" stroke-linejoin="round"/></g></g><mask id="t" style="mask-type:luminance" maskUnits="userSpaceOnUse" x="1316" y="257" width="12" height="13"><path d="M1316.76 257.631h10.67v12h-10.67v-12z" fill="#fff"/></mask><g mask="url(#t)"><mask id="u" style="mask-type:luminance" maskUnits="userSpaceOnUse" x="1279" y="223" width="81" height="101"><path d="M1291.6 234.203l-11.64 87.782c36.6.406 79.11 1.198 79.11 1.198-1.29-39.834-37.37-99.73-37.37-99.73l-30.1 10.75z" fill="#fff"/></mask><g mask="url(#u)"><path d="M1318.25 267.745l7.99-8.271" stroke="#fff" stroke-width="1.333" stroke-miterlimit="10" stroke-linecap="round" stroke-linejoin="round"/></g></g><mask id="v" style="mask-type:luminance" maskUnits="userSpaceOnUse" x="1299" y="264" width="5" height="14"><path d="M1299.43 264.297h4v13.334h-4v-13.334z" fill="#fff"/></mask><g mask="url(#v)"><mask id="w" style="mask-type:luminance" maskUnits="userSpaceOnUse" x="1279" y="223" width="81" height="101"><path d="M1291.6 234.204l-11.64 87.781c36.6.406 79.11 1.198 79.11 1.198-1.29-39.834-37.37-99.729-37.37-99.729l-30.1 10.75z" fill="#fff"/></mask><g mask="url(#w)"><path d="M1302.27 266.089l-1.38 9.917" stroke="#fff" stroke-width="1.333" stroke-miterlimit="10" stroke-linecap="round" stroke-linejoin="round"/></g></g><mask id="x" style="mask-type:luminance" maskUnits="userSpaceOnUse" x="1311" y="278" width="14" height="5"><path d="M1311.43 278.964h13.33v4h-13.33v-4z" fill="#fff"/></mask><g mask="url(#x)"><mask id="y" style="mask-type:luminance" maskUnits="userSpaceOnUse" x="1279" y="223" width="81" height="101"><path d="M1291.6 234.204l-11.64 87.781c36.6.406 79.11 1.198 79.11 1.198-1.29-39.834-37.37-99.729-37.37-99.729l-30.1 10.75z" fill="#fff"/></mask><g mask="url(#y)"><path d="M1312.46 279.865l11.57 2.203" stroke="#fff" stroke-width="1.333" stroke-miterlimit="10" stroke-linecap="round" stroke-linejoin="round"/></g></g><mask id="z" style="mask-type:luminance" maskUnits="userSpaceOnUse" x="1332" y="272" width="11" height="11"><path d="M1332.76 272.297h9.33v10.667h-9.33v-10.667z" fill="#fff"/></mask><g mask="url(#z)"><mask id="A" style="mask-type:luminance" maskUnits="userSpaceOnUse" x="1279" y="223" width="81" height="101"><path d="M1291.6 234.204l-11.64 87.781c36.6.406 79.11 1.198 79.11 1.198-1.29-39.834-37.37-99.729-37.37-99.729l-30.1 10.75z" fill="#fff"/></mask><g mask="url(#A)"><path d="M1333.68 280.969l7.72-7.713" stroke="#fff" stroke-width="1.333" stroke-miterlimit="10" stroke-linecap="round" stroke-linejoin="round"/></g></g><mask id="B" style="mask-type:luminance" maskUnits="userSpaceOnUse" x="1316" y="289" width="12" height="10"><path d="M1316.76 289.631h10.67v9.333h-10.67v-9.333z" fill="#fff"/></mask><g mask="url(#B)"><mask id="C" style="mask-type:luminance" maskUnits="userSpaceOnUse" x="1279" y="223" width="81" height="101"><path d="M1291.6 234.203l-11.64 87.782c36.6.406 79.11 1.198 79.11 1.198-1.29-39.834-37.37-99.73-37.37-99.73l-30.1 10.75z" fill="#fff"/></mask><g mask="url(#C)"><path d="M1318.25 291.162l7.99 6.338" stroke="#fff" stroke-width="1.333" stroke-miterlimit="10" stroke-linecap="round" stroke-linejoin="round"/></g></g><mask id="D" style="mask-type:luminance" maskUnits="userSpaceOnUse" x="1324" y="309" width="16" height="4"><path d="M1324.76 309.631h14.67v2.666h-14.67v-2.666z" fill="#fff"/></mask><g mask="url(#D)"><mask id="E" style="mask-type:luminance" maskUnits="userSpaceOnUse" x="1279" y="223" width="81" height="101"><path d="M1291.6 234.203l-11.64 87.782c36.6.406 79.11 1.198 79.11 1.198-1.29-39.834-37.37-99.73-37.37-99.73l-30.1 10.75z" fill="#fff"/></mask><g mask="url(#E)"><path d="M1326.24 310.907h12.12" stroke="#fff" stroke-width="1.333" stroke-miterlimit="10" stroke-linecap="round" stroke-linejoin="round"/></g></g><mask id="F" style="mask-type:luminance" maskUnits="userSpaceOnUse" x="1331" y="292" width="14" height="9"><path d="M1331.43 292.297h13.33v8h-13.33v-8z" fill="#fff"/></mask><g mask="url(#F)"><mask id="G" style="mask-type:luminance" maskUnits="userSpaceOnUse" x="1279" y="223" width="81" height="101"><path d="M1291.6 234.204l-11.64 87.781c36.6.406 79.11 1.198 79.11 1.198-1.29-39.834-37.37-99.729-37.37-99.729l-30.1 10.75z" fill="#fff"/></mask><g mask="url(#G)"><path d="M1332.3 298.782l11.3-4.683" stroke="#fff" stroke-width="1.333" stroke-miterlimit="10" stroke-linecap="round" stroke-linejoin="round"/></g></g><mask id="H" style="mask-type:luminance" maskUnits="userSpaceOnUse" x="1350" y="296" width="3" height="17"><path d="M1350.09 296.297h2.67v16h-2.67v-16z" fill="#fff"/></mask><g mask="url(#H)"><mask id="I" style="mask-type:luminance" maskUnits="userSpaceOnUse" x="1279" y="223" width="81" height="101"><path d="M1291.6 234.204l-11.64 87.781c36.6.406 79.11 1.198 79.11 1.198-1.29-39.834-37.37-99.729-37.37-99.729l-30.1 10.75z" fill="#fff"/></mask><g mask="url(#I)"><path d="M1351.31 297.677v13.23" stroke="#fff" stroke-width="1.333" stroke-miterlimit="10" stroke-linecap="round" stroke-linejoin="round"/></g></g><mask id="J" style="mask-type:luminance" maskUnits="userSpaceOnUse" x="1344" y="317" width="12" height="8"><path d="M1344.76 317.631h10.67v6.666h-10.67v-6.666z" fill="#fff"/></mask><g mask="url(#J)"><mask id="K" style="mask-type:luminance" maskUnits="userSpaceOnUse" x="1279" y="223" width="81" height="101"><path d="M1291.6 234.203l-11.64 87.782c36.6.406 79.11 1.198 79.11 1.198-1.29-39.834-37.37-99.73-37.37-99.73l-30.1 10.75z" fill="#fff"/></mask><g mask="url(#K)"><path d="M1345.53 326.886l7.99-8.266" stroke="#fff" stroke-width="1.333" stroke-miterlimit="10" stroke-linecap="round" stroke-linejoin="round"/></g></g><mask id="L" style="mask-type:luminance" maskUnits="userSpaceOnUse" x="1279" y="284" width="6" height="3"><path d="M1279.43 284.297h5.33v2.667h-5.33v-2.667z" fill="#fff"/></mask><g mask="url(#L)"><mask id="M" style="mask-type:luminance" maskUnits="userSpaceOnUse" x="1279" y="223" width="81" height="101"><path d="M1291.6 234.204l-11.64 87.781c36.6.406 79.11 1.198 79.11 1.198-1.29-39.834-37.37-99.729-37.37-99.729l-30.1 10.75z" fill="#fff"/></mask><g mask="url(#M)"><path d="M1271.73 285.792h12.12" stroke="#fff" stroke-width="1.333" stroke-miterlimit="10" stroke-linecap="round" stroke-linejoin="round"/></g></g><mask id="N" style="mask-type:luminance" maskUnits="userSpaceOnUse" x="1279" y="268" width="12" height="7"><path d="M1279.43 268.297h10.66v6.667h-10.66v-6.667z" fill="#fff"/></mask><g mask="url(#N)"><mask id="O" style="mask-type:luminance" maskUnits="userSpaceOnUse" x="1279" y="223" width="81" height="101"><path d="M1291.6 234.204l-11.64 87.781c36.6.406 79.11 1.198 79.11 1.198-1.29-39.834-37.37-99.729-37.37-99.729l-30.1 10.75z" fill="#fff"/></mask><g mask="url(#O)"><path d="M1277.79 273.667l11.3-4.682" stroke="#fff" stroke-width="1.333" stroke-miterlimit="10" stroke-linecap="round" stroke-linejoin="round"/></g></g><mask id="P" style="mask-type:luminance" maskUnits="userSpaceOnUse" x="1290" y="292" width="11" height="11"><path d="M1290.09 292.297h10.67v10.667h-10.67v-10.667z" fill="#fff"/></mask><g mask="url(#P)"><mask id="Q" style="mask-type:luminance" maskUnits="userSpaceOnUse" x="1279" y="223" width="81" height="101"><path d="M1291.6 234.204l-11.64 87.781c36.6.406 79.11 1.198 79.11 1.198-1.29-39.834-37.37-99.729-37.37-99.729l-30.1 10.75z" fill="#fff"/></mask><g mask="url(#Q)"><path d="M1291.02 301.771l7.99-8.265" stroke="#fff" stroke-width="1.333" stroke-miterlimit="10" stroke-linecap="round" stroke-linejoin="round"/></g></g><mask id="R" style="mask-type:luminance" maskUnits="userSpaceOnUse" x="1283" y="312" width="16" height="6"><path d="M1283.43 312.297h14.66v5.334h-14.66v-5.334z" fill="#fff"/></mask><g mask="url(#R)"><mask id="S" style="mask-type:luminance" maskUnits="userSpaceOnUse" x="1279" y="223" width="81" height="101"><path d="M1291.6 234.204l-11.64 87.781c36.6.406 79.11 1.198 79.11 1.198-1.29-39.834-37.37-99.729-37.37-99.729l-30.1 10.75z" fill="#fff"/></mask><g mask="url(#S)"><path d="M1285.23 313.896l11.57 2.203" stroke="#fff" stroke-width="1.333" stroke-miterlimit="10" stroke-linecap="round" stroke-linejoin="round"/></g></g><mask id="T" style="mask-type:luminance" maskUnits="userSpaceOnUse" x="1304" y="305" width="12" height="12"><path d="M1304.76 305.631h10.67v10.666h-10.67v-10.666z" fill="#fff"/></mask><g mask="url(#T)"><mask id="U" style="mask-type:luminance" maskUnits="userSpaceOnUse" x="1279" y="223" width="81" height="101"><path d="M1291.6 234.203l-11.64 87.782c36.6.406 79.11 1.198 79.11 1.198-1.29-39.834-37.37-99.73-37.37-99.73l-30.1 10.75z" fill="#fff"/></mask><g mask="url(#U)"><path d="M1306.45 314.995l7.71-7.713" stroke="#fff" stroke-width="1.333" stroke-miterlimit="10" stroke-linecap="round" stroke-linejoin="round"/></g></g><path d="M1276.7 328.386c-2.42 3.458-5.38 6.547-8.9 8.87-29.37 19.421-61.65-26.855-96.78-38.183-4.86-1.567-9.18-2.896-10.73-1.682-2.61 2.036-5.91 5.109-7.15 4.583-1.41-.604 2.55-4.968 5.13-8.39 0 0-7.85 9.218-9.23 8.114-1.68-1.338 7.19-11.859 7.19-11.859s-10.3 10.364-11.26 7.917c-.95-2.454 9.45-11.276 9.45-11.276s-9.65 7.734-11.36 6.067c-1.4-1.354 6.49-7.062 14.01-11.161 4.45-2.427 9.54-3.427 14.56-2.761 4.81.631 11.62 2.297 20.89 6.131 0 0 34.12 15.661 62.02 30.208l28.92-49.104c3.57-6.047 10.25-9.74 17.24-9.084 5.46.511 11 2.917 12.79 10.073 1.27 5.078-.02 10.464-3.08 14.709" fill="#fff"/><path d="M1276.7 328.386c-2.42 3.458-5.38 6.547-8.9 8.87-29.37 19.421-61.65-26.855-96.78-38.183-4.86-1.567-9.18-2.896-10.73-1.682-2.61 2.036-5.91 5.109-7.15 4.583-1.41-.604 2.55-4.968 5.13-8.39 0 0-7.85 9.218-9.23 8.114-1.68-1.338 7.19-11.859 7.19-11.859s-10.3 10.364-11.26 7.917c-.95-2.454 9.45-11.276 9.45-11.276s-9.65 7.734-11.36 6.067c-1.4-1.354 6.49-7.062 14.01-11.161 4.45-2.427 9.54-3.427 14.56-2.761 4.81.631 11.62 2.297 20.89 6.131 0 0 34.12 15.661 62.02 30.208l28.92-49.104c3.57-6.047 10.25-9.74 17.24-9.084 5.46.511 11 2.917 12.79 10.073 1.27 5.078-.02 10.464-3.08 14.709l-33.71 46.828z" stroke="#3F3F46" stroke-width="1.333" stroke-miterlimit="10" stroke-linecap="round" stroke-linejoin="round"/><path d="M1255.7 301.756l33.42 23.614s53.32-67.14 28.69-83.364c-23.24-15.302-62.11 59.75-62.11 59.75z" fill="#3F3F46"/><path d="M1255.7 301.756l33.42 23.614s53.32-67.14 28.69-83.364c-23.24-15.302-62.11 59.75-62.11 59.75z" stroke="#3F3F46" stroke-width="1.333" stroke-miterlimit="10" stroke-linecap="round" stroke-linejoin="round"/><mask id="V" style="mask-type:luminance" maskUnits="userSpaceOnUse" x="1298" y="250" width="15" height="4"><path d="M1298.09 250.964h14.67v2.667h-14.67v-2.667z" fill="#fff"/></mask><g mask="url(#V)"><mask id="W" style="mask-type:luminance" maskUnits="userSpaceOnUse" x="1255" y="239" width="70" height="87"><path d="M1255.7 301.756l33.42 23.614s53.32-67.14 28.69-83.364c-2.15-1.412-4.44-2.058-6.81-2.058-23.29-.005-55.3 61.808-55.3 61.808z" fill="#fff"/></mask><g mask="url(#W)"><path d="M1298.96 251.761h12.12" stroke="#fff" stroke-width="1.333" stroke-miterlimit="10" stroke-linecap="round" stroke-linejoin="round"/></g></g><mask id="X" style="mask-type:luminance" maskUnits="userSpaceOnUse" x="1303" y="238" width="16" height="4"><path d="M1303.43 238.964h14.66v2.667h-14.66v-2.667z" fill="#fff"/></mask><g mask="url(#X)"><mask id="Y" style="mask-type:luminance" maskUnits="userSpaceOnUse" x="1255" y="239" width="70" height="87"><path d="M1255.7 301.756l33.42 23.614s53.32-67.14 28.69-83.364c-2.15-1.412-4.44-2.058-6.81-2.058-23.29-.005-55.3 61.808-55.3 61.808z" fill="#fff"/></mask><g mask="url(#Y)"><path d="M1305.02 239.636l11.3-4.682" stroke="#fff" stroke-width="1.333" stroke-miterlimit="10" stroke-linecap="round" stroke-linejoin="round"/></g></g><mask id="Z" style="mask-type:luminance" maskUnits="userSpaceOnUse" x="1322" y="238" width="3" height="16"><path d="M1322.09 238.964h2.67v14.667h-2.67v-14.667z" fill="#fff"/></mask><g mask="url(#Z)"><mask id="aa" style="mask-type:luminance" maskUnits="userSpaceOnUse" x="1255" y="239" width="70" height="87"><path d="M1255.7 301.756l33.42 23.614s53.32-67.14 28.69-83.364c-2.15-1.412-4.44-2.058-6.81-2.058-23.29-.005-55.3 61.808-55.3 61.808z" fill="#fff"/></mask><g mask="url(#aa)"><path d="M1324.03 238.537v13.224" stroke="#fff" stroke-width="1.333" stroke-miterlimit="10" stroke-linecap="round" stroke-linejoin="round"/></g></g><mask id="ab" style="mask-type:luminance" maskUnits="userSpaceOnUse" x="1316" y="257" width="9" height="13"><path d="M1316.76 257.631h8v12h-8v-12z" fill="#fff"/></mask><g mask="url(#ab)"><mask id="ac" style="mask-type:luminance" maskUnits="userSpaceOnUse" x="1255" y="239" width="70" height="87"><path d="M1255.7 301.756l33.42 23.614s53.32-67.14 28.69-83.364c-2.15-1.412-4.44-2.058-6.81-2.058-23.29-.005-55.3 61.808-55.3 61.808z" fill="#fff"/></mask><g mask="url(#ac)"><path d="M1318.25 267.745l7.99-8.271" stroke="#fff" stroke-width="1.333" stroke-miterlimit="10" stroke-linecap="round" stroke-linejoin="round"/></g></g><mask id="ad" style="mask-type:luminance" maskUnits="userSpaceOnUse" x="1299" y="264" width="5" height="14"><path d="M1299.43 264.297h4v13.334h-4v-13.334z" fill="#fff"/></mask><g mask="url(#ad)"><mask id="ae" style="mask-type:luminance" maskUnits="userSpaceOnUse" x="1255" y="239" width="70" height="87"><path d="M1255.7 301.756l33.42 23.614s53.32-67.14 28.69-83.364c-2.15-1.412-4.44-2.058-6.81-2.058-23.29-.005-55.3 61.808-55.3 61.808z" fill="#fff"/></mask><g mask="url(#ae)"><path d="M1302.27 266.089l-1.38 9.917" stroke="#fff" stroke-width="1.333" stroke-miterlimit="10" stroke-linecap="round" stroke-linejoin="round"/></g></g><mask id="af" style="mask-type:luminance" maskUnits="userSpaceOnUse" x="1311" y="278" width="14" height="5"><path d="M1311.43 278.964h13.33v4h-13.33v-4z" fill="#fff"/></mask><g mask="url(#af)"><mask id="ag" style="mask-type:luminance" maskUnits="userSpaceOnUse" x="1255" y="239" width="70" height="87"><path d="M1255.7 301.756l33.42 23.614s53.32-67.14 28.69-83.364c-2.15-1.412-4.44-2.058-6.81-2.058-23.29-.005-55.3 61.808-55.3 61.808z" fill="#fff"/></mask><g mask="url(#ag)"><path d="M1312.46 279.865l11.57 2.203" stroke="#fff" stroke-width="1.333" stroke-miterlimit="10" stroke-linecap="round" stroke-linejoin="round"/></g></g><mask id="ah" style="mask-type:luminance" maskUnits="userSpaceOnUse" x="1316" y="289" width="9" height="10"><path d="M1316.76 289.631h8v9.333h-8v-9.333z" fill="#fff"/></mask><g mask="url(#ah)"><mask id="ai" style="mask-type:luminance" maskUnits="userSpaceOnUse" x="1255" y="239" width="70" height="87"><path d="M1255.7 301.756l33.42 23.614s53.32-67.14 28.69-83.364c-2.15-1.412-4.44-2.058-6.81-2.058-23.29-.005-55.3 61.808-55.3 61.808z" fill="#fff"/></mask><g mask="url(#ai)"><path d="M1318.25 291.162l7.99 6.338" stroke="#fff" stroke-width="1.333" stroke-miterlimit="10" stroke-linecap="round" stroke-linejoin="round"/></g></g><mask id="aj" style="mask-type:luminance" maskUnits="userSpaceOnUse" x="1270" y="284" width="15" height="3"><path d="M1270.09 284.297h14.67v2.667h-14.67v-2.667z" fill="#fff"/></mask><g mask="url(#aj)"><mask id="ak" style="mask-type:luminance" maskUnits="userSpaceOnUse" x="1255" y="239" width="70" height="87"><path d="M1255.7 301.756l33.42 23.614s53.32-67.14 28.69-83.364c-2.15-1.412-4.44-2.058-6.81-2.058-23.29-.005-55.3 61.808-55.3 61.808z" fill="#fff"/></mask><g mask="url(#ak)"><path d="M1271.73 285.792h12.12" stroke="#fff" stroke-width="1.333" stroke-miterlimit="10" stroke-linecap="round" stroke-linejoin="round"/></g></g><mask id="al" style="mask-type:luminance" maskUnits="userSpaceOnUse" x="1276" y="268" width="15" height="7"><path d="M1276.76 268.297h13.33v6.667h-13.33v-6.667z" fill="#fff"/></mask><g mask="url(#al)"><mask id="am" style="mask-type:luminance" maskUnits="userSpaceOnUse" x="1255" y="239" width="70" height="87"><path d="M1255.7 301.756l33.42 23.614s53.32-67.14 28.69-83.364c-2.15-1.412-4.44-2.058-6.81-2.058-23.29-.005-55.3 61.808-55.3 61.808z" fill="#fff"/></mask><g mask="url(#am)"><path d="M1277.79 273.667l11.3-4.682" stroke="#fff" stroke-width="1.333" stroke-miterlimit="10" stroke-linecap="round" stroke-linejoin="round"/></g></g><mask id="an" style="mask-type:luminance" maskUnits="userSpaceOnUse" x="1290" y="292" width="11" height="11"><path d="M1290.09 292.297h10.67v10.667h-10.67v-10.667z" fill="#fff"/></mask><g mask="url(#an)"><mask id="ao" style="mask-type:luminance" maskUnits="userSpaceOnUse" x="1255" y="239" width="70" height="87"><path d="M1255.7 301.756l33.42 23.614s53.32-67.14 28.69-83.364c-2.15-1.412-4.44-2.058-6.81-2.058-23.29-.005-55.3 61.808-55.3 61.808z" fill="#fff"/></mask><g mask="url(#ao)"><path d="M1291.02 301.771l7.99-8.265" stroke="#fff" stroke-width="1.333" stroke-miterlimit="10" stroke-linecap="round" stroke-linejoin="round"/></g></g><mask id="ap" style="mask-type:luminance" maskUnits="userSpaceOnUse" x="1272" y="298" width="5" height="13"><path d="M1272.76 298.964h4v12h-4v-12z" fill="#fff"/></mask><g mask="url(#ap)"><mask id="aq" style="mask-type:luminance" maskUnits="userSpaceOnUse" x="1255" y="239" width="70" height="87"><path d="M1255.7 301.756l33.42 23.614s53.32-67.14 28.69-83.364c-2.15-1.412-4.44-2.058-6.81-2.058-23.29-.005-55.3 61.808-55.3 61.808z" fill="#fff"/></mask><g mask="url(#aq)"><path d="M1275.03 300.12l-1.37 9.917" stroke="#fff" stroke-width="1.333" stroke-miterlimit="10" stroke-linecap="round" stroke-linejoin="round"/></g></g><mask id="ar" style="mask-type:luminance" maskUnits="userSpaceOnUse" x="1283" y="312" width="16" height="6"><path d="M1283.43 312.297h14.66v5.334h-14.66v-5.334z" fill="#fff"/></mask><g mask="url(#ar)"><mask id="as" style="mask-type:luminance" maskUnits="userSpaceOnUse" x="1255" y="239" width="70" height="87"><path d="M1255.7 301.756l33.42 23.614s53.32-67.14 28.69-83.364c-2.15-1.412-4.44-2.058-6.81-2.058-23.29-.005-55.3 61.808-55.3 61.808z" fill="#fff"/></mask><g mask="url(#as)"><path d="M1285.23 313.896l11.57 2.203" stroke="#fff" stroke-width="1.333" stroke-miterlimit="10" stroke-linecap="round" stroke-linejoin="round"/></g></g><mask id="at" style="mask-type:luminance" maskUnits="userSpaceOnUse" x="1304" y="305" width="12" height="12"><path d="M1304.76 305.631h10.67v10.666h-10.67v-10.666z" fill="#fff"/></mask><g mask="url(#at)"><mask id="au" style="mask-type:luminance" maskUnits="userSpaceOnUse" x="1255" y="239" width="70" height="87"><path d="M1255.7 301.756l33.42 23.614s53.32-67.14 28.69-83.364c-2.15-1.412-4.44-2.058-6.81-2.058-23.29-.005-55.3 61.808-55.3 61.808z" fill="#fff"/></mask><g mask="url(#au)"><path d="M1306.45 314.995l7.71-7.713" stroke="#fff" stroke-width="1.333" stroke-miterlimit="10" stroke-linecap="round" stroke-linejoin="round"/></g></g><mask id="av" style="mask-type:luminance" maskUnits="userSpaceOnUse" x="1290" y="324" width="11" height="2"><path d="M1290.09 324.297h10.67v1.334h-10.67v-1.334z" fill="#fff"/></mask><g mask="url(#av)"><mask id="aw" style="mask-type:luminance" maskUnits="userSpaceOnUse" x="1255" y="239" width="70" height="87"><path d="M1255.7 301.756l33.42 23.614s53.32-67.14 28.69-83.364c-2.15-1.412-4.44-2.058-6.81-2.058-23.29-.005-55.3 61.808-55.3 61.808z" fill="#fff"/></mask><g mask="url(#aw)"><path d="M1291.02 325.193l7.99 6.339" stroke="#fff" stroke-width="1.333" stroke-miterlimit="10" stroke-linecap="round" stroke-linejoin="round"/></g></g><path d="M601.932 258.969c.266 4.834-4.744 9.203-9.489 8.276-5.521-1.078-8.203-7.25-12.485-10.896-1.906-1.625-4.463-2.807-6.89-2.177-1.13.292-2.13.953-3.016 1.709-3.323 2.833-5.213 6.948-7.526 10.651-2.318 3.703-5.531 7.323-9.844 8.021-4.187.677-8.406-1.683-11.099-4.959-2.698-3.281-4.166-7.37-5.583-11.37" stroke="#3F3F46" stroke-width="1.333" stroke-miterlimit="10" stroke-linecap="round" stroke-linejoin="round"/><mask id="ax" style="mask-type:luminance" maskUnits="userSpaceOnUse" x="390" y="571" width="63" height="63"><path d="M390 571.333h62.438v62.203H390v-62.203z" fill="#fff"/></mask><g mask="url(#ax)"><path d="M481.828 571.911l-2.489 2.495-6.125 6.125-6.131 6.125-18.375 18.375-6.125 6.13v-.005l-6.13 6.125-6.125 6.125-11.953 11.959-6.422 6.421-6.13 6.125-15.021 15.021c.386-.005.776-.015 1.162-.031l9.192-9.193 6.13-6.125 6.12-6.125h.005l12.25-12.25 6.125-6.13 6.131-6.125 30.625-30.625 6.13-6.125 7.125-7.125c.01-.39.026-.776.031-1.167z" fill="#3E6EC1"/></g><mask id="ay" style="mask-type:luminance" maskUnits="userSpaceOnUse" x="396" y="578" width="57" height="56"><path d="M396.667 578h55.771v55.536h-55.771V578z" fill="#fff"/></mask><g mask="url(#ay)"><path d="M481.474 578.396l-8.26 8.26-6.131 6.125-18.375 18.375-6.125 6.13v-.005l-6.13 6.13v-.005l-6.125 6.13-18.375 18.375-6.13 6.125-8.542 8.542c.417-.036.834-.073 1.245-.114l8.458-8.459.302-.297 18.375-18.375 6.125-6.13v.005l6.131-6.125 6.119-6.125h.006l6.125-6.13 12.25-12.25 6.13-6.125 12.812-12.812c.042-.412.079-.828.115-1.245z" fill="#3E6EC1"/></g><mask id="az" style="mask-type:luminance" maskUnits="userSpaceOnUse" x="431" y="612" width="22" height="22"><path d="M431.333 612.667h21.105v20.869h-21.105v-20.869z" fill="#fff"/></mask><g mask="url(#az)"><path d="M431.979 652.385a94.299 94.299 0 002.479-1.343l3.453-3.459h.006l6.119-6.125h.006l6.125-6.125 6.125-6.13v.005l12.25-12.25 1.39-1.385c.459-.823.907-1.646 1.344-2.479l-4.187 4.192-.006-.005-6.125 6.13v-.005l-11.953 11.953-.297.302-6.125 6.125-6.13 6.125" fill="#3E6EC1"/></g><mask id="aA" style="mask-type:luminance" maskUnits="userSpaceOnUse" x="420" y="602" width="33" height="32"><path d="M420.667 602h31.771v31.536h-31.771V602z" fill="#fff"/></mask><g mask="url(#aA)"><path d="M420.958 657.276a58.54 58.54 0 001.828-.693l15.125-15.125h.006l6.125-6.125 6.125-6.13v.005l12.25-12.25 6.125-6.13 6.13-6.125.807-.807c.235-.604.469-1.214.693-1.823l-9.083 9.083h-.006l-6.125 6.13v-.005l-6.125 6.13v-.005l-6.125 6.125-6.125 6.13-6.125 6.125h-.005l-6.125 6.125" fill="#3E6EC1"/></g><mask id="aB" style="mask-type:luminance" maskUnits="userSpaceOnUse" x="411" y="592" width="42" height="42"><path d="M411.333 592.667h41.105v40.869h-41.105v-40.869z" fill="#fff"/></mask><g mask="url(#aB)"><path d="M419.536 653.708l12.25-12.25 6.131-6.125 6.125-6.125 6.125-6.13 6.125-6.12 6.125-6.13 6.13-6.125 6.125-6.125 3.854-3.849c.141-.515.281-1.031.417-1.552l-11.854 11.854-6.131 6.125-12.25 12.25-6.125 6.131-6.125 6.125h-.005l-24.385 24.385c.515-.135 1.031-.276 1.547-.417" fill="#3E6EC1"/></g><mask id="aC" style="mask-type:luminance" maskUnits="userSpaceOnUse" x="403" y="584" width="50" height="50"><path d="M403.333 584.667h49.105v48.869h-49.105v-48.869z" fill="#fff"/></mask><g mask="url(#aC)"><path d="M413.411 653.708l24.5-24.5h.006l6.125-6.13 6.125-6.12 12.25-12.255 6.13-6.125 11.792-11.792c.083-.453.156-.911.234-1.364l-13.484 13.484h-.006l-12.25 12.25-6.125 6.13v-.005l-36.755 36.755-6.13 6.125-1.516 1.521c.453-.078.912-.156 1.365-.239l1.609-1.61" fill="#3E6EC1"/></g><mask id="aD" style="mask-type:luminance" maskUnits="userSpaceOnUse" x="325" y="506" width="7" height="7"><path d="M325.354 506.458h5.979v6.209h-5.979v-6.209z" fill="#fff"/></mask><g mask="url(#aD)"><path d="M330.62 497.594a94.004 94.004 0 00-14.125 14.12l5.021-5.016 6.13-6.13" fill="#3E6EC1"/></g><mask id="aE" style="mask-type:luminance" maskUnits="userSpaceOnUse" x="372" y="554" width="81" height="80"><path d="M372.667 554h79.771v79.536h-79.771V554z" fill="#fff"/></mask><g mask="url(#aE)"><path d="M480.604 554.766l-7.39 7.39-6.131 6.125-24.5 24.5-6.13 6.125-12.25 12.25-6.125 6.13v-.005l-30.63 30.63-6.13 6.125-7.667 7.667c.323.057.646.109.969.162l8.161-8.157 24.203-24.203.302-.297 6.125-6.13 6.125-6.12 6.125-6.13 6.125-6.125 6.131-6.125 6.119-6.125h.006l18.375-18.375 6.13-6.125 6.125-6.13 6.094-6.089c-.052-.328-.11-.645-.162-.968z" fill="#3E6EC1"/></g><mask id="aF" style="mask-type:luminance" maskUnits="userSpaceOnUse" x="378" y="559" width="75" height="75"><path d="M378 559.333h74.438v74.203H378v-74.203z" fill="#fff"/></mask><g mask="url(#aF)"><path d="M481.333 560.156l-1.994 2-6.125 6.125-6.131 6.125-24.5 24.5-6.13 6.125-49.005 49.005-6.13 6.125-2.276 2.277c.343.036.687.067 1.031.098l2.708-2.703 24.5-24.5 6.13-6.125 6.125-6.13 6.125-6.12 12.25-12.255h.006l6.119-6.125h.006l24.5-24.5 6.13-6.125 6.125-6.13.635-.635c-.031-.344-.062-.688-.099-1.032z" fill="#3E6EC1"/></g><mask id="aG" style="mask-type:luminance" maskUnits="userSpaceOnUse" x="384" y="564" width="69" height="70"><path d="M384.667 564.667h67.771v68.869h-67.771v-68.869z" fill="#fff"/></mask><g mask="url(#aG)"><path d="M481.755 565.859l-2.416 2.422-12.25 12.25-6.131 6.125-18.375 18.375-6.125 6.13-.005-.005-12.25 12.25-6.125 6.13-6.125 6.125-6.13 6.125-21.073 21.073c.359.016.724.032 1.089.042l21.442-21.443h.005l12.25-12.25 6.125-6.13 6.125-6.125 6.131-6.125 24.5-24.5 6.13-6.125 6.125-6.125 6.125-6.13v.005l1-1.005a83.082 83.082 0 00-.042-1.089z" fill="#3E6EC1"/></g><mask id="aH" style="mask-type:luminance" maskUnits="userSpaceOnUse" x="350" y="530" width="103" height="104"><path d="M350 530h102.438v103.536H350V530z" fill="#fff"/></mask><g mask="url(#aH)"><path d="M473.432 531.302l-.218.224-6.125 6.125h-.006l-12.25 12.25-6.125 6.13-12.25 12.25h-.005l-24.5 24.5-6.13 6.125-18.375 18.375-6.13 6.125-6.125 6.13-18.375 18.375h-.005l-6.62 6.62c.255.12.515.24.776.354l7.302-7.302 6.13-6.125 49.005-49.005h.005l18.375-18.375 6.125-6.13.006.005 12.25-12.25 6.125-6.13 6.125-6.125 6.13-6.125 5.239-5.245c-.114-.255-.234-.515-.354-.776z" fill="#3E6EC1"/></g><mask id="aI" style="mask-type:luminance" maskUnits="userSpaceOnUse" x="354" y="535" width="99" height="99"><path d="M354 535.333h98.438v98.203H354v-98.203z" fill="#fff"/></mask><g mask="url(#aI)"><path d="M475.589 536.406a45.692 45.692 0 00-.318-.812l-8.182 8.182-6.131 6.125-6.125 6.13-18.375 18.375h-.005l-24.5 24.5-6.13 6.125-42.88 42.88-6.13 6.125-2.334 2.339c.271.104.542.208.813.318l15.234-15.235 12.255-12.25 6.125-6.13 6.125-6.12 36.755-36.755 6.131-6.125 6.125-6.125 6.125-6.13 6.125-6.12 6.125-6.13 6.13-6.125 6.125-6.125" fill="#3E6EC1"/></g><mask id="aJ" style="mask-type:luminance" maskUnits="userSpaceOnUse" x="338" y="519" width="115" height="115"><path d="M338 519.333h114.438v114.203H338V519.333z" fill="#fff"/></mask><g mask="url(#aJ)"><path d="M466.911 519.453l-5.953 5.948-12.25 12.25-6.125 6.13v-.005l-6.125 6.125h-.005l-6.125 6.13-18.375 18.375-6.13 6.125-18.375 18.375-6.13 6.125-12.25 12.25-6.125 6.13v-.005l-24.604 24.604c.229.146.458.297.687.443l13.12-13.12 6.125-6.13v.005l6.13-6.125 42.88-42.88 6.13-6.125 6.125-6.125 6.125-6.13 12.25-12.25h.006l29.437-29.438c-.146-.229-.291-.458-.443-.682z" fill="#3E6EC1"/></g><mask id="aK" style="mask-type:luminance" maskUnits="userSpaceOnUse" x="342" y="522" width="111" height="112"><path d="M342 522h110.438v111.536H342V522z" fill="#fff"/></mask><g mask="url(#aK)"><path d="M469.661 523.958c-.135-.244-.276-.479-.416-.713l-2.162 2.156-12.25 12.25-6.125 6.13v-.005l-36.755 36.755-6.13 6.125-18.375 18.375-6.13 6.125-6.125 6.13v-.005l-18.38 18.38-6.12 6.125h-.005l-8.558 8.558c.235.14.474.281.714.416l15.427-15.427 6.13-6.125 36.755-36.755 6.13-6.125 18.375-18.375 6.125-6.13 6.131-6.12 6.125-6.13 18.375-18.375 6.13-6.125" fill="#3E6EC1"/></g><mask id="aL" style="mask-type:luminance" maskUnits="userSpaceOnUse" x="327" y="508" width="126" height="126"><path d="M327.333 508.667h125.105v124.869H327.333V508.667z" fill="#fff"/></mask><g mask="url(#aL)"><path d="M459.531 509.583c-.172-.203-.343-.406-.521-.609l-16.427 16.427-6.13 6.125-18.375 18.375-6.125 6.13-6.13 6.125-18.375 18.375-6.13 6.125-24.505 24.505v-.005l-12.25 12.25-12.25 12.255h-.006l-4.442 4.448c.198.172.406.344.604.521l5.302-5.297 6.125-6.125 6.125-6.13 12.25-12.25 6.13-6.125 12.25-12.25 6.13-6.125 18.375-18.375 6.13-6.125 6.125-6.125 6.125-6.13 18.375-18.375h.006l18.375-18.375" fill="#3E6EC1"/></g><mask id="aM" style="mask-type:luminance" maskUnits="userSpaceOnUse" x="325" y="506" width="128" height="128"><path d="M325.354 506.458h127.084v127.078H325.354V506.458z" fill="#fff"/></mask><g mask="url(#aM)"><path d="M456.635 506.354c-.182-.198-.364-.39-.546-.583l-13.506 13.505-6.13 6.125-49.005 49.005-6.13 6.125-18.375 18.375h-.005l-6.125 6.125-6.12 6.125h-.005l-26.027 26.026c.193.188.386.365.584.547l2.396-2.396 6.13-6.125 6.125-6.13 6.125-6.12 6.125-6.13 6.125-6.125 6.13-6.125 17.927-17.927.453-.448 12.25-12.25 6.125-6.13 6.13-6.12 6.125-6.13 18.375-18.375 6.131-6.125 18.375-18.375" fill="#3E6EC1"/></g><mask id="aN" style="mask-type:luminance" maskUnits="userSpaceOnUse" x="330" y="511" width="123" height="123"><path d="M330 511.333h122.438v122.203H330V511.333z" fill="#fff"/></mask><g mask="url(#aN)"><path d="M462.286 512.953l-.494-.635-19.209 19.208-6.13 6.125-6.125 6.13v-.005l-6.125 6.125-6.125 6.13-6.125 6.125-6.13 6.125-18.375 18.375-6.13 6.125-24.505 24.506v-.006l-6.125 6.131v-.006l-6.125 6.131-12.25 12.25-1.105 1.098c.209.167.422.334.636.5l8.052-8.052 6.125-6.13v.005l36.755-36.755h.005l30.63-30.63 6.125-6.12 6.125-6.13 12.25-12.25h.006l18.375-18.375" fill="#3E6EC1"/></g><mask id="aO" style="mask-type:luminance" maskUnits="userSpaceOnUse" x="325" y="506" width="128" height="128"><path d="M325.354 506.458h127.084v127.078H325.354V506.458z" fill="#fff"/></mask><g mask="url(#aO)"><path d="M453.594 503.266c-.188-.183-.375-.37-.568-.558l-16.568 16.568-6.13 6.125-12.25 12.25-6.125 6.13v-.005l-6.13 6.13-6.125 6.12-6.125 6.13-6.125 6.125-6.13 6.125-18.375 18.375h-.005l-6.12 6.125-6.13 6.125-18.375 18.375h-.006l-6.125 6.125-4.583 4.589c.182.193.37.38.557.573l11.615-11.615 6.125-6.12 12.25-12.255 6.125-6.125 6.13-6.125 12.25-12.25 6.13-6.125 6.125-6.125 6.125-6.13 6.125-6.125 6.13-6.125 18.375-18.375 6.131-6.125 18.375-18.375" fill="#3E6EC1"/></g><mask id="aP" style="mask-type:luminance" maskUnits="userSpaceOnUse" x="325" y="506" width="81" height="82"><path d="M325.354 506.458H406v80.875h-80.646v-80.875z" fill="#fff"/></mask><g mask="url(#aP)"><path d="M399.698 482.526l-6.125 6.125-6.125 6.12-30.63 30.63h-.005l-24.5 24.5-6.125 6.13h-.006l-29.015 29.016.156.969 5.818-5.813 6.125-6.125 6.125-6.13v.005l36.755-36.755 6.13-6.125 18.375-18.375 6.13-6.125 6.125-6.125 6.125-6.13v.005l6.125-6.13 3.766-3.761a65.208 65.208 0 00-.969-.161" fill="#3E6EC1"/></g><mask id="aQ" style="mask-type:luminance" maskUnits="userSpaceOnUse" x="325" y="506" width="76" height="75"><path d="M325.354 506.458h75.313v74.209h-75.313v-74.209z" fill="#fff"/></mask><g mask="url(#aQ)"><path d="M393.573 482.526l-6.125 6.125-6.13 6.12-6.125 6.13-12.25 12.25-6.13 6.125-24.5 24.5-6.131 6.125-6.125 6.13-18.375 18.375-5.239 5.235c.036.343.078.677.114 1.015l.453-.453 6.131-6.125 6.125-6.13v.005l12.25-12.25 6.125-6.13 6.13-6.125 24.5-24.5 6.13-6.125 12.25-12.25 6.13-6.125 6.125-6.13v.005l6.125-6.13 4.532-4.532c-.339-.036-.678-.078-1.016-.114" fill="#3E6EC1"/></g><mask id="aR" style="mask-type:luminance" maskUnits="userSpaceOnUse" x="325" y="506" width="69" height="70"><path d="M325.354 506.458H394v68.875h-68.646v-68.875z" fill="#fff"/></mask><g mask="url(#aR)"><path d="M387.448 482.526l-6.13 6.125-6.125 6.12-6.125 6.13-6.125 6.125-6.13 6.125-24.5 24.5h-.006l-12.25 12.25-6.125 6.13-12.25 12.25h-.005l-5.641 5.646c.016.359.027.719.047 1.078l.927-.927 6.125-6.13.006.005 12.25-12.25 6.125-6.13 6.125-6.125 6.13-6.125 24.5-24.5 6.13-6.125 18.38-18.38v.005l6.125-6.13 5.005-5.005c-.359-.021-.718-.032-1.083-.047" fill="#3E6EC1"/></g><mask id="aS" style="mask-type:luminance" maskUnits="userSpaceOnUse" x="325" y="506" width="64" height="64"><path d="M325.354 506.458h63.313V570h-63.313v-63.542z" fill="#fff"/></mask><g mask="url(#aS)"><path d="M381.318 482.526l-6.125 6.125-6.125 6.12-6.125 6.13h-.005l-6.12 6.125-6.13 6.125-18.375 18.375h-.006l-6.119 6.125h-.006l-12.25 12.25-6.125 6.13-6.125 6.125-5.708 5.703c-.01.381-.01.761-.016 1.146l1.058-1.057v.005l6.119-6.125 6.131-6.125 6.125-6.13 12.25-12.25 6.13-6.125 24.5-24.5 6.13-6.125 23.51-23.51c-.385.005-.765.005-1.145.015" fill="#3E6EC1"/></g><mask id="aT" style="mask-type:luminance" maskUnits="userSpaceOnUse" x="325" y="506" width="51" height="51"><path d="M325.354 506.458h49.979v50.209h-49.979v-50.209z" fill="#fff"/></mask><g mask="url(#aT)"><path d="M369.068 482.526l-6.125 6.125h-.005l-30.625 30.625h-.006l-6.119 6.125h-.006l-24.5 24.5-4.411 4.406c-.073.453-.151.907-.224 1.354l6.088-6.088 6.131-6.125 18.375-18.375 6.13-6.125 30.63-30.63v.005l6.125-6.13 4.047-4.042a64.09 64.09 0 00-1.359.224" fill="#3E6EC1"/></g><mask id="aU" style="mask-type:luminance" maskUnits="userSpaceOnUse" x="367" y="548" width="86" height="86"><path d="M367.333 548.667h85.105v84.869h-85.105v-84.869z" fill="#fff"/></mask><g mask="url(#aU)"><path d="M370.526 659.833l6.125-6.125 6.13-6.125 12.25-12.25 6.125-6.13v.005l6.125-6.125 6.13-6.125 6.125-6.13 12.25-12.25 6.131-6.125 36.755-36.755 5.141-5.136-.204-.927-.27.271-6.125 6.12-6.125 6.13h-.006l-30.625 30.625h-.005l-18.375 18.375-6.125 6.13v-.005l-6.13 6.13v-.005l-6.125 6.125-6.125 6.13-6.125 6.125-6.13 6.125-12.797 12.797c.307.068.614.141.927.203" fill="#3E6EC1"/></g><mask id="aV" style="mask-type:luminance" maskUnits="userSpaceOnUse" x="363" y="544" width="90" height="90"><path d="M363.333 544.667h89.105v88.869h-89.105v-88.869z" fill="#fff"/></mask><g mask="url(#aV)"><path d="M370.526 653.708l6.125-6.125 6.13-6.125 12.25-12.25 6.125-6.13 6.125-6.12h.005l6.125-6.13 18.375-18.375 6.131-6.125 18.375-18.375 6.125-6.13 6.13-6.12 6.125-6.13 3.948-3.943c-.084-.297-.162-.594-.245-.89l-35.792 35.791-6.13 6.125-30.63 30.63v-.005l-6.125 6.125-12.25 12.255-6.13 6.125-17.693 17.693c.297.083.594.156.891.24" fill="#3E6EC1"/></g><mask id="aW" style="mask-type:luminance" maskUnits="userSpaceOnUse" x="358" y="539" width="95" height="95"><path d="M358 539.333h94.438v94.203H358v-94.203z" fill="#fff"/></mask><g mask="url(#aW)"><path d="M364.401 653.708l12.25-12.25 6.13-6.125 6.125-6.125 6.125-6.13 6.125-6.12 6.125-6.13 6.13-6.125 24.5-24.5h.006l12.25-12.25 6.125-6.13 6.125-6.12 6.125-6.13 6.13-6.125 2.531-2.531c-.088-.287-.182-.568-.276-.849l-3.713 3.713v-.005l-6.125 6.125h-.006l-6.125 6.13-24.5 24.5h-.005l-24.5 24.5-6.13 6.125-6.125 6.13v-.005l-6.125 6.125-6.125 6.13-6.13 6.125-22.365 22.365.849.281" fill="#3E6EC1"/></g><mask id="aX" style="mask-type:luminance" maskUnits="userSpaceOnUse" x="325" y="506" width="35" height="34"><path d="M325.354 506.458h33.979v32.875h-33.979v-32.875z" fill="#fff"/></mask><g mask="url(#aX)"><path d="M358.234 482.234c-.593.209-1.182.417-1.765.636l-24.156 24.156-6.131 6.125-24.411 24.412a89.31 89.31 0 00-.636 1.765l26.506-26.505 6.13-6.125 12.25-12.25 6.125-6.13" fill="#3E6EC1"/></g><mask id="aY" style="mask-type:luminance" maskUnits="userSpaceOnUse" x="346" y="526" width="107" height="108"><path d="M346 526h106.438v107.536H346V526z" fill="#fff"/></mask><g mask="url(#aY)"><path d="M352.146 647.583l6.125-6.125h.005l12.25-12.25 6.125-6.13 6.13-6.125 24.5-24.5h.005l24.5-24.5 6.131-6.125 6.125-6.125 6.125-6.13 12.25-12.25 6.13-6.125 3.26-3.26c-.125-.25-.255-.5-.385-.745l-4.333 4.333-6.131 6.125-12.25 12.25-6.125 6.13-6.125 6.125h-.005l-24.5 24.5-6.13 6.125-6.125 6.125-12.25 12.255v-.005l-6.13 6.125-6.125 6.125-11.953 11.959-6.422 6.421h-.005l-10.735 10.735c.245.13.495.26.745.385" fill="#3E6EC1"/></g><mask id="aZ" style="mask-type:luminance" maskUnits="userSpaceOnUse" x="325" y="506" width="24" height="24"><path d="M325.354 506.458h23.313V530h-23.313v-23.542z" fill="#fff"/></mask><g mask="url(#aZ)"><path d="M345.333 487.88l-.77.766-6.125 6.13-12.25 12.25h-.006l-19.401 19.401a75.802 75.802 0 00-1.192 2.323l22.052-22.052 6.13-6.125 6.125-6.125 6.125-6.13 1.635-1.63c-.781.385-1.557.781-2.323 1.192z" fill="#3E6EC1"/></g><mask id="ba" style="mask-type:luminance" maskUnits="userSpaceOnUse" x="334" y="515" width="119" height="119"><path d="M334 515.333h118.438v118.203H334V515.333z" fill="#fff"/></mask><g mask="url(#ba)"><path d="M339.896 641.458l18.375-18.375 6.13-6.125 6.125-6.13 12.25-12.25h.005l24.5-24.5 6.13-6.125 6.125-6.13 6.125-6.12 6.125-6.13 6.125-6.125h.006l26.979-26.979a47.072 47.072 0 00-.474-.656l-27.969 27.968v-.005l-6.125 6.125-6.125 6.13-12.25 12.25-6.13 6.125-18.375 18.375-6.13 6.125-12.25 12.25-6.125 6.13v-.005l-6.13 6.125-6.125 6.13-12.25 12.25-3.74 3.735c.219.161.437.318.661.474" fill="#3E6EC1"/></g><mask id="bb" style="mask-type:luminance" maskUnits="userSpaceOnUse" x="325" y="506" width="127" height="127"><path d="M325.354 506.458h125.979v126.209H325.354V506.458z" fill="#fff"/></mask><g mask="url(#bb)"><path d="M318.682 630.911c.172.198.354.396.532.599l2.302-2.302 6.125-6.13 6.13-6.125 24.5-24.5 6.13-6.125 18.38-18.38v.005l12.25-12.25 6.125-6.13 6.125-6.125 6.13-6.125 24.5-24.5h.006l12.5-12.5a64.396 64.396 0 01-.599-.531l-13.36 13.359h-.005l-24.5 24.5-6.13 6.125-6.125 6.125-6.125 6.13-6.125 6.125-6.13 6.125-24.5 24.5h-.005l-24.5 24.5-6.131 6.125-6.125 6.13" fill="#3E6EC1"/></g><mask id="bc" style="mask-type:luminance" maskUnits="userSpaceOnUse" x="325" y="506" width="120" height="120"><path d="M325.354 506.458h119.313V626H325.354V506.458z" fill="#fff"/></mask><g mask="url(#bc)"><path d="M313.276 624.063c.162.218.323.437.479.651l1.636-1.631 6.125-6.125 6.125-6.13 6.13-6.125 24.5-24.5 6.13-6.125 6.125-6.125 6.125-6.13 6.13-6.12 6.125-6.13 12.25-12.25 6.13-6.125 24.5-24.5 6.131-6.125 5.703-5.708c-.219-.162-.432-.323-.651-.48l-.386.391-6.13 6.125-24.5 24.5-6.13 6.125-42.88 42.88-6.13 6.125-18.375 18.375-6.131 6.125-6.125 6.125-6.125 6.13v-.005l-6.125 6.13v-.005" fill="#3E6EC1"/></g><mask id="bd" style="mask-type:luminance" maskUnits="userSpaceOnUse" x="325" y="506" width="116" height="116"><path d="M325.354 506.458h115.313V622H325.354V506.458z" fill="#fff"/></mask><g mask="url(#bd)"><path d="M315.391 616.958l12.25-12.255 6.13-6.125 18.375-18.375 6.13-6.125 6.125-6.125 6.125-6.13 6.125-6.12 30.63-30.63 6.13-6.125 18.375-18.375 6.131-6.125 2.088-2.094a32.055 32.055 0 00-.682-.448l-2.865 2.87h-.005l-24.5 24.5-6.13 6.125-12.25 12.25-6.125 6.13v-.005l-6.13 6.125-6.125 6.13-18.375 18.375h-.005l-24.5 24.5-6.131 6.125-15.385 15.386c.151.229.297.458.448.682" fill="#3E6EC1"/></g><mask id="be" style="mask-type:luminance" maskUnits="userSpaceOnUse" x="325" y="506" width="123" height="123"><path d="M325.354 506.458h121.979v122.209H325.354V506.458z" fill="#fff"/></mask><g mask="url(#be)"><path d="M316.411 628.188l5.105-5.11 6.125-6.12 30.63-30.63 6.13-6.125 18.38-18.38 6.125-6.12 6.125-6.13 12.25-12.25 6.13-6.125 24.5-24.5h.006l6.125-6.125 3.047-3.052c-.209-.167-.412-.339-.625-.505l-3.881 3.885-6.125 6.125h-.005l-24.5 24.5-6.13 6.125-12.25 12.25-6.125 6.13-6.13 6.125-18.375 18.375-6.13 6.125-24.5 24.5-6.125 6.13-.006-.005-10.276 10.276c.167.214.339.422.505.631z" fill="#3E6EC1"/></g><mask id="bf" style="mask-type:luminance" maskUnits="userSpaceOnUse" x="325" y="506" width="108" height="108"><path d="M325.354 506.458h107.313V614H325.354V506.458z" fill="#fff"/></mask><g mask="url(#bf)"><path d="M307.807 611.156l-1.51 1.511c.13.244.26.494.391.739l20.953-20.953 6.13-6.125 18.375-18.375 6.125-6.13 6.13-6.12 6.125-6.13 12.25-12.25 6.13-6.125 12.25-12.25 6.13-6.125 18.375-18.375 6.125-6.13.527-.521c-.25-.13-.495-.266-.74-.391l-1.245 1.24-6.125 6.13-12.25 12.25-6.13 6.125-18.375 18.375-6.13 6.125-6.125 6.13v-.005l-6.125 6.13-6.125 6.12-6.13 6.13-6.12 6.125h-.005l-12.25 12.25-6.131 6.125-24.5 24.5z" fill="#3E6EC1"/></g><mask id="bg" style="mask-type:luminance" maskUnits="userSpaceOnUse" x="325" y="506" width="104" height="104"><path d="M325.354 506.458h103.313V610H325.354V506.458z" fill="#fff"/></mask><g mask="url(#bg)"><path d="M309.266 604.703l18.375-18.375 6.13-6.125 42.88-42.88 6.13-6.125 30.63-30.63 6.125-6.12 6.125-6.13 2.558-2.558c-.255-.119-.511-.244-.766-.359l-3.25 3.245-6.125 6.13-6.125 6.125-6.13 6.125-18.375 18.375-6.13 6.125-18.375 18.375-6.125 6.13h-.005l-24.5 24.5-6.131 6.125-21.89 21.891c.119.255.239.516.359.771" fill="#3E6EC1"/></g><mask id="bh" style="mask-type:luminance" maskUnits="userSpaceOnUse" x="325" y="506" width="112" height="112"><path d="M325.354 506.458h111.313V618H325.354V506.458z" fill="#fff"/></mask><g mask="url(#bh)"><path d="M308.891 617.333l.375-.375 6.125-6.13 12.25-12.25 6.13-6.125 49.005-49.005 6.13-6.125 12.25-12.25 6.13-6.125 24.5-24.5 4.448-4.453c-.234-.136-.468-.281-.708-.417l-23.573 23.573-6.13 6.125-24.505 24.505v-.005l-6.125 6.13-6.125 6.12-6.125 6.13-6.13 6.125-6.12 6.125h-.005l-18.375 18.375h-.006l-23.838 23.839c.14.239.281.474.422.713z" fill="#3E6EC1"/></g><mask id="bi" style="mask-type:luminance" maskUnits="userSpaceOnUse" x="325" y="506" width="43" height="43"><path d="M325.354 506.458h41.979v42.209h-41.979v-42.209z" fill="#fff"/></mask><g mask="url(#bi)"><path d="M303.135 543.448l6.131-6.125 18.375-18.375 6.13-6.125 18.375-18.375 6.125-6.13 6.13-6.125 2.521-2.521c-.5.12-1.005.245-1.5.37l-2.479 2.484-6.13 6.12-6.12 6.13h-.005l-18.375 18.375h-.006l-24.5 24.5-6.125 6.13-.005-.005-2.734 2.74c-.13.5-.25 1-.375 1.5" fill="#3E6EC1"/></g><mask id="bj" style="mask-type:luminance" maskUnits="userSpaceOnUse" x="325" y="506" width="87" height="86"><path d="M325.354 506.458h85.979v84.875h-85.979v-84.875z" fill="#fff"/></mask><g mask="url(#bj)"><path d="M303.141 586.328l18.375-18.375 6.125-6.13 6.13-6.12 6.125-6.13 12.25-12.25 6.13-6.125 18.375-18.375 6.13-6.125 12.25-12.25 6.125-6.13 6.125-6.125 2.735-2.729a63.998 63.998 0 00-.922-.209l-3.271 3.266-6.125 6.125-6.125 6.13-6.125 6.125-6.13 6.125-24.5 24.5h-.005l-6.125 6.125-6.125 6.13v-.005l-6.125 6.13-6.125 6.12-6.125 6.13h-.006l-28.031 28.032.203.921" fill="#3E6EC1"/></g><mask id="bk" style="mask-type:luminance" maskUnits="userSpaceOnUse" x="325" y="506" width="96" height="95"><path d="M325.354 506.458h95.313v94.209h-95.313v-94.209z" fill="#fff"/></mask><g mask="url(#bk)"><path d="M301.109 600.609l2.026-2.031h.006l24.5-24.5 6.13-6.125 6.125-6.13 12.25-12.25 6.13-6.125 18.375-18.375 6.13-6.125 36.735-36.734c-.282-.094-.558-.198-.839-.292l-.599.604-6.125 6.12-24.505 24.505-6.13 6.125-18.375 18.375-6.125 6.13-.005-.005-6.125 6.13-6.125 6.12-6.125 6.13-12.25 12.25h-.006l-25.364 25.365c.093.281.192.557.291.838z" fill="#3E6EC1"/></g><mask id="bl" style="mask-type:luminance" maskUnits="userSpaceOnUse" x="325" y="506" width="91" height="91"><path d="M325.354 506.458h89.979v90.209h-89.979v-90.209z" fill="#fff"/></mask><g mask="url(#bl)"><path d="M303.135 592.453l6.131-6.125 24.505-24.505 6.125-6.12 6.125-6.13 12.25-12.25 6.13-6.125 12.25-12.25 6.13-6.125 32.089-32.089c-.292-.088-.584-.171-.875-.255l-2.042 2.047-6.13 6.12-6.125 6.13-12.25 12.25-6.13 6.125-18.375 18.375-6.13 6.125-6.12 6.13-.005-.005-6.125 6.125-6.125 6.13-6.125 6.125h-.006l-30.625 30.625h-.005l-2.302 2.308.25.875" fill="#3E6EC1"/></g><mask id="bm" style="mask-type:luminance" maskUnits="userSpaceOnUse" x="325" y="506" width="100" height="100"><path d="M325.354 506.458h99.313V606h-99.313v-99.542z" fill="#fff"/></mask><g mask="url(#bm)"><path d="M302.792 605.052l.343-.349 6.131-6.125 18.375-18.375h.005l12.25-12.25 6.125-6.13 6.125-6.125 6.13-6.125 18.375-18.375 6.13-6.125 18.375-18.375 6.13-6.125 6.125-6.125 6.125-6.13 4.422-4.422c-.265-.11-.531-.219-.802-.328l-5.078 5.078-6.125 6.13-6.13 6.125-18.375 18.375-6.13 6.125-12.25 12.25-6.125 6.13v-.005l-6.125 6.13-6.13 6.12-6.125 6.13-18.375 18.375h-.006l-18.375 18.375-5.349 5.344c.11.271.224.536.334.802z" fill="#3E6EC1"/></g><mask id="bn" style="mask-type:luminance" maskUnits="userSpaceOnUse" x="324" y="506" width="57" height="58"><path d="M324.021 506.422h56.646v56.875h-56.646v-56.875z" fill="#fff"/></mask><g mask="url(#bn)"><path d="M295.677 561.786l6.125-6.119h.005l6.125-6.131 18.375-18.375 6.13-6.125 24.5-24.5 6.131-6.125 6.125-6.13 6.125-6.125 4.854-4.849c-.417.032-.828.073-1.245.11l-11.193 11.192-6.125 6.131-6.125 6.125h-.005l-24.5 24.5-6.13 6.125-12.25 12.25-6.125 6.13-6.125 6.12h-.005l-5.328 5.333-.11 1.24" fill="#3E6EC1"/></g><mask id="bo" style="mask-type:luminance" maskUnits="userSpaceOnUse" x="222" y="479" width="91" height="158"><path d="M312.667 479.5H222v157h90.667v-157z" fill="#fff"/></mask><g mask="url(#bo)"><mask id="bp" style="mask-type:luminance" maskUnits="userSpaceOnUse" x="222" y="481" width="90" height="156"><path d="M222.224 481.539h88.932v154.658h-88.932V481.539z" fill="#fff"/></mask><g mask="url(#bp)"><path d="M223.027 635.106h88.04V482.423h-88.04v152.683z" fill="#fff"/></g><mask id="bq" style="mask-type:luminance" maskUnits="userSpaceOnUse" x="222" y="481" width="90" height="156"><path d="M222.224 481.404h89.61v154.793h-89.61V481.404z" fill="#fff"/></mask><g mask="url(#bq)"><path d="M223.027 635.106h88.04V482.423h-88.04v152.683z" stroke="#3F3F46" stroke-width="1.333" stroke-miterlimit="10" stroke-linecap="round" stroke-linejoin="round"/></g></g><path d="M273.245 501.276c-9.073-1.844-16.948-8.74-19.969-17.49-3.026-8.75-1.089-19.036 4.917-26.083 2-2.354 4.619-4.448 7.698-4.739 3.078-.292 6.5 1.864 6.645 4.953.058 1.198-.364 2.38-.958 3.427-4.489 7.911-17.51 6.552-23.088-.641-5.579-7.187-5.433-17.266-3.704-26.203 5.276-27.229 23.459-51.667 48.026-64.542" stroke="#3F3F46" stroke-width="1.333" stroke-miterlimit="10" stroke-linecap="round" stroke-linejoin="round"/><path d="M271.703 366c3.958.661 21.11 3.958 21.11 3.958v23.089m-56.146 217.245c25.541-16.901 40.104-49.021 35.984-79.365" stroke="#3F3F46" stroke-width="1.333" stroke-miterlimit="10" stroke-linecap="round" stroke-linejoin="round"/><path d="M263.432 543.073l9.219-12.146 10.026 11.37M1544.87 120.094c0 2.26-1.83 4.094-4.09 4.094a4.1 4.1 0 01-4.1-4.094 4.097 4.097 0 014.1-4.094c2.26 0 4.09 1.828 4.09 4.094zM1382 181.859c4.94 8.23 17.2 9.328 25.59 4.683 8.4-4.646 13.67-13.334 18-21.891 6.79-13.417-12.76-8.276-4.89 10.688 3.25 7.812 9.08 15.843 17.5 16.578 12 1.041 19.26-12.287 26.29-22.063 4.82-6.682 10.65-20.151 18.42-21.458 11.75-1.974 12.15 15.083 13.42 19.76 1.27 4.683 4.32 9.63 9.13 10.198 5.8.682 9.98-5.047 14.17-9.109 9.33-9.052 24.62-11.24 36.12-5.172M200.87 24.094a4.095 4.095 0 11-8.19-.002 4.095 4.095 0 018.19.002zM38 85.86c4.938 8.228 17.203 9.328 25.594 4.682 8.396-4.646 13.666-13.334 18-21.891 6.786-13.417-12.766-8.276-4.89 10.688 3.244 7.812 9.072 15.843 17.5 16.578 11.999 1.041 19.254-12.287 26.291-22.063 4.812-6.682 10.64-20.15 18.416-21.458 11.745-1.974 12.151 15.083 13.422 19.76 1.271 4.682 4.318 9.63 9.131 10.198 5.796.683 9.973-5.047 14.161-9.11 9.333-9.051 24.625-11.239 36.125-5.171m906-14.451c-4.94 8.229-17.2 9.328-25.59 4.682-8.4-4.646-13.67-13.333-18-21.89-6.79-13.417 12.76-8.277 4.89 10.687-3.25 7.813-9.08 15.844-17.5 16.578-12 1.042-19.26-12.286-26.29-22.062-4.82-6.683-10.65-20.151-18.42-21.459-11.75-1.974-12.15 15.084-13.42 19.76-1.27 4.683-4.321 9.63-9.134 10.199-5.796.682-9.974-5.047-14.161-9.11-9.333-9.052-24.625-11.24-36.125-5.172M197 269.993V186h140v84h-31.406l-.008-.007H197zM303 216h-80m80 25h-60" stroke="#3F3F46" stroke-width="1.333" stroke-miterlimit="10" stroke-linecap="round" stroke-linejoin="round"/></svg>