<svg width="100" height="100" fill="none" xmlns="http://www.w3.org/2000/svg"><path d="M100 0H0v100h100V0z" fill="#18181B"/><path fill-rule="evenodd" clip-rule="evenodd" d="M15.73 77.907h7.987v-.827h-3.171l3.406-16.302h11.92l3.466 16.302H35.99v.827h13.448v-.827h-3.347L33.348 18.605h-1.35L20.37 73.89c-.411 1.95-1.997 3.19-4.64 3.19v.827zm14.036-44.536l5.872 26.52h-11.51l5.638-26.52zM77.57 49.13h3.33v-.816H67.701v.816h3.329v15.612c0 6.815-2.57 12.35-5.782 12.35s-5.781-5.535-5.781-12.35V31.77c0-6.816 2.452-12.35 6.599-12.35 4.847 0 9.052 5.243 9.052 12.35h.817V19.42h-.817c0 1.98-.993 2.971-2.161 2.971-1.81-2.388-4.322-3.786-7.767-3.786-6.833 0-12.38 5.942-12.38 13.165v32.972c0 7.223 5.547 13.165 12.38 13.165 4.788 0 6.54-5.126 12.38-5.126V49.13z" fill="#fff"/></svg>