<?xml version="1.0" encoding="utf-8"?><svg viewBox="0 0 16 12" xmlns="http://www.w3.org/2000/svg" xmlns:xlink="http://www.w3.org/1999/xlink"><style>:root>svg{display:none}:root>svg:target{display:block}</style><svg fill="none" viewBox="0 0 16 12" id="icon-eye" xmlns="http://www.w3.org/2000/svg"><path d="M15.898 5.689C15.755 5.493 12.35.9 8 .9S.244 5.493.102 5.69a.528.528 0 000 .622C.244 6.507 3.65 11.1 8 11.1s7.755-4.592 7.898-4.788a.528.528 0 000-.622zM8 10.044c-3.204 0-5.98-3.048-6.8-4.044.82-.998 3.589-4.044 6.8-4.044 3.204 0 5.979 3.047 6.8 4.044-.82.998-3.59 4.044-6.8 4.044z" fill="currentColor"/><path d="M8 2.835A3.168 3.168 0 004.835 6 3.168 3.168 0 008 9.165 3.169 3.169 0 0011.165 6 3.168 3.168 0 008 2.835zM8 8.11A2.112 2.112 0 015.89 6c0-1.163.947-2.11 2.11-2.11 1.163 0 2.11.947 2.11 2.11 0 1.163-.947 2.11-2.11 2.11z" fill="currentColor"/></svg><svg fill="none" viewBox="0 0 16 12" id="icon-eye-slash" xmlns="http://www.w3.org/2000/svg"><path d="M9.986 6.135l.91-.909c.065.247.104.506.104.774 0 1.654-1.346 3-3 3a2.99 2.99 0 01-.774-.105l.909-.909a1.991 1.991 0 001.851-1.851zm5.951-.378c-.061-.11-.934-1.639-2.639-2.934l-.727.728A10.005 10.005 0 0114.91 6C14.32 6.903 11.995 10 8 10a7.347 7.347 0 01-1.68-.199l-.822.822A8.47 8.47 0 008 11c5.234 0 7.83-4.563 7.937-4.757a.5.5 0 000-.486zM13.854.854l-11 11a.499.499 0 01-.816-.545.5.5 0 01.108-.162l1.4-1.4C1.283 8.381.134 6.37.063 6.243a.5.5 0 010-.486C.171 5.563 2.766 1 8 1a8.42 8.42 0 013.528.765L13.146.147a.5.5 0 11.707.707zM4.292 9l1.265-1.265A2.98 2.98 0 015 6c0-1.654 1.346-3 3-3a2.98 2.98 0 011.735.557l1.024-1.023A7.362 7.362 0 008 2C4.006 2 1.68 5.097 1.088 6 1.465 6.57 2.546 8.012 4.292 9zM6.283 7.01L9.01 4.283A1.977 1.977 0 008 4c-1.103 0-2 .897-2 2 0 .37.108.712.283 1.01z" fill="currentColor"/></svg></svg>